<svg width="250" height="250" viewBox="0 0 250 250" fill="none" xmlns="http://www.w3.org/2000/svg">
<rect width="250" height="250" fill="white"/>
<path d="M204.733 127.116L188.658 111.5L194.17 100.937L213 119.308L204.733 127.116Z" fill="#141414"/>
<path d="M206.111 133.545L187.74 151.457L192.792 162.021L216.215 138.597L206.111 133.545Z" fill="#141414"/>
<rect x="172.584" y="90.8327" width="22.0453" height="22.0453" rx="2" fill="#141414"/>
<rect x="203.815" y="118.389" width="22.0453" height="22.0453" rx="2" fill="#141414"/>
<rect x="172.584" y="149.62" width="22.0453" height="22.0453" rx="2" fill="#141414"/>
<path d="M77.5432 91.7512L24.6968 122.773V141.999L77.5432 171.665V154.672L40.164 132.386L77.5432 109.663V91.7512Z" fill="#141414"/>
<path d="M143.265 112.357L127.606 105.352C113.935 135.63 107.076 154.181 96.8545 187.147C95.8326 191.109 101.195 192.947 103.272 193.209C105.856 193.342 107.112 192.452 107.453 191.8C122.119 161.924 130.076 144.725 143.265 112.357Z" fill="#141414"/>
<path d="M145.292 107.806L129.528 100.811L132.895 92.7453L148.659 99.7401L145.292 107.806Z" fill="#141414"/>
<path d="M148.577 94.4495L136.976 89.4207C137.105 79.7721 135.882 74.603 135.254 73.2245L157.47 55.9276L160.459 84.0326C155.093 85.1342 150.453 91.6456 148.577 94.4495Z" fill="#141414"/>
<ellipse cx="149.081" cy="76.5715" rx="3.82727" ry="3.83235" transform="rotate(-6.07113 149.081 76.5715)" fill="#141414"/>
</svg>
