<svg version="1.1" id="Layer_1" xmlns="http://www.w3.org/2000/svg" xmlns:xlink="http://www.w3.org/1999/xlink" x="0px" y="0px"
	 width="100%" viewBox="0 0 1080 1081" enable-background="new 0 0 1080 1081" xml:space="preserve">
<path fill="#960303" opacity="1.000000" stroke="none" 
	d="
M583.000000,0.999998 
	C583.444458,1.000000 583.888916,1.000000 584.569214,1.400299 
	C586.300110,2.513941 587.754517,3.725592 589.297424,3.851261 
	C594.903015,4.307825 600.596130,3.978142 606.147644,4.737955 
	C613.052551,5.683003 619.838684,7.472674 626.696228,8.793158 
	C637.043213,10.785566 647.526794,12.206367 657.738098,14.735070 
	C675.313660,19.087448 692.840210,23.720457 710.176941,28.935318 
	C736.217102,36.768169 761.098450,47.627071 785.280334,59.973167 
	C817.681274,76.515450 848.251770,95.943550 876.690430,118.742027 
	C908.249939,144.042435 936.840515,172.256058 962.236450,203.729553 
	C988.269287,235.992310 1010.615112,270.717346 1028.010132,308.257202 
	C1039.097656,332.185181 1047.544922,357.352142 1056.814941,382.098755 
	C1060.200562,391.136627 1062.958984,400.463409 1065.254028,409.841766 
	C1067.991577,421.027435 1069.936035,432.407715 1072.200928,443.708313 
	C1073.278442,449.084656 1074.592407,454.434723 1075.285034,459.862305 
	C1076.428101,468.818237 1077.059937,477.839081 1078.170410,486.799957 
	C1078.314819,487.965637 1080.018555,488.938080 1081.000000,490.000000 
	C1081.000000,490.750000 1081.000000,491.500000 1080.579102,492.581909 
	C1078.599609,497.070648 1077.744751,501.178467 1081.000000,505.000000 
	C1081.000000,525.687561 1081.000000,546.375122 1080.843628,567.618652 
	C1080.645630,568.286072 1080.536987,568.437317 1080.574951,568.501282 
	C1080.684937,568.686340 1080.854126,568.836304 1081.000000,569.000000 
	C1081.000000,571.370544 1081.000000,573.741150 1080.607422,576.622681 
	C1079.836304,579.017212 1079.300537,580.884583 1079.104736,582.786926 
	C1077.976685,593.749817 1077.462891,604.805725 1075.736816,615.670654 
	C1072.694336,634.822449 1069.576660,654.007629 1065.254395,672.895996 
	C1061.989136,687.165222 1057.121582,701.103882 1052.398438,714.996277 
	C1040.585571,749.742493 1025.366455,782.950562 1006.723694,814.594971 
	C990.297302,842.477295 971.604553,868.695496 950.458923,893.201538 
	C917.633179,931.243958 880.392456,964.256287 838.464600,991.941589 
	C814.816956,1007.556335 790.125671,1021.301758 764.273132,1032.968994 
	C736.398010,1045.549072 707.752563,1055.892334 678.135742,1063.547485 
	C652.387146,1070.202759 626.378113,1075.405762 599.883911,1078.033447 
	C597.799194,1078.240356 595.786499,1079.339600 593.711243,1079.444092 
	C586.431274,1079.810181 579.135376,1079.855835 571.854675,1080.210327 
	C570.876404,1080.258057 569.950317,1081.377075 569.000000,1082.000000 
	C550.645752,1082.000000 532.291565,1082.000000 513.471069,1081.595947 
	C512.273376,1080.862305 511.562836,1080.306152 510.807343,1080.236206 
	C493.073212,1078.597290 475.257721,1077.582520 457.622192,1075.220825 
	C445.118500,1073.546509 432.801086,1070.296387 420.502136,1067.328491 
	C407.360016,1064.157104 394.214600,1060.894775 381.285919,1056.963867 
	C345.360016,1046.040894 311.090576,1031.192505 278.324951,1012.811768 
	C247.744690,995.657043 219.173599,975.724670 192.328690,953.144958 
	C165.711090,930.756348 141.523972,906.030334 119.864288,878.932861 
	C86.287437,836.926453 59.417274,790.893738 39.484035,740.879700 
	C35.924839,731.949280 31.742447,723.229248 28.775463,714.110352 
	C25.044376,702.642883 22.102545,690.906799 19.131752,679.207520 
	C16.742992,669.800354 14.679715,660.303711 12.730273,650.793823 
	C11.146194,643.066345 9.940930,635.261108 8.576674,627.488708 
	C8.024273,624.341553 7.495777,621.190186 7.002282,617.591187 
	C6.369307,613.094360 5.690449,609.047119 5.025658,604.665649 
	C5.040985,603.885254 5.042245,603.439209 5.248373,602.742432 
	C5.200522,600.921082 4.947803,599.350403 4.673157,597.536865 
	C4.620092,596.970215 4.593635,596.646057 4.698605,595.882080 
	C4.292751,592.295166 3.760149,589.147705 3.189299,585.600403 
	C3.114767,584.131104 3.078485,583.061768 3.235918,581.762939 
	C2.619752,580.688965 1.809872,579.844482 0.999996,579.000000 
	C1.000000,576.629456 1.000000,574.258850 1.404446,571.402466 
	C3.344929,566.498047 4.523131,562.101807 1.000000,558.000000 
	C1.000000,547.312439 1.000000,536.624878 1.382656,525.371582 
	C3.111495,520.441528 4.857194,516.053345 1.000000,512.000000 
	C1.000000,509.958344 1.000000,507.916656 1.330616,505.568298 
	C2.115774,504.175598 2.570317,503.089630 3.025353,501.586578 
	C3.043815,499.779297 3.061782,498.389069 3.340992,496.720337 
	C3.933551,493.191345 4.264868,489.940826 4.618106,486.441925 
	C4.676361,485.863007 4.708296,485.532104 4.841241,484.830750 
	C4.982594,482.643921 5.018538,480.827087 5.055020,478.633545 
	C5.063804,477.503326 5.072050,476.749847 5.338927,475.781189 
	C5.774261,473.718353 5.950965,471.870758 6.136837,469.635315 
	C6.237318,468.477661 6.328631,467.707855 6.583476,466.738098 
	C6.699540,465.728058 6.652071,464.917969 6.478485,463.731842 
	C7.782722,456.340942 9.102027,449.301239 10.666413,442.316406 
	C13.984942,427.499573 16.976099,412.589142 20.910622,397.934326 
	C32.568565,354.512329 49.827065,313.359650 72.117744,274.312439 
	C89.825020,243.294067 110.416740,214.339035 133.873978,187.401627 
	C153.043213,165.388412 173.790741,145.004745 196.231079,126.340637 
	C218.269272,108.011032 241.521454,91.331490 266.190216,76.780907 
	C293.157867,60.874336 321.248535,47.088718 350.707764,36.376850 
	C368.331940,29.968410 386.103577,23.830864 404.134521,18.720301 
	C417.466675,14.941526 431.329102,13.040371 444.945404,10.254356 
	C450.920471,9.031816 456.815399,7.222615 462.844910,6.504976 
	C473.032135,5.292486 483.306427,4.824767 493.518311,3.789422 
	C494.760406,3.663491 495.843323,1.968059 497.000000,1.000006 
	C502.022095,1.000000 507.044189,1.000000 512.436890,1.294448 
	C513.538330,1.392600 514.269165,1.196304 515.000000,1.000004 
	C532.020874,1.000000 549.041809,1.000000 566.580383,1.395090 
	C572.041748,2.148059 576.983704,2.542454 581.933167,2.780777 
	C582.259399,2.796486 582.643066,1.621266 583.000000,0.999998 
M45.200375,665.260315 
	C47.953831,675.201538 50.380638,685.246948 53.513016,695.067322 
	C76.211334,766.229248 112.244659,829.869568 162.791611,884.891541 
	C245.604446,975.035828 347.687408,1029.414185 468.878723,1047.419434 
	C521.038574,1055.168823 573.248718,1054.415283 625.202454,1045.706299 
	C702.629517,1032.727539 773.550598,1003.602905 837.450928,957.856201 
	C914.411011,902.759644 972.120239,831.876953 1009.988220,745.124573 
	C1042.966675,669.573669 1056.338379,590.477966 1051.150513,508.216675 
	C1048.528076,466.631805 1041.037964,425.947357 1028.298096,386.289948 
	C1002.390320,305.642792 959.316650,235.449692 898.662109,176.312592 
	C821.758057,101.332458 730.154968,54.860039 624.220337,37.089142 
	C583.823792,30.312477 543.127991,28.625481 502.185974,31.832510 
	C456.748291,35.391682 412.534973,44.448540 369.683258,59.829033 
	C283.271027,90.844421 210.102737,141.338516 150.939636,211.478714 
	C79.105827,296.640533 39.384945,395.204407 31.228287,506.308075 
	C27.308157,559.705017 32.168167,612.455872 45.200375,665.260315 
z"/>
<path fill="#010000" opacity="1.000000" stroke="none" 
	d="
M5.043506,602.993103 
	C5.042245,603.439209 5.040985,603.885254 4.745679,604.927673 
	C5.286556,609.696228 6.121479,613.868530 6.956400,618.040771 
	C7.495777,621.190186 8.024273,624.341553 8.576674,627.488708 
	C9.940930,635.261108 11.146194,643.066345 12.730273,650.793823 
	C14.679715,660.303711 16.742992,669.800354 19.131752,679.207520 
	C22.102545,690.906799 25.044376,702.642883 28.775463,714.110352 
	C31.742447,723.229248 35.924839,731.949280 39.484035,740.879700 
	C59.417274,790.893738 86.287437,836.926453 119.864288,878.932861 
	C141.523972,906.030334 165.711090,930.756348 192.328690,953.144958 
	C219.173599,975.724670 247.744690,995.657043 278.324951,1012.811768 
	C311.090576,1031.192505 345.360016,1046.040894 381.285919,1056.963867 
	C394.214600,1060.894775 407.360016,1064.157104 420.502136,1067.328491 
	C432.801086,1070.296387 445.118500,1073.546509 457.622192,1075.220825 
	C475.257721,1077.582520 493.073212,1078.597290 510.807343,1080.236206 
	C511.562836,1080.306152 512.273376,1080.862305 513.002441,1081.595947 
	C342.408142,1082.000000 171.816284,1082.000000 1.000000,1082.000000 
	C1.000000,920.312500 1.000000,758.624939 1.363048,596.421509 
	C2.674681,596.044373 3.623267,596.182983 4.571856,596.321533 
	C4.593635,596.646057 4.620092,596.970215 4.368542,597.692200 
	C4.405071,599.724609 4.724288,601.358887 5.043506,602.993103 
z"/>
<path fill="#010000" opacity="1.000000" stroke="none" 
	d="
M4.735833,485.200745 
	C4.708296,485.532104 4.676361,485.863007 4.271645,486.530212 
	C2.935508,486.911285 1.967754,486.955627 1.000000,487.000000 
	C1.000000,325.072174 1.000000,163.144333 1.000000,1.000000 
	C166.020828,1.000000 331.041748,1.000000 496.531342,1.000006 
	C495.843323,1.968059 494.760406,3.663491 493.518311,3.789422 
	C483.306427,4.824767 473.032135,5.292486 462.844910,6.504976 
	C456.815399,7.222615 450.920471,9.031816 444.945404,10.254356 
	C431.329102,13.040371 417.466675,14.941526 404.134521,18.720301 
	C386.103577,23.830864 368.331940,29.968410 350.707764,36.376850 
	C321.248535,47.088718 293.157867,60.874336 266.190216,76.780907 
	C241.521454,91.331490 218.269272,108.011032 196.231079,126.340637 
	C173.790741,145.004745 153.043213,165.388412 133.873978,187.401627 
	C110.416740,214.339035 89.825020,243.294067 72.117744,274.312439 
	C49.827065,313.359650 32.568565,354.512329 20.910622,397.934326 
	C16.976099,412.589142 13.984942,427.499573 10.666413,442.316406 
	C9.102027,449.301239 7.782722,456.340942 6.152169,463.850159 
	C6.107963,465.208984 6.263954,466.073517 6.419945,466.938019 
	C6.328631,467.707855 6.237318,468.477661 5.783216,469.730957 
	C5.307050,472.141724 5.193673,474.069061 5.080297,475.996399 
	C5.072050,476.749847 5.063804,477.503326 4.710765,478.739197 
	C4.489259,481.214630 4.612546,483.207703 4.735833,485.200745 
z"/>
<path fill="#010000" opacity="1.000000" stroke="none" 
	d="
M569.468689,1082.000000 
	C569.950317,1081.377075 570.876404,1080.258057 571.854675,1080.210327 
	C579.135376,1079.855835 586.431274,1079.810181 593.711243,1079.444092 
	C595.786499,1079.339600 597.799194,1078.240356 599.883911,1078.033447 
	C626.378113,1075.405762 652.387146,1070.202759 678.135742,1063.547485 
	C707.752563,1055.892334 736.398010,1045.549072 764.273132,1032.968994 
	C790.125671,1021.301758 814.816956,1007.556335 838.464600,991.941589 
	C880.392456,964.256287 917.633179,931.243958 950.458923,893.201538 
	C971.604553,868.695496 990.297302,842.477295 1006.723694,814.594971 
	C1025.366455,782.950562 1040.585571,749.742493 1052.398438,714.996277 
	C1057.121582,701.103882 1061.989136,687.165222 1065.254395,672.895996 
	C1069.576660,654.007629 1072.694336,634.822449 1075.736816,615.670654 
	C1077.462891,604.805725 1077.976685,593.749817 1079.104736,582.786926 
	C1079.300537,580.884583 1079.836304,579.017212 1080.607422,577.066895 
	C1081.000000,745.260925 1081.000000,913.521790 1081.000000,1082.000000 
	C910.645813,1082.000000 740.291565,1082.000000 569.468689,1082.000000 
z"/>
<path fill="#010000" opacity="1.000000" stroke="none" 
	d="
M1081.000000,489.531342 
	C1080.018555,488.938080 1078.314819,487.965637 1078.170410,486.799957 
	C1077.059937,477.839081 1076.428101,468.818237 1075.285034,459.862305 
	C1074.592407,454.434723 1073.278442,449.084656 1072.200928,443.708313 
	C1069.936035,432.407715 1067.991577,421.027435 1065.254028,409.841766 
	C1062.958984,400.463409 1060.200562,391.136627 1056.814941,382.098755 
	C1047.544922,357.352142 1039.097656,332.185181 1028.010132,308.257202 
	C1010.615112,270.717346 988.269287,235.992310 962.236450,203.729553 
	C936.840515,172.256058 908.249939,144.042435 876.690430,118.742027 
	C848.251770,95.943550 817.681274,76.515450 785.280334,59.973167 
	C761.098450,47.627071 736.217102,36.768169 710.176941,28.935318 
	C692.840210,23.720457 675.313660,19.087448 657.738098,14.735070 
	C647.526794,12.206367 637.043213,10.785566 626.696228,8.793158 
	C619.838684,7.472674 613.052551,5.683003 606.147644,4.737955 
	C600.596130,3.978142 594.903015,4.307825 589.297424,3.851261 
	C587.754517,3.725592 586.300110,2.513941 584.902527,1.400299 
	C750.259888,1.000000 915.519775,1.000000 1081.000000,1.000000 
	C1081.000000,163.687500 1081.000000,326.375092 1081.000000,489.531342 
z"/>
<path fill="#520403" opacity="1.000000" stroke="none" 
	d="
M4.698603,595.882080 
	C3.623267,596.182983 2.674681,596.044373 1.363048,595.952881 
	C1.000000,592.969421 1.000000,589.938782 1.369636,586.489746 
	C2.235364,586.047668 2.731456,586.023987 3.227548,586.000305 
	C3.760149,589.147705 4.292751,592.295166 4.698603,595.882080 
z"/>
<path fill="#520403" opacity="1.000000" stroke="none" 
	d="
M1.000000,487.454102 
	C1.967754,486.955627 2.935508,486.911285 4.249724,486.778625 
	C4.264868,489.940826 3.933551,493.191345 2.992481,496.714844 
	C1.921819,496.991882 1.460909,496.995941 1.000000,497.000000 
	C1.000000,493.969391 1.000000,490.938812 1.000000,487.454102 
z"/>
<path fill="#010000" opacity="1.000000" stroke="none" 
	d="
M582.533142,0.999998 
	C582.643066,1.621266 582.259399,2.796486 581.933167,2.780777 
	C576.983704,2.542454 572.041748,2.148059 567.049072,1.395090 
	C572.022095,1.000000 577.044189,1.000000 582.533142,0.999998 
z"/>
<path fill="#520403" opacity="1.000000" stroke="none" 
	d="
M1.000000,512.463196 
	C4.857194,516.053345 3.111495,520.441528 1.382656,524.902954 
	C1.000000,520.975464 1.000000,516.950928 1.000000,512.463196 
z"/>
<path fill="#520403" opacity="1.000000" stroke="none" 
	d="
M1.000000,558.463196 
	C4.523131,562.101807 3.344929,566.498047 1.404446,570.958374 
	C1.000000,566.975464 1.000000,562.950928 1.000000,558.463196 
z"/>
<path fill="#010000" opacity="1.000000" stroke="none" 
	d="
M1081.000000,504.539368 
	C1077.744751,501.178467 1078.599609,497.070648 1080.579102,492.956909 
	C1081.000000,496.692902 1081.000000,500.385834 1081.000000,504.539368 
z"/>
<path fill="#010000" opacity="1.000000" stroke="none" 
	d="
M1.000000,497.416656 
	C1.460909,496.995941 1.921819,496.991882 2.731239,496.993347 
	C3.061782,498.389069 3.043815,499.779297 2.687234,501.615723 
	C1.899081,502.041260 1.449541,502.020630 1.000000,502.000000 
	C1.000000,500.611115 1.000000,499.222198 1.000000,497.416656 
z"/>
<path fill="#520403" opacity="1.000000" stroke="none" 
	d="
M1.000000,502.375000 
	C1.449541,502.020630 1.899081,502.041260 2.686740,502.032776 
	C2.570317,503.089630 2.115774,504.175598 1.330616,505.130798 
	C1.000000,504.250000 1.000000,503.500000 1.000000,502.375000 
z"/>
<path fill="#010000" opacity="1.000000" stroke="none" 
	d="
M3.189298,585.600403 
	C2.731456,586.023987 2.235364,586.047668 1.369636,586.035645 
	C1.000000,584.933289 1.000000,583.866638 1.338293,582.347778 
	C2.131792,581.927917 2.586998,581.960144 3.042203,581.992371 
	C3.078485,583.061768 3.114767,584.131104 3.189298,585.600403 
z"/>
<path fill="#520403" opacity="1.000000" stroke="none" 
	d="
M3.235918,581.762939 
	C2.586998,581.960144 2.131792,581.927917 1.338293,581.947876 
	C1.000000,581.250000 1.000000,580.500000 0.999996,579.375000 
	C1.809872,579.844482 2.619752,580.688965 3.235918,581.762939 
z"/>
<path fill="#010000" opacity="1.000000" stroke="none" 
	d="
M514.666687,1.000004 
	C514.269165,1.196304 513.538330,1.392600 512.903748,1.294448 
	C513.444458,1.000000 513.888916,1.000000 514.666687,1.000004 
z"/>
<path fill="#010000" opacity="1.000000" stroke="none" 
	d="
M1081.000000,568.750000 
	C1080.854126,568.836304 1080.684937,568.686340 1080.574951,568.501282 
	C1080.536987,568.437317 1080.645630,568.286072 1080.843628,568.087280 
	C1081.000000,568.000000 1081.000000,568.500000 1081.000000,568.750000 
z"/>
<path fill="#FEFDFD" opacity="1.000000" stroke="none" 
	d="
M45.107269,664.855713 
	C32.168167,612.455872 27.308157,559.705017 31.228287,506.308075 
	C39.384945,395.204407 79.105827,296.640533 150.939636,211.478714 
	C210.102737,141.338516 283.271027,90.844421 369.683258,59.829033 
	C412.534973,44.448540 456.748291,35.391682 502.185974,31.832510 
	C543.127991,28.625481 583.823792,30.312477 624.220337,37.089142 
	C730.154968,54.860039 821.758057,101.332458 898.662109,176.312592 
	C959.316650,235.449692 1002.390320,305.642792 1028.298096,386.289948 
	C1041.037964,425.947357 1048.528076,466.631805 1051.150513,508.216675 
	C1056.338379,590.477966 1042.966675,669.573669 1009.988220,745.124573 
	C972.120239,831.876953 914.411011,902.759644 837.450928,957.856201 
	C773.550598,1003.602905 702.629517,1032.727539 625.202454,1045.706299 
	C573.248718,1054.415283 521.038574,1055.168823 468.878723,1047.419434 
	C347.687408,1029.414185 245.604446,975.035828 162.791611,884.891541 
	C112.244659,829.869568 76.211334,766.229248 53.513016,695.067322 
	C50.380638,685.246948 47.953831,675.201538 45.107269,664.855713 
M880.738831,468.783142 
	C868.803650,415.006104 845.701599,366.494446 810.623291,324.077576 
	C752.548035,253.852798 678.292358,211.582993 587.919800,198.850739 
	C524.344666,189.893860 462.585419,197.929321 403.544800,223.330887 
	C336.133575,252.333832 282.572174,298.025421 243.985657,360.538849 
	C200.296906,431.318237 184.085266,508.274414 194.878571,590.757568 
	C203.245804,654.700378 227.529419,712.163574 268.347900,761.998413 
	C336.862305,845.646973 425.615540,889.506592 533.790710,892.502930 
	C599.791260,894.331116 661.501404,877.870911 718.162415,843.857727 
	C792.176941,799.427429 843.341003,736.128723 871.009277,654.384338 
	C891.492615,593.867371 894.296204,532.091309 880.738831,468.783142 
M766.076538,111.439018 
	C753.409424,102.432213 738.699341,105.583122 724.147949,104.997238 
	C725.955261,100.986717 727.485962,97.589821 729.134094,93.932587 
	C718.202698,88.760071 707.856384,83.864410 696.695007,78.583069 
	C697.133850,81.240257 697.093262,83.285385 697.823853,85.002411 
	C700.342957,90.923363 698.635376,96.010834 695.970581,101.485458 
	C682.274902,129.622696 668.879822,157.906281 655.399414,186.148148 
	C654.710144,187.592316 654.203796,189.123825 653.474915,190.961029 
	C664.250366,196.044586 674.670532,200.960541 685.869141,206.243759 
	C685.368164,203.279449 685.050781,201.347733 684.713623,199.419479 
	C684.231323,196.662170 682.567139,193.439346 683.451111,191.234512 
	C686.833557,182.797729 691.033203,174.688568 695.170410,165.944290 
	C703.055481,169.696091 710.452271,173.215591 718.034546,176.823334 
	C712.124756,189.364624 706.535095,201.226639 700.805603,213.385330 
	C711.552551,218.459579 721.994995,223.390015 733.399048,228.774506 
	C732.770203,225.101013 732.659485,222.414078 731.813171,219.983292 
	C730.505493,216.227707 731.135559,213.063980 732.830078,209.523743 
	C746.698975,180.548447 760.383118,151.484680 774.108704,122.440865 
	C775.001099,120.552437 775.772522,118.606812 776.689880,116.480057 
	C773.047791,114.747841 769.904846,113.253044 766.076538,111.439018 
M172.309708,824.817078 
	C197.524551,808.712891 222.739410,792.608643 247.641342,776.704285 
	C240.535416,758.371643 227.131882,746.787476 209.123138,738.889221 
	C213.399216,736.093445 216.677338,733.950195 220.015503,731.767639 
	C213.551346,721.647278 207.309326,711.874695 200.566864,701.318604 
	C199.307281,704.680603 197.977264,707.048645 197.573792,709.565247 
	C196.840469,714.139221 194.106094,716.625977 190.359375,718.935852 
	C171.942566,730.290039 153.650574,741.847412 135.353210,753.394409 
	C124.979042,759.941284 114.679276,766.606079 104.183907,773.321533 
	C110.704308,783.511169 116.958076,793.284119 123.760246,803.914062 
	C124.828850,800.937195 125.419922,798.892944 126.286392,796.972900 
	C127.491089,794.303467 128.236984,790.813660 130.346298,789.277466 
	C137.439285,784.111572 145.049301,779.655640 152.930344,774.629028 
	C157.546585,781.836853 161.963898,788.734009 166.569901,795.925781 
	C154.899017,803.415649 143.777740,810.552734 132.528259,817.772156 
	C139.088333,828.037903 145.278702,837.725037 151.751099,847.853577 
	C154.129196,842.667969 155.321365,837.457825 158.441940,833.976074 
	C161.760361,830.273438 166.906097,828.208618 171.254211,825.429077 
	C171.394531,825.339355 171.537720,825.254150 172.309708,824.817078 
M411.890747,897.662903 
	C413.022858,900.821228 414.252930,903.948975 415.252563,907.148682 
	C415.913849,909.265442 416.969971,911.613708 416.611908,913.639648 
	C412.674255,935.918945 408.438080,958.145264 404.400665,980.407288 
	C402.215973,992.453369 400.258057,1004.540588 398.146271,1016.911560 
	C409.948700,1019.014282 421.341858,1021.044128 433.853729,1023.273254 
	C432.293060,1020.167908 431.161407,1018.028320 430.133545,1015.839844 
	C429.088898,1013.615601 427.068329,1011.199463 427.346191,1009.116943 
	C428.546600,1000.120117 430.432953,991.214844 432.156616,981.801514 
	C440.714752,983.368408 448.649536,984.821167 456.960785,986.342834 
	C454.603088,999.775452 452.342712,1012.653442 449.980530,1026.111328 
	C461.854279,1028.168945 473.249512,1030.143677 485.540619,1032.273560 
	C484.302032,1029.692993 483.677643,1027.786987 482.577332,1026.214111 
	C479.406555,1021.681274 479.163788,1016.988098 480.170410,1011.601807 
	C484.509949,988.381042 488.475403,965.090210 492.563751,941.822571 
	C494.251160,932.219177 495.905151,922.609863 497.484772,913.518921 
	C479.222412,906.250854 461.687408,908.567200 443.811981,916.078857 
	C444.508148,910.963501 444.991608,907.410828 445.520782,903.522400 
	C434.313934,901.540894 423.531677,899.634460 411.890747,897.662903 
M878.747498,242.248001 
	C886.649414,233.759171 894.551270,225.270355 902.621033,216.601181 
	C897.026123,211.353073 891.961304,206.282898 886.525024,201.648422 
	C884.097168,199.578629 881.073792,197.967560 878.057373,196.876022 
	C870.955688,194.306198 863.695740,192.173843 855.922180,189.679123 
	C858.965393,186.297546 861.488159,183.494293 864.213440,180.466034 
	C855.561462,172.370422 847.175598,164.523788 838.115662,156.046432 
	C837.734924,159.084991 837.301880,160.888947 837.321899,162.687866 
	C837.384827,168.350449 835.106567,172.634872 831.136414,176.752960 
	C815.415344,193.059860 800.059631,209.718460 784.509949,226.191483 
	C777.211731,233.923126 769.780701,241.529434 762.192932,249.418030 
	C771.008728,257.673401 779.530823,265.653687 788.785828,274.320282 
	C789.309875,269.533569 789.547058,266.046783 790.127930,262.618195 
	C790.417419,260.909576 790.917786,258.920074 792.033325,257.716003 
	C806.184204,242.442078 820.429138,227.254395 834.785278,212.173431 
	C835.823303,211.082993 838.113892,210.210587 839.477295,210.564636 
	C847.459839,212.637421 855.339722,215.105713 864.177002,217.712769 
	C842.657593,240.672775 821.763184,262.965973 800.623840,285.520477 
	C809.385742,293.732147 817.890564,301.702881 827.008118,310.247833 
	C827.399109,307.364746 827.858276,305.563721 827.847473,303.765503 
	C827.813416,298.108002 830.051758,293.738770 834.003174,289.636536 
	C848.910583,274.159973 863.534485,258.410278 878.747498,242.248001 
M321.689178,877.985474 
	C321.396515,879.191223 321.419342,880.614502 320.761597,881.568604 
	C315.089630,889.796692 309.294678,897.939941 303.536987,906.108826 
	C292.420532,921.880676 281.304413,937.652893 269.939636,953.777527 
	C279.716309,960.669250 289.269989,967.403748 299.267334,974.451050 
	C299.267334,970.085144 298.990051,966.601318 299.362610,963.188354 
	C299.620819,960.823120 300.276642,958.209351 301.605591,956.298218 
	C314.157379,938.247742 326.901337,920.330872 339.570312,902.361816 
	C346.747162,892.182373 353.887726,881.977356 361.260132,871.476929 
	C356.162537,867.869873 351.267914,864.702820 346.714813,861.103821 
	C341.854370,857.261963 336.586548,855.140991 330.370026,854.562195 
	C324.177521,853.985596 318.066528,852.533630 311.187531,851.338196 
	C313.848541,847.542297 315.925079,844.580200 318.306610,841.182983 
	C308.635590,834.364807 299.205414,827.716431 289.125946,820.610291 
	C289.125946,824.511414 289.530060,827.524475 289.022217,830.374939 
	C288.407196,833.827087 287.752441,837.640930 285.847015,840.433044 
	C275.427307,855.701721 264.643433,870.722717 253.935638,885.793945 
	C245.071625,898.269897 236.139557,910.697510 226.980484,923.506165 
	C236.735260,930.358337 246.292053,937.071411 256.631622,944.334412 
	C256.631622,941.581848 256.868713,939.929688 256.590332,938.369507 
	C255.425278,931.840088 257.678619,926.678101 261.585327,921.402100 
	C272.188080,907.082947 282.332520,892.418701 292.408142,877.719543 
	C294.540405,874.608826 296.779968,873.675171 300.285034,874.322998 
	C307.157349,875.593201 314.067230,876.660339 321.689178,877.985474 
M368.953583,209.495804 
	C370.456116,207.387161 371.958649,205.278519 373.785553,202.714691 
	C375.971558,206.444534 377.871277,209.685898 379.935272,213.207581 
	C390.397400,207.293350 400.598328,201.526764 411.529358,195.347458 
	C407.571320,193.620178 404.252411,192.488785 401.277466,190.764038 
	C399.235779,189.580368 397.124451,187.885544 395.978973,185.884232 
	C383.497437,164.077133 371.205383,142.161606 358.850861,120.281746 
	C354.147217,111.951530 349.415466,103.637161 344.616974,95.175255 
	C334.136658,101.105812 324.187866,106.735580 313.322968,112.883759 
	C317.591858,114.814346 321.056458,116.274689 324.413727,117.949997 
	C325.829956,118.656685 327.518280,119.535690 328.237946,120.812614 
	C338.612762,139.220444 348.871124,157.694321 359.037720,176.218079 
	C359.625183,177.288422 359.748962,179.287933 359.134125,180.236191 
	C354.449341,187.461365 349.527039,194.532471 344.415649,202.037796 
	C329.063202,174.848297 313.961456,148.102753 298.723694,121.116348 
	C288.280640,127.014168 278.342987,132.626556 267.588318,138.700348 
	C270.367554,139.986633 272.213013,141.081024 274.204987,141.715012 
	C279.055847,143.258865 282.312317,146.250015 284.807129,150.774033 
	C296.056274,171.172943 307.572632,191.424622 319.007965,211.720749 
	C324.062042,220.690979 329.152557,229.640701 334.155945,238.475113 
	C334.899475,238.345871 335.256317,238.362045 335.537140,238.223785 
	C348.918579,231.635864 361.761261,224.410355 368.953583,209.495804 
M536.699402,54.902042 
	C535.245178,54.902042 533.790955,54.902042 531.581604,54.902042 
	C533.179199,57.408916 534.261353,59.657375 535.842346,61.470890 
	C538.943665,65.028313 539.398987,68.986580 538.996948,73.507683 
	C536.667419,99.704590 534.508423,125.916687 532.312988,152.125427 
	C531.680969,159.670090 531.119202,167.220657 530.510620,174.954819 
	C542.644897,175.978210 554.082458,176.942856 565.520081,177.907501 
	C566.005127,177.543228 566.490173,177.178955 566.975220,176.814697 
	C555.616882,168.282394 558.943359,157.000366 559.790710,146.181366 
	C559.959778,144.023376 559.904907,141.820831 560.345337,139.721085 
	C560.616028,138.430740 561.340515,136.705994 562.365967,136.200989 
	C565.692810,134.562576 569.252441,133.396896 572.869263,131.992142 
	C573.486938,133.626205 573.861816,134.534317 574.176392,135.462845 
	C578.709534,148.844620 583.187622,162.245453 587.823914,175.591309 
	C588.372498,177.170334 589.643066,179.554489 590.806274,179.695892 
	C599.598328,180.764725 608.447266,181.366272 617.796875,182.157562 
	C610.967102,161.818375 604.413696,142.302185 597.818604,122.661880 
	C598.556580,122.256493 599.093811,121.738831 599.683472,121.670059 
	C613.228760,120.090134 616.938904,111.729431 616.889343,99.147293 
	C616.841064,86.910255 618.647766,74.665894 619.688660,61.823086 
	C610.415283,61.030800 601.594238,60.277172 592.366699,59.488804 
	C591.474548,70.647057 590.686218,81.074745 589.758301,91.489998 
	C589.621826,93.021729 589.224609,95.439392 588.267944,95.845734 
	C580.279724,99.238510 572.132324,102.256165 563.415161,105.625793 
	C564.842529,88.973801 566.171997,73.464447 567.534241,57.572559 
	C557.118713,56.659653 547.365479,55.804794 536.699402,54.902042 
M624.118347,916.447693 
	C624.781433,920.388550 624.823242,924.567566 626.225464,928.225098 
	C630.246887,938.714783 626.491089,945.387634 617.043518,950.191223 
	C613.199036,952.145996 609.818115,955.012207 605.716736,957.811584 
	C602.987854,941.294556 600.450378,925.935913 597.865906,910.292908 
	C585.832825,912.417542 574.467834,914.424194 561.990112,916.627380 
	C565.052002,919.422852 567.591187,921.290039 569.532410,923.649292 
	C571.231140,925.713684 572.993408,928.194336 573.464355,930.726074 
	C577.146179,950.520447 580.512512,970.373352 583.997559,990.204529 
	C586.495544,1004.419250 589.026062,1018.628296 591.595703,1033.142944 
	C603.349060,1031.117432 614.728577,1029.156372 627.038269,1027.035034 
	C624.146423,1024.261719 621.849670,1022.359863 619.932007,1020.131836 
	C618.161133,1018.074402 615.969727,1015.854614 615.408813,1013.378845 
	C613.756165,1006.085144 612.741577,998.640320 611.682983,991.225220 
	C611.509155,990.007019 611.971924,988.169495 612.835632,987.429626 
	C615.548523,985.105286 618.593079,983.168213 621.807312,980.867798 
	C623.108337,982.825562 624.022827,984.176636 624.912415,985.544006 
	C631.810547,996.147949 638.827332,1006.677612 645.538391,1017.398804 
	C648.250671,1021.731873 651.131897,1023.561646 656.507080,1022.064392 
	C663.234070,1020.190613 670.246887,1019.342834 677.694641,1017.947571 
	C665.942505,999.977051 654.698669,982.783752 643.331116,965.401306 
	C647.437683,962.562561 650.822449,959.816345 654.580322,957.747986 
	C657.853394,955.946289 658.328613,953.622253 657.738098,950.339539 
	C656.293945,942.311340 655.088867,934.240356 653.677124,926.205994 
	C652.250000,918.084290 650.689880,909.985962 649.100952,901.407471 
	C639.823975,902.999512 631.072693,904.501343 622.299805,906.006836 
	C622.960876,909.709167 623.486755,912.654480 624.118347,916.447693 
M907.104431,691.607910 
	C911.766785,687.717346 916.429138,683.826782 921.657959,679.463562 
	C912.033691,675.065247 903.299622,671.073730 894.082825,666.861572 
	C881.726318,694.058594 869.508606,720.950012 856.959778,748.570374 
	C866.160034,752.819214 875.023376,756.912476 884.117615,761.112305 
	C885.568726,749.646729 881.051331,738.534912 887.662659,728.160583 
	C918.263733,742.051392 948.618774,755.830505 979.143860,769.686768 
	C984.207397,758.546814 989.007996,747.985352 994.189148,736.586670 
	C991.133423,737.135681 988.798218,737.244263 986.693054,737.996582 
	C981.954102,739.690430 977.875305,738.717957 973.388672,736.588867 
	C958.053955,729.312134 942.493042,722.512817 927.036560,715.491394 
	C917.826355,711.307495 908.650146,707.048767 898.102600,702.200317 
	C901.244690,698.407532 903.886719,695.218384 907.104431,691.607910 
M287.237244,278.737518 
	C293.330780,272.195984 299.424316,265.654449 305.783386,258.827850 
	C298.352295,251.882034 291.293915,245.284592 283.105835,237.631210 
	C281.011536,255.495651 272.757874,268.234528 259.429504,278.458679 
	C235.341095,255.850586 211.174286,233.168900 186.883835,210.371155 
	C178.468262,219.367203 170.572815,227.807281 162.166138,236.793823 
	C165.063049,237.198181 167.036850,237.831802 168.944824,237.673264 
	C174.810852,237.185837 178.818298,240.037582 182.854721,243.902740 
	C199.681931,260.015961 216.745438,275.882477 233.729309,291.832001 
	C240.957092,298.619629 248.202057,305.388885 255.615265,312.331360 
	C266.235504,301.051483 276.495178,290.154572 287.237244,278.737518 
M856.081726,840.417969 
	C841.450073,826.404114 826.818481,812.390320 811.907288,798.108704 
	C803.542786,806.858154 795.644897,815.119446 786.947937,824.216675 
	C791.442078,824.708557 794.889038,824.845520 798.221069,825.536682 
	C800.375732,825.983643 802.820007,826.758179 804.353821,828.210510 
	C821.168091,844.130615 837.849731,860.191223 854.522034,876.260742 
	C862.871033,884.307861 871.126526,892.451965 879.700806,900.822144 
	C888.100281,892.006775 896.111938,883.598450 904.808716,874.471008 
	C902.015991,874.194031 900.700928,873.971375 899.382507,873.948486 
	C893.107544,873.839478 888.088440,871.651062 883.557312,866.934143 
	C874.909485,857.931641 865.609802,849.555420 856.081726,840.417969 
M110.482185,496.940002 
	C102.850334,503.783386 99.959015,512.211243 102.906967,522.082642 
	C105.776505,531.691467 112.504189,537.523071 122.426964,539.032898 
	C133.346878,540.694458 143.963959,534.632935 147.978088,524.961792 
	C152.305130,514.536804 149.392044,503.145355 140.637589,496.257507 
	C132.159851,489.587372 120.493965,489.667694 110.482185,496.940002 
M965.826843,536.526184 
	C974.605957,531.782593 978.924011,524.150208 978.612427,514.448975 
	C978.299438,504.705536 973.405029,497.162231 964.289490,493.342560 
	C955.143250,489.510010 946.314087,490.700165 938.626465,497.359863 
	C929.986877,504.844269 928.166016,518.415710 934.367126,528.350586 
	C940.660217,538.432800 953.203186,541.912170 965.826843,536.526184 
z"/>
<path fill="#520403" opacity="1.000000" stroke="none" 
	d="
M7.002283,617.591187 
	C6.121479,613.868530 5.286556,609.696228 4.731612,605.261963 
	C5.690449,609.047119 6.369307,613.094360 7.002283,617.591187 
z"/>
<path fill="#520403" opacity="1.000000" stroke="none" 
	d="
M5.338926,475.781189 
	C5.193673,474.069061 5.307050,472.141724 5.774048,470.118774 
	C5.950965,471.870758 5.774261,473.718353 5.338926,475.781189 
z"/>
<path fill="#520403" opacity="1.000000" stroke="none" 
	d="
M4.841241,484.830750 
	C4.612546,483.207703 4.489259,481.214630 4.710228,479.115936 
	C5.018538,480.827087 4.982594,482.643921 4.841241,484.830750 
z"/>
<path fill="#520403" opacity="1.000000" stroke="none" 
	d="
M5.248374,602.742432 
	C4.724288,601.358887 4.405071,599.724609 4.390468,597.935059 
	C4.947803,599.350403 5.200522,600.921082 5.248374,602.742432 
z"/>
<path fill="#520403" opacity="1.000000" stroke="none" 
	d="
M6.583477,466.738098 
	C6.263954,466.073517 6.107963,465.208984 6.278286,464.226196 
	C6.652071,464.917969 6.699540,465.728058 6.583477,466.738098 
z"/>
<path fill="#990302" opacity="1.000000" stroke="none" 
	d="
M880.832031,469.192474 
	C894.296204,532.091309 891.492615,593.867371 871.009277,654.384338 
	C843.341003,736.128723 792.176941,799.427429 718.162415,843.857727 
	C661.501404,877.870911 599.791260,894.331116 533.790710,892.502930 
	C425.615540,889.506592 336.862305,845.646973 268.347900,761.998413 
	C227.529419,712.163574 203.245804,654.700378 194.878571,590.757568 
	C184.085266,508.274414 200.296906,431.318237 243.985657,360.538849 
	C282.572174,298.025421 336.133575,252.333832 403.544800,223.330887 
	C462.585419,197.929321 524.344666,189.893860 587.919800,198.850739 
	C678.292358,211.582993 752.548035,253.852798 810.623291,324.077576 
	C845.701599,366.494446 868.803650,415.006104 880.832031,469.192474 
M716.805237,628.430115 
	C716.726318,628.740295 716.647400,629.050476 716.532532,629.461121 
	C716.532532,629.461121 716.441833,629.517212 715.768555,629.516357 
	C714.950073,630.784973 714.131653,632.053650 713.000244,633.033386 
	C713.000244,633.033386 713.304260,633.332764 712.827393,633.469849 
	C712.527832,633.696899 712.424255,633.992615 712.474365,634.423523 
	C712.474365,634.423523 712.407227,634.464722 711.815491,634.526367 
	C711.538330,635.015442 711.261169,635.504578 710.789856,636.572021 
	C709.920044,637.408020 709.050232,638.244019 707.666199,639.257629 
	C707.485962,639.561035 707.305725,639.864380 707.025146,640.051086 
	C707.025146,640.051086 707.153015,640.136597 706.583435,640.074646 
	C705.731140,639.398743 704.878906,638.722839 704.100708,637.307739 
	C705.546448,634.052551 707.072083,630.830200 708.425964,627.537231 
	C726.433655,583.736328 733.393616,538.466125 724.910339,491.577606 
	C713.835754,430.365723 680.923035,385.039215 624.842102,357.148346 
	C623.501526,356.481628 622.105713,355.925903 620.735657,355.318420 
	C621.178406,357.536102 622.084839,358.912170 622.954712,360.310974 
	C643.365173,393.132568 657.030945,428.438873 661.358154,466.992493 
	C663.587097,486.852203 662.792786,506.610474 655.780457,525.668884 
	C652.875000,533.565552 649.210693,541.058960 643.464233,547.452332 
	C643.496521,540.211792 643.828552,533.115967 644.512634,526.054260 
	C647.320618,497.065247 643.638672,468.970032 630.574402,442.881897 
	C620.828369,423.419830 609.567871,404.688110 598.445068,385.949738 
	C579.208496,353.542206 569.489624,319.247101 575.836548,281.359558 
	C576.697632,276.219482 576.918152,270.972107 577.493225,265.191376 
	C575.792419,265.730072 574.954407,265.855133 574.256653,266.236786 
	C546.677979,281.320526 520.554138,298.429993 498.433075,321.054901 
	C474.666748,345.362610 465.720215,373.904938 472.730621,407.568970 
	C476.118286,423.836426 478.458801,440.372620 480.305847,456.895294 
	C481.969055,471.773132 479.629456,486.351196 473.072937,500.144531 
	C472.507996,498.399017 472.321594,496.654541 472.271667,494.906158 
	C471.636658,472.670685 466.973633,451.357483 457.904999,431.006195 
	C452.150269,418.091827 445.903625,405.339905 441.094116,392.074036 
	C433.352753,370.721405 434.806732,348.808746 439.499908,326.996460 
	C440.775604,321.067383 442.419067,315.217407 444.213623,308.054443 
	C436.294525,312.007721 429.332092,315.139465 422.695587,318.853577 
	C386.102966,339.332611 367.132874,370.022156 369.227509,412.551849 
	C370.149597,431.274292 374.219849,449.481812 379.402802,467.440979 
	C386.043243,490.450226 393.038544,513.360901 399.361359,536.456299 
	C402.634491,548.412048 403.781982,560.742798 400.966736,573.059814 
	C399.485168,579.541748 396.503387,585.272583 391.231232,589.744263 
	C396.245880,565.070068 393.550140,542.027222 378.297699,521.532776 
	C363.259125,501.325653 342.516235,491.250793 317.387054,487.909058 
	C322.742584,498.598999 327.926636,508.446869 332.656921,518.508057 
	C339.424072,532.901611 344.283081,547.941711 345.848633,563.840881 
	C347.319000,578.773254 343.761139,592.950806 338.469177,606.769592 
	C331.961456,623.763123 327.524231,641.050781 330.751404,659.464600 
	C335.781860,688.168152 348.569366,713.306824 366.160400,736.203979 
	C367.589722,738.064453 369.650635,739.439758 371.977844,741.547485 
	C373.497986,711.098938 386.935760,691.093506 417.174622,684.239807 
	C416.267761,681.888367 415.750580,679.753357 414.691010,677.934265 
	C409.481049,668.989624 409.340515,659.870789 413.765564,650.706299 
	C425.193787,627.037781 436.502380,603.306091 448.341980,579.843506 
	C455.830109,565.004272 467.015656,553.153870 480.830322,543.874756 
	C485.771942,540.555542 490.849762,537.439209 495.894440,534.211731 
	C495.241333,531.532288 494.388824,529.148865 494.112762,526.700500 
	C493.156921,518.221802 490.940948,510.357300 486.958252,502.591003 
	C483.056122,494.981812 483.450531,486.415985 488.157410,478.641144 
	C492.022034,472.257446 495.942688,465.906342 499.715118,459.468475 
	C505.491119,449.611420 514.028442,444.184784 525.427612,444.034363 
	C531.213928,443.957977 537.029114,444.855896 542.805054,445.535767 
	C548.743103,446.234833 554.630249,447.519684 560.580017,447.878632 
	C562.558716,447.997986 564.613464,445.925293 566.720337,445.068451 
	C569.811157,443.811462 572.924438,442.248016 576.148071,441.887238 
	C577.188660,441.770782 578.875183,444.900482 579.788513,446.777649 
	C581.092712,449.458405 581.846619,452.400635 583.028015,455.148438 
	C589.914734,471.166046 589.180603,486.156219 577.681091,500.070801 
	C575.550842,502.648468 573.785706,506.135162 573.365723,509.397217 
	C572.378479,517.064270 572.306458,524.849121 571.845520,532.910767 
	C589.806274,540.247803 604.436951,552.455139 615.608765,568.824585 
	C633.545166,595.105835 644.897278,624.794617 658.871155,653.115784 
	C662.546326,660.564331 661.786438,668.681641 657.618652,676.220886 
	C656.306580,678.594421 655.431641,681.209778 654.453613,683.488464 
	C680.410645,690.789734 694.900024,707.317810 698.998169,733.624756 
	C701.152954,732.544617 702.788879,731.826843 704.325867,730.937927 
	C716.737366,723.760254 726.374756,713.627014 733.722656,701.546021 
	C762.125671,654.847412 770.262451,604.638123 758.595459,551.292725 
	C755.938477,539.143982 751.344421,527.628174 744.277283,515.744141 
	C744.147217,517.968506 744.111023,518.889038 744.037231,519.806580 
	C742.689758,536.566406 741.920593,553.399231 739.823975,570.065063 
	C737.698425,586.960754 733.176880,603.331909 723.585266,618.399536 
	C723.475586,618.764954 723.365845,619.130371 723.225525,619.822815 
	C723.225525,619.822815 722.946228,619.995728 722.253723,620.097656 
	C721.475037,621.666748 720.696350,623.235779 719.941772,624.917603 
	C719.941772,624.917603 719.827026,624.929504 719.213501,625.065979 
	C718.849854,625.754578 718.486206,626.443176 718.012695,627.035034 
	C718.012695,627.035034 718.141785,627.103943 717.659058,627.322815 
	C717.525452,627.636780 717.391785,627.950745 717.020325,628.053284 
	C717.020325,628.053284 717.274902,628.244019 716.805237,628.430115 
M474.024139,657.004150 
	C474.024139,657.004150 474.013428,657.099854 474.228333,657.573059 
	C474.797699,657.471191 475.367065,657.369263 476.200165,656.916748 
	C476.200165,656.916748 476.626190,656.811829 477.221985,656.910828 
	C477.834473,656.486328 478.446930,656.061829 479.630829,655.232971 
	C480.090820,655.189758 480.550842,655.146545 481.696320,655.548401 
	C496.340607,655.655396 510.984833,655.784668 525.629272,655.810669 
	C526.451294,655.812134 527.274841,654.962524 529.002136,654.308167 
	C542.973022,654.390930 556.943848,654.473694 571.318787,655.181213 
	C577.794189,655.226624 584.269653,655.271973 591.241516,655.216003 
	C591.547424,655.342163 591.853333,655.468323 592.289490,656.193542 
	C593.195618,656.440918 594.101746,656.688293 595.710266,656.949829 
	C596.802795,656.288452 597.895325,655.627075 599.458435,654.333862 
	C598.810303,647.913757 598.162109,641.493591 597.477112,634.709229 
	C598.216125,635.348511 598.588806,635.670898 599.105896,636.768494 
	C600.688599,641.652710 602.660889,646.455322 603.706482,651.451965 
	C604.324402,654.404602 604.290894,658.007568 603.144653,660.725281 
	C598.519897,671.691406 601.730408,682.853516 600.637756,694.539795 
	C602.444946,693.919434 603.261414,693.767578 603.948486,693.384033 
	C614.415710,687.540344 625.384460,683.470581 637.580322,683.317749 
	C638.835876,683.302002 640.299500,682.220703 641.287354,681.248474 
	C650.732239,671.952881 652.102234,664.519409 646.586182,651.378540 
	C635.473755,624.905884 621.542358,599.906433 606.606873,575.440674 
	C597.998962,561.340027 585.674744,551.517822 571.039795,544.259216 
	C567.392700,542.450378 564.611511,542.505737 561.146545,545.128601 
	C551.433716,552.480774 540.442810,557.468262 528.117859,554.727295 
	C519.972534,552.915833 512.389160,548.643005 504.469086,545.701355 
	C502.701263,545.044739 500.196381,544.579529 498.676636,545.331482 
	C486.426819,551.392700 475.420349,559.353699 467.549683,570.592712 
	C448.432861,597.890686 436.064178,628.765259 422.030304,658.733215 
	C420.997070,660.939514 420.626160,664.389160 421.629669,666.435974 
	C424.320801,671.925171 427.834198,677.027954 431.263184,682.121155 
	C431.799774,682.918091 433.594818,683.119751 434.822296,683.160095 
	C445.840271,683.522522 456.226929,686.071655 465.776703,691.725342 
	C467.228973,692.585083 468.791565,693.258545 470.913116,694.324707 
	C470.294525,681.473511 472.991455,669.369080 467.527435,657.875488 
	C466.695435,656.125488 466.956055,653.501282 467.517426,651.508484 
	C469.360382,644.966492 471.574615,638.529175 474.235931,632.406555 
	C474.618225,633.485352 475.000488,634.564087 475.470337,636.119751 
	C475.448334,636.453979 475.331665,636.751099 474.569244,637.514160 
	C472.873352,643.231445 470.631226,648.900513 473.241760,655.283447 
	C473.241760,655.283447 473.195221,655.652710 473.181610,656.211426 
	C473.430634,656.471375 473.679657,656.731384 474.024139,657.004150 
M549.387329,735.895508 
	C518.907227,752.673889 488.427094,769.452332 457.946991,786.230713 
	C458.120941,786.691895 458.294891,787.153015 458.468842,787.614197 
	C460.739838,787.752441 463.010986,788.014038 465.281738,788.010864 
	C518.276611,787.937134 571.272827,788.013794 624.265442,787.622009 
	C639.028015,787.512878 653.383057,784.520569 666.379700,776.813721 
	C684.692749,765.954224 692.350952,745.527954 685.919189,724.499512 
	C679.916626,704.874390 661.757690,692.400269 640.925903,693.718872 
	C626.483276,694.633118 613.349121,699.958862 600.871399,706.732910 
	C583.756897,716.024109 566.962708,725.905334 549.387329,735.895508 
M411.500793,696.910461 
	C380.342712,709.475891 373.030243,747.868469 397.427460,770.968994 
	C405.590454,778.698242 415.358215,783.408386 426.205872,786.153992 
	C431.199768,787.417908 435.706726,786.692566 440.128357,784.251343 
	C460.941467,772.760071 481.792419,761.337219 502.592224,749.821960 
	C509.626709,745.927429 516.550598,741.833008 523.907410,737.610474 
	C522.242310,736.426575 521.233826,735.539429 520.082520,734.916199 
	C497.572540,722.731079 475.229736,710.217773 452.451080,698.556152 
	C439.647614,692.001404 425.906494,691.681702 411.500793,696.910461 
M551.952942,539.526611 
	C560.406799,533.242126 563.108093,524.274414 562.616577,514.418152 
	C562.221863,506.503143 563.837891,499.681000 569.111938,493.711945 
	C579.277283,482.206879 577.257019,469.691223 571.894470,456.329865 
	C560.995483,460.501404 550.256287,457.667511 539.454407,455.766907 
	C536.030029,455.164398 532.516968,455.014404 529.035889,454.794647 
	C518.229126,454.112396 511.080933,458.851105 506.867828,468.924683 
	C504.923584,473.573334 501.881714,477.862335 498.812653,481.917084 
	C494.551605,487.546570 493.725311,499.942535 498.985474,502.560303 
	C504.360718,505.235382 503.407227,508.987366 503.701904,512.992920 
	C503.909485,515.814514 503.904236,518.662659 504.287750,521.458557 
	C506.033203,534.183838 512.864990,541.836792 525.336975,545.102478 
	C534.828308,547.587646 543.429504,545.385803 551.952942,539.526611 
M542.613892,696.911621 
	C544.632324,693.057617 544.521240,688.963318 540.915100,686.709961 
	C538.528442,685.218628 534.162659,684.584045 531.925110,685.818176 
	C529.715027,687.037109 528.063782,691.088806 528.065552,693.896545 
	C528.066895,695.972778 530.730896,698.689758 532.890808,699.975464 
	C536.341614,702.029663 539.569702,700.298340 542.613892,696.911621 
z"/>
<path fill="#980505" opacity="1.000000" stroke="none" 
	d="
M766.419189,111.598633 
	C769.904846,113.253044 773.047791,114.747841 776.689880,116.480057 
	C775.772522,118.606812 775.001099,120.552437 774.108704,122.440865 
	C760.383118,151.484680 746.698975,180.548447 732.830078,209.523743 
	C731.135559,213.063980 730.505493,216.227707 731.813171,219.983292 
	C732.659485,222.414078 732.770203,225.101013 733.399048,228.774506 
	C721.994995,223.390015 711.552551,218.459579 700.805603,213.385330 
	C706.535095,201.226639 712.124756,189.364624 718.034546,176.823334 
	C710.452271,173.215591 703.055481,169.696091 695.170410,165.944290 
	C691.033203,174.688568 686.833557,182.797729 683.451111,191.234512 
	C682.567139,193.439346 684.231323,196.662170 684.713623,199.419479 
	C685.050781,201.347733 685.368164,203.279449 685.869141,206.243759 
	C674.670532,200.960541 664.250366,196.044586 653.474915,190.961029 
	C654.203796,189.123825 654.710144,187.592316 655.399414,186.148148 
	C668.879822,157.906281 682.274902,129.622696 695.970581,101.485458 
	C698.635376,96.010834 700.342957,90.923363 697.823853,85.002411 
	C697.093262,83.285385 697.133850,81.240257 696.695007,78.583069 
	C707.856384,83.864410 718.202698,88.760071 729.134094,93.932587 
	C727.485962,97.589821 725.955261,100.986717 724.147949,104.997238 
	C738.699341,105.583122 753.409424,102.432213 766.419189,111.598633 
M710.428528,148.094696 
	C716.092896,150.741043 721.757263,153.387375 727.811646,156.215942 
	C732.039673,147.260849 736.022827,138.824478 740.210449,129.954971 
	C730.883911,129.954971 722.424194,129.899445 713.967590,130.035095 
	C713.054565,130.049759 711.749207,130.967743 711.324524,131.816391 
	C709.118896,136.223679 707.139832,140.744415 705.013672,145.374298 
	C706.813904,146.309937 708.274719,147.069168 710.428528,148.094696 
z"/>
<path fill="#980505" opacity="1.000000" stroke="none" 
	d="
M171.994659,824.991943 
	C171.537720,825.254150 171.394531,825.339355 171.254211,825.429077 
	C166.906097,828.208618 161.760361,830.273438 158.441940,833.976074 
	C155.321365,837.457825 154.129196,842.667969 151.751099,847.853577 
	C145.278702,837.725037 139.088333,828.037903 132.528259,817.772156 
	C143.777740,810.552734 154.899017,803.415649 166.569901,795.925781 
	C161.963898,788.734009 157.546585,781.836853 152.930344,774.629028 
	C145.049301,779.655640 137.439285,784.111572 130.346298,789.277466 
	C128.236984,790.813660 127.491089,794.303467 126.286392,796.972900 
	C125.419922,798.892944 124.828850,800.937195 123.760246,803.914062 
	C116.958076,793.284119 110.704308,783.511169 104.183907,773.321533 
	C114.679276,766.606079 124.979042,759.941284 135.353210,753.394409 
	C153.650574,741.847412 171.942566,730.290039 190.359375,718.935852 
	C194.106094,716.625977 196.840469,714.139221 197.573792,709.565247 
	C197.977264,707.048645 199.307281,704.680603 200.566864,701.318604 
	C207.309326,711.874695 213.551346,721.647278 220.015503,731.767639 
	C216.677338,733.950195 213.399216,736.093445 209.123138,738.889221 
	C227.131882,746.787476 240.535416,758.371643 247.641342,776.704285 
	C222.739410,792.608643 197.524551,808.712891 171.994659,824.991943 
M188.724564,754.392090 
	C187.627457,754.242126 186.240723,753.588318 185.480988,754.025085 
	C181.055344,756.569519 176.776855,759.369995 172.024216,762.350098 
	C176.717117,769.670776 181.070557,776.461914 185.754181,783.768127 
	C194.114761,778.435547 202.075470,773.358032 210.788712,767.800476 
	C202.989136,763.079590 196.177200,758.956421 188.724564,754.392090 
z"/>
<path fill="#980505" opacity="1.000000" stroke="none" 
	d="
M412.320099,897.695435 
	C423.531677,899.634460 434.313934,901.540894 445.520782,903.522400 
	C444.991608,907.410828 444.508148,910.963501 443.811981,916.078857 
	C461.687408,908.567200 479.222412,906.250854 497.484772,913.518921 
	C495.905151,922.609863 494.251160,932.219177 492.563751,941.822571 
	C488.475403,965.090210 484.509949,988.381042 480.170410,1011.601807 
	C479.163788,1016.988098 479.406555,1021.681274 482.577332,1026.214111 
	C483.677643,1027.786987 484.302032,1029.692993 485.540619,1032.273560 
	C473.249512,1030.143677 461.854279,1028.168945 449.980530,1026.111328 
	C452.342712,1012.653442 454.603088,999.775452 456.960785,986.342834 
	C448.649536,984.821167 440.714752,983.368408 432.156616,981.801514 
	C430.432953,991.214844 428.546600,1000.120117 427.346191,1009.116943 
	C427.068329,1011.199463 429.088898,1013.615601 430.133545,1015.839844 
	C431.161407,1018.028320 432.293060,1020.167908 433.853729,1023.273254 
	C421.341858,1021.044128 409.948700,1019.014282 398.146271,1016.911560 
	C400.258057,1004.540588 402.215973,992.453369 404.400665,980.407288 
	C408.438080,958.145264 412.674255,935.918945 416.611908,913.639648 
	C416.969971,911.613708 415.913849,909.265442 415.252563,907.148682 
	C414.252930,903.948975 413.022858,900.821228 412.320099,897.695435 
M452.151276,938.710815 
	C448.652893,939.738892 445.083405,940.582520 441.692322,941.889038 
	C440.397034,942.388000 438.843994,943.794739 438.556458,945.050659 
	C437.498016,949.674133 436.920654,954.407837 436.086609,959.568481 
	C444.577057,961.054321 452.623718,962.462402 460.977417,963.924255 
	C462.686523,953.893005 464.258911,944.664062 465.948395,934.747986 
	C461.121185,936.125549 457.021759,937.295410 452.151276,938.710815 
z"/>
<path fill="#980605" opacity="1.000000" stroke="none" 
	d="
M878.505981,242.505432 
	C863.534485,258.410278 848.910583,274.159973 834.003174,289.636536 
	C830.051758,293.738770 827.813416,298.108002 827.847473,303.765503 
	C827.858276,305.563721 827.399109,307.364746 827.008118,310.247833 
	C817.890564,301.702881 809.385742,293.732147 800.623840,285.520477 
	C821.763184,262.965973 842.657593,240.672775 864.177002,217.712769 
	C855.339722,215.105713 847.459839,212.637421 839.477295,210.564636 
	C838.113892,210.210587 835.823303,211.082993 834.785278,212.173431 
	C820.429138,227.254395 806.184204,242.442078 792.033325,257.716003 
	C790.917786,258.920074 790.417419,260.909576 790.127930,262.618195 
	C789.547058,266.046783 789.309875,269.533569 788.785828,274.320282 
	C779.530823,265.653687 771.008728,257.673401 762.192932,249.418030 
	C769.780701,241.529434 777.211731,233.923126 784.509949,226.191483 
	C800.059631,209.718460 815.415344,193.059860 831.136414,176.752960 
	C835.106567,172.634872 837.384827,168.350449 837.321899,162.687866 
	C837.301880,160.888947 837.734924,159.084991 838.115662,156.046432 
	C847.175598,164.523788 855.561462,172.370422 864.213440,180.466034 
	C861.488159,183.494293 858.965393,186.297546 855.922180,189.679123 
	C863.695740,192.173843 870.955688,194.306198 878.057373,196.876022 
	C881.073792,197.967560 884.097168,199.578629 886.525024,201.648422 
	C891.961304,206.282898 897.026123,211.353073 902.621033,216.601181 
	C894.551270,225.270355 886.649414,233.759171 878.505981,242.505432 
z"/>
<path fill="#980606" opacity="1.000000" stroke="none" 
	d="
M321.325378,877.898499 
	C314.067230,876.660339 307.157349,875.593201 300.285034,874.322998 
	C296.779968,873.675171 294.540405,874.608826 292.408142,877.719543 
	C282.332520,892.418701 272.188080,907.082947 261.585327,921.402100 
	C257.678619,926.678101 255.425278,931.840088 256.590332,938.369507 
	C256.868713,939.929688 256.631622,941.581848 256.631622,944.334412 
	C246.292053,937.071411 236.735260,930.358337 226.980484,923.506165 
	C236.139557,910.697510 245.071625,898.269897 253.935638,885.793945 
	C264.643433,870.722717 275.427307,855.701721 285.847015,840.433044 
	C287.752441,837.640930 288.407196,833.827087 289.022217,830.374939 
	C289.530060,827.524475 289.125946,824.511414 289.125946,820.610291 
	C299.205414,827.716431 308.635590,834.364807 318.306610,841.182983 
	C315.925079,844.580200 313.848541,847.542297 311.187531,851.338196 
	C318.066528,852.533630 324.177521,853.985596 330.370026,854.562195 
	C336.586548,855.140991 341.854370,857.261963 346.714813,861.103821 
	C351.267914,864.702820 356.162537,867.869873 361.260132,871.476929 
	C353.887726,881.977356 346.747162,892.182373 339.570312,902.361816 
	C326.901337,920.330872 314.157379,938.247742 301.605591,956.298218 
	C300.276642,958.209351 299.620819,960.823120 299.362610,963.188354 
	C298.990051,966.601318 299.267334,970.085144 299.267334,974.451050 
	C289.269989,967.403748 279.716309,960.669250 269.939636,953.777527 
	C281.304413,937.652893 292.420532,921.880676 303.536987,906.108826 
	C309.294678,897.939941 315.089630,889.796692 320.761597,881.568604 
	C321.419342,880.614502 321.396515,879.191223 321.325378,877.898499 
z"/>
<path fill="#980606" opacity="1.000000" stroke="none" 
	d="
M368.753723,209.792511 
	C361.761261,224.410355 348.918579,231.635864 335.537140,238.223785 
	C335.256317,238.362045 334.899475,238.345871 334.155945,238.475113 
	C329.152557,229.640701 324.062042,220.690979 319.007965,211.720749 
	C307.572632,191.424622 296.056274,171.172943 284.807129,150.774033 
	C282.312317,146.250015 279.055847,143.258865 274.204987,141.715012 
	C272.213013,141.081024 270.367554,139.986633 267.588318,138.700348 
	C278.342987,132.626556 288.280640,127.014168 298.723694,121.116348 
	C313.961456,148.102753 329.063202,174.848297 344.415649,202.037796 
	C349.527039,194.532471 354.449341,187.461365 359.134125,180.236191 
	C359.748962,179.287933 359.625183,177.288422 359.037720,176.218079 
	C348.871124,157.694321 338.612762,139.220444 328.237946,120.812614 
	C327.518280,119.535690 325.829956,118.656685 324.413727,117.949997 
	C321.056458,116.274689 317.591858,114.814346 313.322968,112.883759 
	C324.187866,106.735580 334.136658,101.105812 344.616974,95.175255 
	C349.415466,103.637161 354.147217,111.951530 358.850861,120.281746 
	C371.205383,142.161606 383.497437,164.077133 395.978973,185.884232 
	C397.124451,187.885544 399.235779,189.580368 401.277466,190.764038 
	C404.252411,192.488785 407.571320,193.620178 411.529358,195.347458 
	C400.598328,201.526764 390.397400,207.293350 379.935272,213.207581 
	C377.871277,209.685898 375.971558,206.444534 373.785553,202.714691 
	C371.958649,205.278519 370.456116,207.387161 368.753723,209.792511 
z"/>
<path fill="#980505" opacity="1.000000" stroke="none" 
	d="
M537.155884,54.925991 
	C547.365479,55.804794 557.118713,56.659653 567.534241,57.572559 
	C566.171997,73.464447 564.842529,88.973801 563.415161,105.625793 
	C572.132324,102.256165 580.279724,99.238510 588.267944,95.845734 
	C589.224609,95.439392 589.621826,93.021729 589.758301,91.489998 
	C590.686218,81.074745 591.474548,70.647057 592.366699,59.488804 
	C601.594238,60.277172 610.415283,61.030800 619.688660,61.823086 
	C618.647766,74.665894 616.841064,86.910255 616.889343,99.147293 
	C616.938904,111.729431 613.228760,120.090134 599.683472,121.670059 
	C599.093811,121.738831 598.556580,122.256493 597.818604,122.661880 
	C604.413696,142.302185 610.967102,161.818375 617.796875,182.157562 
	C608.447266,181.366272 599.598328,180.764725 590.806274,179.695892 
	C589.643066,179.554489 588.372498,177.170334 587.823914,175.591309 
	C583.187622,162.245453 578.709534,148.844620 574.176392,135.462845 
	C573.861816,134.534317 573.486938,133.626205 572.869263,131.992142 
	C569.252441,133.396896 565.692810,134.562576 562.365967,136.200989 
	C561.340515,136.705994 560.616028,138.430740 560.345337,139.721085 
	C559.904907,141.820831 559.959778,144.023376 559.790710,146.181366 
	C558.943359,157.000366 555.616882,168.282394 566.975220,176.814697 
	C566.490173,177.178955 566.005127,177.543228 565.520081,177.907501 
	C554.082458,176.942856 542.644897,175.978210 530.510620,174.954819 
	C531.119202,167.220657 531.680969,159.670090 532.312988,152.125427 
	C534.508423,125.916687 536.667419,99.704590 538.996948,73.507683 
	C539.398987,68.986580 538.943665,65.028313 535.842346,61.470890 
	C534.261353,59.657375 533.179199,57.408916 531.581604,54.902042 
	C533.790955,54.902042 535.245178,54.902042 537.155884,54.925991 
z"/>
<path fill="#980505" opacity="1.000000" stroke="none" 
	d="
M624.065491,916.023743 
	C623.486755,912.654480 622.960876,909.709167 622.299805,906.006836 
	C631.072693,904.501343 639.823975,902.999512 649.100952,901.407471 
	C650.689880,909.985962 652.250000,918.084290 653.677124,926.205994 
	C655.088867,934.240356 656.293945,942.311340 657.738098,950.339539 
	C658.328613,953.622253 657.853394,955.946289 654.580322,957.747986 
	C650.822449,959.816345 647.437683,962.562561 643.331116,965.401306 
	C654.698669,982.783752 665.942505,999.977051 677.694641,1017.947571 
	C670.246887,1019.342834 663.234070,1020.190613 656.507080,1022.064392 
	C651.131897,1023.561646 648.250671,1021.731873 645.538391,1017.398804 
	C638.827332,1006.677612 631.810547,996.147949 624.912415,985.544006 
	C624.022827,984.176636 623.108337,982.825562 621.807312,980.867798 
	C618.593079,983.168213 615.548523,985.105286 612.835632,987.429626 
	C611.971924,988.169495 611.509155,990.007019 611.682983,991.225220 
	C612.741577,998.640320 613.756165,1006.085144 615.408813,1013.378845 
	C615.969727,1015.854614 618.161133,1018.074402 619.932007,1020.131836 
	C621.849670,1022.359863 624.146423,1024.261719 627.038269,1027.035034 
	C614.728577,1029.156372 603.349060,1031.117432 591.595703,1033.142944 
	C589.026062,1018.628296 586.495544,1004.419250 583.997559,990.204529 
	C580.512512,970.373352 577.146179,950.520447 573.464355,930.726074 
	C572.993408,928.194336 571.231140,925.713684 569.532410,923.649292 
	C567.591187,921.290039 565.052002,919.422852 561.990112,916.627380 
	C574.467834,914.424194 585.832825,912.417542 597.865906,910.292908 
	C600.450378,925.935913 602.987854,941.294556 605.716736,957.811584 
	C609.818115,955.012207 613.199036,952.145996 617.043518,950.191223 
	C626.491089,945.387634 630.246887,938.714783 626.225464,928.225098 
	C624.823242,924.567566 624.781433,920.388550 624.065491,916.023743 
z"/>
<path fill="#980606" opacity="1.000000" stroke="none" 
	d="
M906.816589,691.818604 
	C903.886719,695.218384 901.244690,698.407532 898.102600,702.200317 
	C908.650146,707.048767 917.826355,711.307495 927.036560,715.491394 
	C942.493042,722.512817 958.053955,729.312134 973.388672,736.588867 
	C977.875305,738.717957 981.954102,739.690430 986.693054,737.996582 
	C988.798218,737.244263 991.133423,737.135681 994.189148,736.586670 
	C989.007996,747.985352 984.207397,758.546814 979.143860,769.686768 
	C948.618774,755.830505 918.263733,742.051392 887.662659,728.160583 
	C881.051331,738.534912 885.568726,749.646729 884.117615,761.112305 
	C875.023376,756.912476 866.160034,752.819214 856.959778,748.570374 
	C869.508606,720.950012 881.726318,694.058594 894.082825,666.861572 
	C903.299622,671.073730 912.033691,675.065247 921.657959,679.463562 
	C916.429138,683.826782 911.766785,687.717346 906.816589,691.818604 
z"/>
<path fill="#980606" opacity="1.000000" stroke="none" 
	d="
M286.996063,278.997589 
	C276.495178,290.154572 266.235504,301.051483 255.615265,312.331360 
	C248.202057,305.388885 240.957092,298.619629 233.729309,291.832001 
	C216.745438,275.882477 199.681931,260.015961 182.854721,243.902740 
	C178.818298,240.037582 174.810852,237.185837 168.944824,237.673264 
	C167.036850,237.831802 165.063049,237.198181 162.166138,236.793823 
	C170.572815,227.807281 178.468262,219.367203 186.883835,210.371155 
	C211.174286,233.168900 235.341095,255.850586 259.429504,278.458679 
	C272.757874,268.234528 281.011536,255.495651 283.105835,237.631210 
	C291.293915,245.284592 298.352295,251.882034 305.783386,258.827850 
	C299.424316,265.654449 293.330780,272.195984 286.996063,278.997589 
z"/>
<path fill="#980606" opacity="1.000000" stroke="none" 
	d="
M856.331177,840.668579 
	C865.609802,849.555420 874.909485,857.931641 883.557312,866.934143 
	C888.088440,871.651062 893.107544,873.839478 899.382507,873.948486 
	C900.700928,873.971375 902.015991,874.194031 904.808716,874.471008 
	C896.111938,883.598450 888.100281,892.006775 879.700806,900.822144 
	C871.126526,892.451965 862.871033,884.307861 854.522034,876.260742 
	C837.849731,860.191223 821.168091,844.130615 804.353821,828.210510 
	C802.820007,826.758179 800.375732,825.983643 798.221069,825.536682 
	C794.889038,824.845520 791.442078,824.708557 786.947937,824.216675 
	C795.644897,815.119446 803.542786,806.858154 811.907288,798.108704 
	C826.818481,812.390320 841.450073,826.404114 856.331177,840.668579 
z"/>
<path fill="#980605" opacity="1.000000" stroke="none" 
	d="
M110.755760,496.700684 
	C120.493965,489.667694 132.159851,489.587372 140.637589,496.257507 
	C149.392044,503.145355 152.305130,514.536804 147.978088,524.961792 
	C143.963959,534.632935 133.346878,540.694458 122.426964,539.032898 
	C112.504189,537.523071 105.776505,531.691467 102.906967,522.082642 
	C99.959015,512.211243 102.850334,503.783386 110.755760,496.700684 
z"/>
<path fill="#980605" opacity="1.000000" stroke="none" 
	d="
M965.489014,536.708069 
	C953.203186,541.912170 940.660217,538.432800 934.367126,528.350586 
	C928.166016,518.415710 929.986877,504.844269 938.626465,497.359863 
	C946.314087,490.700165 955.143250,489.510010 964.289490,493.342560 
	C973.405029,497.162231 978.299438,504.705536 978.612427,514.448975 
	C978.924011,524.150208 974.605957,531.782593 965.489014,536.708069 
z"/>
<path fill="#FEFDFC" opacity="1.000000" stroke="none" 
	d="
M724.071716,618.064331 
	C733.176880,603.331909 737.698425,586.960754 739.823975,570.065063 
	C741.920593,553.399231 742.689758,536.566406 744.037231,519.806580 
	C744.111023,518.889038 744.147217,517.968506 744.277283,515.744141 
	C751.344421,527.628174 755.938477,539.143982 758.595459,551.292725 
	C770.262451,604.638123 762.125671,654.847412 733.722656,701.546021 
	C726.374756,713.627014 716.737366,723.760254 704.325867,730.937927 
	C702.788879,731.826843 701.152954,732.544617 698.998169,733.624756 
	C694.900024,707.317810 680.410645,690.789734 654.453613,683.488464 
	C655.431641,681.209778 656.306580,678.594421 657.618652,676.220886 
	C661.786438,668.681641 662.546326,660.564331 658.871155,653.115784 
	C644.897278,624.794617 633.545166,595.105835 615.608765,568.824585 
	C604.436951,552.455139 589.806274,540.247803 571.845520,532.910767 
	C572.306458,524.849121 572.378479,517.064270 573.365723,509.397217 
	C573.785706,506.135162 575.550842,502.648468 577.681091,500.070801 
	C589.180603,486.156219 589.914734,471.166046 583.028015,455.148438 
	C581.846619,452.400635 581.092712,449.458405 579.788513,446.777649 
	C578.875183,444.900482 577.188660,441.770782 576.148071,441.887238 
	C572.924438,442.248016 569.811157,443.811462 566.720337,445.068451 
	C564.613464,445.925293 562.558716,447.997986 560.580017,447.878632 
	C554.630249,447.519684 548.743103,446.234833 542.805054,445.535767 
	C537.029114,444.855896 531.213928,443.957977 525.427612,444.034363 
	C514.028442,444.184784 505.491119,449.611420 499.715118,459.468475 
	C495.942688,465.906342 492.022034,472.257446 488.157410,478.641144 
	C483.450531,486.415985 483.056122,494.981812 486.958252,502.591003 
	C490.940948,510.357300 493.156921,518.221802 494.112762,526.700500 
	C494.388824,529.148865 495.241333,531.532288 495.894440,534.211731 
	C490.849762,537.439209 485.771942,540.555542 480.830322,543.874756 
	C467.015656,553.153870 455.830109,565.004272 448.341980,579.843506 
	C436.502380,603.306091 425.193787,627.037781 413.765564,650.706299 
	C409.340515,659.870789 409.481049,668.989624 414.691010,677.934265 
	C415.750580,679.753357 416.267761,681.888367 417.174622,684.239807 
	C386.935760,691.093506 373.497986,711.098938 371.977844,741.547485 
	C369.650635,739.439758 367.589722,738.064453 366.160400,736.203979 
	C348.569366,713.306824 335.781860,688.168152 330.751404,659.464600 
	C327.524231,641.050781 331.961456,623.763123 338.469177,606.769592 
	C343.761139,592.950806 347.319000,578.773254 345.848633,563.840881 
	C344.283081,547.941711 339.424072,532.901611 332.656921,518.508057 
	C327.926636,508.446869 322.742584,498.598999 317.387054,487.909058 
	C342.516235,491.250793 363.259125,501.325653 378.297699,521.532776 
	C393.550140,542.027222 396.245880,565.070068 391.231232,589.744263 
	C396.503387,585.272583 399.485168,579.541748 400.966736,573.059814 
	C403.781982,560.742798 402.634491,548.412048 399.361359,536.456299 
	C393.038544,513.360901 386.043243,490.450226 379.402802,467.440979 
	C374.219849,449.481812 370.149597,431.274292 369.227509,412.551849 
	C367.132874,370.022156 386.102966,339.332611 422.695587,318.853577 
	C429.332092,315.139465 436.294525,312.007721 444.213623,308.054443 
	C442.419067,315.217407 440.775604,321.067383 439.499908,326.996460 
	C434.806732,348.808746 433.352753,370.721405 441.094116,392.074036 
	C445.903625,405.339905 452.150269,418.091827 457.904999,431.006195 
	C466.973633,451.357483 471.636658,472.670685 472.271667,494.906158 
	C472.321594,496.654541 472.507996,498.399017 473.072937,500.144531 
	C479.629456,486.351196 481.969055,471.773132 480.305847,456.895294 
	C478.458801,440.372620 476.118286,423.836426 472.730621,407.568970 
	C465.720215,373.904938 474.666748,345.362610 498.433075,321.054901 
	C520.554138,298.429993 546.677979,281.320526 574.256653,266.236786 
	C574.954407,265.855133 575.792419,265.730072 577.493225,265.191376 
	C576.918152,270.972107 576.697632,276.219482 575.836548,281.359558 
	C569.489624,319.247101 579.208496,353.542206 598.445068,385.949738 
	C609.567871,404.688110 620.828369,423.419830 630.574402,442.881897 
	C643.638672,468.970032 647.320618,497.065247 644.512634,526.054260 
	C643.828552,533.115967 643.496521,540.211792 643.464233,547.452332 
	C649.210693,541.058960 652.875000,533.565552 655.780457,525.668884 
	C662.792786,506.610474 663.587097,486.852203 661.358154,466.992493 
	C657.030945,428.438873 643.365173,393.132568 622.954712,360.310974 
	C622.084839,358.912170 621.178406,357.536102 620.735657,355.318420 
	C622.105713,355.925903 623.501526,356.481628 624.842102,357.148346 
	C680.923035,385.039215 713.835754,430.365723 724.910339,491.577606 
	C733.393616,538.466125 726.433655,583.736328 708.425964,627.537231 
	C707.072083,630.830200 705.546448,634.052551 703.810059,637.906982 
	C702.368774,641.372620 701.218201,644.238953 699.860962,646.940491 
	C699.629456,647.047363 699.604614,647.319031 699.579773,647.590637 
	C699.718567,647.392456 699.857422,647.194336 700.334229,646.971985 
	C702.832520,644.677429 704.992798,642.406982 707.153015,640.136597 
	C707.153015,640.136597 707.025146,640.051086 707.342407,640.031921 
	C707.833191,639.701843 708.006775,639.390930 708.180420,639.080017 
	C709.050232,638.244019 709.920044,637.408020 711.151123,636.197449 
	C711.810608,635.370178 712.108948,634.917419 712.407227,634.464722 
	C712.407227,634.464722 712.474365,634.423523 712.718018,634.305359 
	C713.229553,633.964050 713.343750,633.679199 713.304260,633.332764 
	C713.304260,633.332764 713.000244,633.033386 713.450745,633.061279 
	C714.748108,631.898499 715.594971,630.707825 716.441833,629.517212 
	C716.441833,629.517212 716.532532,629.461121 716.764465,629.299500 
	C717.236023,628.885620 717.328857,628.587646 717.274902,628.244019 
	C717.274902,628.244019 717.020325,628.053284 717.393311,628.065918 
	C717.891479,627.753662 718.016663,627.428772 718.141785,627.103943 
	C718.141785,627.103943 718.012695,627.035034 718.335327,626.964966 
	C719.047668,626.239807 719.437378,625.584656 719.827026,624.929504 
	C719.827026,624.929504 719.941772,624.917603 720.212830,624.710205 
	C721.304626,623.000427 722.125427,621.498108 722.946228,619.995728 
	C722.946228,619.995728 723.225525,619.822815 723.501160,619.508972 
	C723.875061,618.818176 723.973389,618.441284 724.071716,618.064331 
z"/>
<path fill="#FEFDFC" opacity="1.000000" stroke="none" 
	d="
M481.010834,655.103271 
	C480.550842,655.146545 480.090820,655.189758 479.054718,655.388550 
	C477.861145,655.966736 477.243683,656.389282 476.626221,656.811890 
	C476.626190,656.811829 476.200165,656.916748 475.750580,657.043762 
	C474.871796,657.147156 474.442627,657.123474 474.013428,657.099854 
	C474.013428,657.099854 474.024139,657.004150 473.964935,656.722534 
	C473.668884,656.178223 473.432037,655.915466 473.195221,655.652710 
	C473.195221,655.652710 473.241760,655.283447 473.213562,654.720581 
	C473.830353,648.442200 474.475311,642.726624 475.120300,637.011047 
	C475.331665,636.751099 475.448334,636.453979 475.667114,635.565552 
	C476.270752,632.177856 476.677612,629.344238 477.084503,626.510681 
	C476.630157,626.435425 476.175812,626.360229 475.721497,626.284973 
	C475.029724,628.207214 474.337952,630.129395 473.646179,632.051575 
	C471.574615,638.529175 469.360382,644.966492 467.517426,651.508484 
	C466.956055,653.501282 466.695435,656.125488 467.527435,657.875488 
	C472.991455,669.369080 470.294525,681.473511 470.913116,694.324707 
	C468.791565,693.258545 467.228973,692.585083 465.776703,691.725342 
	C456.226929,686.071655 445.840271,683.522522 434.822296,683.160095 
	C433.594818,683.119751 431.799774,682.918091 431.263184,682.121155 
	C427.834198,677.027954 424.320801,671.925171 421.629669,666.435974 
	C420.626160,664.389160 420.997070,660.939514 422.030304,658.733215 
	C436.064178,628.765259 448.432861,597.890686 467.549683,570.592712 
	C475.420349,559.353699 486.426819,551.392700 498.676636,545.331482 
	C500.196381,544.579529 502.701263,545.044739 504.469086,545.701355 
	C512.389160,548.643005 519.972534,552.915833 528.117859,554.727295 
	C540.442810,557.468262 551.433716,552.480774 561.146545,545.128601 
	C564.611511,542.505737 567.392700,542.450378 571.039795,544.259216 
	C585.674744,551.517822 597.998962,561.340027 606.606873,575.440674 
	C621.542358,599.906433 635.473755,624.905884 646.586182,651.378540 
	C652.102234,664.519409 650.732239,671.952881 641.287354,681.248474 
	C640.299500,682.220703 638.835876,683.302002 637.580322,683.317749 
	C625.384460,683.470581 614.415710,687.540344 603.948486,693.384033 
	C603.261414,693.767578 602.444946,693.919434 600.637756,694.539795 
	C601.730408,682.853516 598.519897,671.691406 603.144653,660.725281 
	C604.290894,658.007568 604.324402,654.404602 603.706482,651.451965 
	C602.660889,646.455322 600.688599,641.652710 599.145264,636.001953 
	C598.007996,632.128052 596.831360,629.020691 595.654724,625.913269 
	C595.200012,626.050415 594.745239,626.187561 594.290527,626.324707 
	C595.856262,635.871704 597.422058,645.418701 598.987793,654.965698 
	C597.895325,655.627075 596.802795,656.288452 595.170532,656.668701 
	C593.807007,656.123230 592.983093,655.858826 592.159241,655.594482 
	C591.853333,655.468323 591.547424,655.342163 590.605957,655.083069 
	C583.618530,654.818909 577.266663,654.687683 570.914734,654.556396 
	C556.943848,654.473694 542.973022,654.390930 528.093811,654.263611 
	C522.046387,654.257568 516.906067,654.238708 511.768433,654.346619 
	C501.515137,654.562012 491.263275,654.846985 481.010834,655.103271 
z"/>
<path fill="#FEFCFC" opacity="1.000000" stroke="none" 
	d="
M549.709351,735.714600 
	C566.962708,725.905334 583.756897,716.024109 600.871399,706.732910 
	C613.349121,699.958862 626.483276,694.633118 640.925903,693.718872 
	C661.757690,692.400269 679.916626,704.874390 685.919189,724.499512 
	C692.350952,745.527954 684.692749,765.954224 666.379700,776.813721 
	C653.383057,784.520569 639.028015,787.512878 624.265442,787.622009 
	C571.272827,788.013794 518.276611,787.937134 465.281738,788.010864 
	C463.010986,788.014038 460.739838,787.752441 458.468842,787.614197 
	C458.294891,787.153015 458.120941,786.691895 457.946991,786.230713 
	C488.427094,769.452332 518.907227,752.673889 549.709351,735.714600 
z"/>
<path fill="#FEFCFC" opacity="1.000000" stroke="none" 
	d="
M411.866211,696.776001 
	C425.906494,691.681702 439.647614,692.001404 452.451080,698.556152 
	C475.229736,710.217773 497.572540,722.731079 520.082520,734.916199 
	C521.233826,735.539429 522.242310,736.426575 523.907410,737.610474 
	C516.550598,741.833008 509.626709,745.927429 502.592224,749.821960 
	C481.792419,761.337219 460.941467,772.760071 440.128357,784.251343 
	C435.706726,786.692566 431.199768,787.417908 426.205872,786.153992 
	C415.358215,783.408386 405.590454,778.698242 397.427460,770.968994 
	C373.030243,747.868469 380.342712,709.475891 411.866211,696.776001 
z"/>
<path fill="#FEFCFB" opacity="1.000000" stroke="none" 
	d="
M551.665771,539.745728 
	C543.429504,545.385803 534.828308,547.587646 525.336975,545.102478 
	C512.864990,541.836792 506.033203,534.183838 504.287750,521.458557 
	C503.904236,518.662659 503.909485,515.814514 503.701904,512.992920 
	C503.407227,508.987366 504.360718,505.235382 498.985474,502.560303 
	C493.725311,499.942535 494.551605,487.546570 498.812653,481.917084 
	C501.881714,477.862335 504.923584,473.573334 506.867828,468.924683 
	C511.080933,458.851105 518.229126,454.112396 529.035889,454.794647 
	C532.516968,455.014404 536.030029,455.164398 539.454407,455.766907 
	C550.256287,457.667511 560.995483,460.501404 571.894470,456.329865 
	C577.257019,469.691223 579.277283,482.206879 569.111938,493.711945 
	C563.837891,499.681000 562.221863,506.503143 562.616577,514.418152 
	C563.108093,524.274414 560.406799,533.242126 551.665771,539.745728 
z"/>
<path fill="#FBF1EF" opacity="1.000000" stroke="none" 
	d="
M542.384216,697.215210 
	C539.569702,700.298340 536.341614,702.029663 532.890808,699.975464 
	C530.730896,698.689758 528.066895,695.972778 528.065552,693.896545 
	C528.063782,691.088806 529.715027,687.037109 531.925110,685.818176 
	C534.162659,684.584045 538.528442,685.218628 540.915100,686.709961 
	C544.521240,688.963318 544.632324,693.057617 542.384216,697.215210 
z"/>
<path fill="#932B2B" opacity="1.000000" stroke="none" 
	d="
M481.353577,655.325806 
	C491.263275,654.846985 501.515137,654.562012 511.768433,654.346619 
	C516.906067,654.238708 522.046387,654.257568 527.641602,654.364014 
	C527.274841,654.962524 526.451294,655.812134 525.629272,655.810669 
	C510.984833,655.784668 496.340607,655.655396 481.353577,655.325806 
z"/>
<path fill="#932B2B" opacity="1.000000" stroke="none" 
	d="
M599.223145,654.649780 
	C597.422058,645.418701 595.856262,635.871704 594.290527,626.324707 
	C594.745239,626.187561 595.200012,626.050415 595.654724,625.913269 
	C596.831360,629.020691 598.007996,632.128052 599.073120,635.614380 
	C598.588806,635.670898 598.216125,635.348511 597.477112,634.709229 
	C598.162109,641.493591 598.810303,647.913757 599.223145,654.649780 
z"/>
<path fill="#932B2B" opacity="1.000000" stroke="none" 
	d="
M571.116760,654.868774 
	C577.266663,654.687683 583.618530,654.818909 590.357788,655.133728 
	C584.269653,655.271973 577.794189,655.226624 571.116760,654.868774 
z"/>
<path fill="#932B2B" opacity="1.000000" stroke="none" 
	d="
M474.844757,637.262573 
	C474.475311,642.726624 473.830353,648.442200 473.106537,654.568359 
	C470.631226,648.900513 472.873352,643.231445 474.844757,637.262573 
z"/>
<path fill="#8E272A" opacity="1.000000" stroke="none" 
	d="
M706.868225,640.105591 
	C704.992798,642.406982 702.832520,644.677429 700.353516,646.998291 
	C700.034790,647.048767 700.067627,647.105225 700.067627,647.105225 
	C701.218201,644.238953 702.368774,641.372620 703.772949,638.276611 
	C704.878906,638.722839 705.731140,639.398743 706.868225,640.105591 
z"/>
<path fill="#932B2B" opacity="1.000000" stroke="none" 
	d="
M473.941040,632.229065 
	C474.337952,630.129395 475.029724,628.207214 475.721497,626.284973 
	C476.175812,626.360229 476.630157,626.435425 477.084503,626.510681 
	C476.677612,629.344238 476.270752,632.177856 475.623322,635.327148 
	C475.000488,634.564087 474.618225,633.485352 473.941040,632.229065 
z"/>
<path fill="#8E272A" opacity="1.000000" stroke="none" 
	d="
M722.599976,620.046692 
	C722.125427,621.498108 721.304626,623.000427 720.200806,624.653809 
	C720.696350,623.235779 721.475037,621.666748 722.599976,620.046692 
z"/>
<path fill="#8E272A" opacity="1.000000" stroke="none" 
	d="
M716.105225,629.516785 
	C715.594971,630.707825 714.748108,631.898499 713.607239,633.205750 
	C714.131653,632.053650 714.950073,630.784973 716.105225,629.516785 
z"/>
<path fill="#932B2B" opacity="1.000000" stroke="none" 
	d="
M592.224365,655.893982 
	C592.983093,655.858826 593.807007,656.123230 594.819336,656.661621 
	C594.101746,656.688293 593.195618,656.440918 592.224365,655.893982 
z"/>
<path fill="#932B2B" opacity="1.000000" stroke="none" 
	d="
M476.924103,656.861328 
	C477.243683,656.389282 477.861145,655.966736 478.768982,655.590698 
	C478.446930,656.061829 477.834473,656.486328 476.924103,656.861328 
z"/>
<path fill="#8E272A" opacity="1.000000" stroke="none" 
	d="
M719.520264,624.997742 
	C719.437378,625.584656 719.047668,626.239807 718.390259,627.013306 
	C718.486206,626.443176 718.849854,625.754578 719.520264,624.997742 
z"/>
<path fill="#932B2B" opacity="1.000000" stroke="none" 
	d="
M474.120880,657.336426 
	C474.442627,657.123474 474.871796,657.147156 475.618713,657.219055 
	C475.367065,657.369263 474.797699,657.471191 474.120880,657.336426 
z"/>
<path fill="#8E272A" opacity="1.000000" stroke="none" 
	d="
M712.111328,634.495544 
	C712.108948,634.917419 711.810608,635.370178 711.248169,635.908264 
	C711.261169,635.504578 711.538330,635.015442 712.111328,634.495544 
z"/>
<path fill="#8E272A" opacity="1.000000" stroke="none" 
	d="
M717.900391,627.213379 
	C718.016663,627.428772 717.891479,627.753662 717.512268,628.171631 
	C717.391785,627.950745 717.525452,627.636780 717.900391,627.213379 
z"/>
<path fill="#932B2B" opacity="1.000000" stroke="none" 
	d="
M473.188416,655.932068 
	C473.432037,655.915466 473.668884,656.178223 473.917206,656.716187 
	C473.679657,656.731384 473.430634,656.471375 473.188416,655.932068 
z"/>
<path fill="#8E272A" opacity="1.000000" stroke="none" 
	d="
M723.828491,618.231934 
	C723.973389,618.441284 723.875061,618.818176 723.516479,619.345459 
	C723.365845,619.130371 723.475586,618.764954 723.828491,618.231934 
z"/>
<path fill="#8E272A" opacity="1.000000" stroke="none" 
	d="
M707.923340,639.168823 
	C708.006775,639.390930 707.833191,639.701843 707.392578,640.090210 
	C707.305725,639.864380 707.485962,639.561035 707.923340,639.168823 
z"/>
<path fill="#8E272A" opacity="1.000000" stroke="none" 
	d="
M713.065796,633.401306 
	C713.343750,633.679199 713.229553,633.964050 712.739136,634.272156 
	C712.424255,633.992615 712.527832,633.696899 713.065796,633.401306 
z"/>
<path fill="#8E272A" opacity="1.000000" stroke="none" 
	d="
M717.040039,628.337036 
	C717.328857,628.587646 717.236023,628.885620 716.782471,629.249268 
	C716.647400,629.050476 716.726318,628.740295 717.040039,628.337036 
z"/>
<path fill="#FDF6F5" opacity="1.000000" stroke="none" 
	d="
M710.082031,147.961548 
	C708.274719,147.069168 706.813904,146.309937 705.013672,145.374298 
	C707.139832,140.744415 709.118896,136.223679 711.324524,131.816391 
	C711.749207,130.967743 713.054565,130.049759 713.967590,130.035095 
	C722.424194,129.899445 730.883911,129.954971 740.210449,129.954971 
	C736.022827,138.824478 732.039673,147.260849 727.811646,156.215942 
	C721.757263,153.387375 716.092896,150.741043 710.082031,147.961548 
z"/>
<path fill="#FCF5F4" opacity="1.000000" stroke="none" 
	d="
M189.044922,754.612671 
	C196.177200,758.956421 202.989136,763.079590 210.788712,767.800476 
	C202.075470,773.358032 194.114761,778.435547 185.754181,783.768127 
	C181.070557,776.461914 176.717117,769.670776 172.024216,762.350098 
	C176.776855,759.369995 181.055344,756.569519 185.480988,754.025085 
	C186.240723,753.588318 187.627457,754.242126 189.044922,754.612671 
z"/>
<path fill="#FCF5F4" opacity="1.000000" stroke="none" 
	d="
M452.536804,938.588013 
	C457.021759,937.295410 461.121185,936.125549 465.948395,934.747986 
	C464.258911,944.664062 462.686523,953.893005 460.977417,963.924255 
	C452.623718,962.462402 444.577057,961.054321 436.086609,959.568481 
	C436.920654,954.407837 437.498016,949.674133 438.556458,945.050659 
	C438.843994,943.794739 440.397034,942.388000 441.692322,941.889038 
	C445.083405,940.582520 448.652893,939.738892 452.536804,938.588013 
z"/>
<path fill="#8E272A" opacity="1.000000" stroke="none" 
	d="
M700.015503,647.022461 
	C699.857422,647.194336 699.718567,647.392456 699.579773,647.590637 
	C699.604614,647.319031 699.629456,647.047363 699.860962,646.940491 
	C700.067627,647.105225 700.034790,647.048767 700.015503,647.022461 
z"/>
</svg>