<svg version="1.1" id="Layer_1" xmlns="http://www.w3.org/2000/svg" xmlns:xlink="http://www.w3.org/1999/xlink" x="0px" y="0px"
	 width="100%" viewBox="0 0 373 373" enable-background="new 0 0 373 373" xml:space="preserve">
<path fill="#FCFBF6" opacity="1.000000" stroke="none" 
	d="
M0.999999,215.000000 
	C1.000000,196.979111 1.000000,178.958206 1.356045,160.772354 
	C2.134320,159.941620 2.853439,159.310394 2.935475,158.605057 
	C5.133251,139.708740 11.249239,121.943977 19.584570,105.053749 
	C32.958755,77.953064 51.730911,55.187008 76.226402,37.204063 
	C100.776886,19.180738 127.870346,7.458950 158.038177,2.923676 
	C158.771927,2.813365 159.349548,1.664483 160.000000,1.000000 
	C178.020889,1.000000 196.041794,1.000000 214.227707,1.356072 
	C215.058548,2.134391 215.689835,2.853552 216.395218,2.935575 
	C235.291916,5.132900 253.056458,11.250397 269.946838,19.585594 
	C297.047852,32.959602 319.813965,51.732208 337.796783,76.227959 
	C355.819489,100.778030 367.541718,127.870789 372.076294,158.038269 
	C372.186584,158.771988 373.335510,159.349579 374.000000,160.000000 
	C374.000000,178.020889 374.000000,196.041794 373.643921,214.227692 
	C372.865570,215.058502 372.146454,215.689774 372.064423,216.395126 
	C369.867340,235.291656 363.749969,253.056046 355.414856,269.946198 
	C342.041016,297.046783 323.268768,319.812469 298.773621,337.795502 
	C274.223145,355.819122 247.129807,367.541321 216.961716,372.076233 
	C216.227997,372.186523 215.650406,373.335480 215.000000,374.000000 
	C196.979111,374.000000 178.958206,374.000000 160.772369,373.643982 
	C159.941650,372.865662 159.310425,372.146545 158.605103,372.064484 
	C139.708801,369.866730 121.944054,363.750763 105.053802,355.415466 
	C77.953194,342.041351 55.187248,323.269257 37.204372,298.773895 
	C19.180931,274.223297 7.458280,247.129944 2.923689,216.961609 
	C2.813409,216.227936 1.664489,215.650375 0.999999,215.000000 
M362.057556,166.526764 
	C358.871094,143.880310 351.536102,122.648338 340.592896,102.584023 
	C304.392914,36.211559 230.297028,0.531200 156.064209,13.819619 
	C54.768311,31.952602 -10.546979,132.162872 15.777798,231.201569 
	C33.374123,297.402191 76.248283,341.324677 142.554901,358.435242 
	C209.219055,375.638062 268.401123,358.338531 315.653137,307.866608 
	C352.305695,268.716400 367.814087,221.234650 362.057556,166.526764 
z"/>
<path fill="#000000" opacity="1.000000" stroke="none" 
	d="
M159.531342,1.000000 
	C159.349548,1.664483 158.771927,2.813365 158.038177,2.923676 
	C127.870346,7.458950 100.776886,19.180738 76.226402,37.204063 
	C51.730911,55.187008 32.958755,77.953064 19.584570,105.053749 
	C11.249239,121.943977 5.133251,139.708740 2.935475,158.605057 
	C2.853439,159.310394 2.134320,159.941620 1.356045,160.303696 
	C1.000000,107.072990 1.000000,54.145981 1.000000,1.000000 
	C53.687359,1.000000 106.375023,1.000000 159.531342,1.000000 
z"/>
<path fill="#000000" opacity="1.000000" stroke="none" 
	d="
M215.468658,374.000000 
	C215.650406,373.335480 216.227997,372.186523 216.961716,372.076233 
	C247.129807,367.541321 274.223145,355.819122 298.773621,337.795502 
	C323.268768,319.812469 342.041016,297.046783 355.414856,269.946198 
	C363.749969,253.056046 369.867340,235.291656 372.064423,216.395126 
	C372.146454,215.689774 372.865570,215.058502 373.643921,214.696350 
	C374.000000,267.927002 374.000000,320.854034 374.000000,374.000000 
	C321.312653,374.000000 268.624969,374.000000 215.468658,374.000000 
z"/>
<path fill="#000000" opacity="1.000000" stroke="none" 
	d="
M0.999999,215.468658 
	C1.664489,215.650375 2.813409,216.227936 2.923689,216.961609 
	C7.458280,247.129944 19.180931,274.223297 37.204372,298.773895 
	C55.187248,323.269257 77.953194,342.041351 105.053802,355.415466 
	C121.944054,363.750763 139.708801,369.866730 158.605103,372.064484 
	C159.310425,372.146545 159.941650,372.865662 160.303711,373.643982 
	C107.072990,374.000000 54.145981,374.000000 1.000000,374.000000 
	C1.000000,321.312653 1.000000,268.624969 0.999999,215.468658 
z"/>
<path fill="#000000" opacity="1.000000" stroke="none" 
	d="
M374.000000,159.531342 
	C373.335510,159.349579 372.186584,158.771988 372.076294,158.038269 
	C367.541718,127.870789 355.819489,100.778030 337.796783,76.227959 
	C319.813965,51.732208 297.047852,32.959602 269.946838,19.585594 
	C253.056458,11.250397 235.291916,5.132900 216.395218,2.935575 
	C215.689835,2.853552 215.058548,2.134391 214.696365,1.356072 
	C267.927002,1.000000 320.854004,1.000000 374.000000,1.000000 
	C374.000000,53.687359 374.000000,106.375023 374.000000,159.531342 
z"/>
<path fill="#214E89" opacity="1.000000" stroke="none" 
	d="
M362.121521,166.969116 
	C367.814087,221.234650 352.305695,268.716400 315.653137,307.866608 
	C268.401123,358.338531 209.219055,375.638062 142.554901,358.435242 
	C76.248283,341.324677 33.374123,297.402191 15.777798,231.201569 
	C-10.546979,132.162872 54.768311,31.952602 156.064209,13.819619 
	C230.297028,0.531200 304.392914,36.211559 340.592896,102.584023 
	C351.536102,122.648338 358.871094,143.880310 362.121521,166.969116 
M167.943512,57.136238 
	C164.286560,57.817772 160.629608,58.499302 156.210571,59.168659 
	C145.504913,63.188629 134.228485,66.124687 124.189720,71.411064 
	C73.306358,98.206078 46.238743,153.161148 55.299885,210.219543 
	C57.467850,223.871292 61.635181,236.951736 68.118126,248.712402 
	C70.129959,248.401779 71.583946,248.177277 73.337578,248.659607 
	C64.112503,255.544418 64.017509,259.361755 72.869049,266.978088 
	C73.609413,267.615143 74.298988,268.311157 74.734482,269.479309 
	C74.423477,269.694244 74.112465,269.909149 73.180389,269.860199 
	C71.899368,269.442139 70.129715,268.262543 69.412292,268.722839 
	C61.519688,273.787079 53.790855,279.106598 46.017620,284.356903 
	C46.243515,284.899658 46.469410,285.442413 46.695305,285.985168 
	C53.181469,287.014038 59.651150,288.170990 66.161896,289.008972 
	C68.776466,289.345520 70.323792,289.750702 70.434364,292.992432 
	C70.649925,299.311401 71.423607,305.611359 71.986015,312.150146 
	C77.968285,308.176666 83.325676,304.576630 88.727188,301.044037 
	C92.856895,298.343201 97.042404,295.727722 101.757889,293.350647 
	C102.695183,293.151947 103.632477,292.953247 104.569763,292.754517 
	C104.325394,292.152557 104.081032,291.550598 103.949127,290.192505 
	C104.623528,289.619629 105.297928,289.046783 106.019814,289.275787 
	C106.883774,288.924866 108.362534,288.740143 108.509766,288.195435 
	C109.332550,285.151550 104.512383,279.979156 101.012405,279.005829 
	C101.014900,278.695190 101.017387,278.384521 101.656952,277.726990 
	C120.716148,269.920380 140.555679,265.441864 161.050858,263.675995 
	C198.530228,260.446777 235.078491,264.043610 270.141327,278.493469 
	C273.038940,279.687653 275.916229,281.134644 278.442261,282.962585 
	C280.469971,284.429901 281.705292,286.630005 277.425110,287.904755 
	C276.961273,287.341980 276.497437,286.779175 276.740234,286.055634 
	C276.846436,285.462799 277.186249,284.427704 277.024445,284.342224 
	C273.605804,282.536407 270.130676,280.837616 266.770660,279.169525 
	C265.105927,281.062500 263.754639,282.308228 262.790863,283.803680 
	C262.210083,284.704895 262.232086,285.994537 262.024506,287.816925 
	C262.975952,288.552216 263.927429,289.287506 264.991547,290.786926 
	C266.480957,292.009583 267.853394,293.422058 269.479034,294.423615 
	C278.852905,300.198853 288.286652,305.876892 297.861725,311.685913 
	C298.308777,305.604523 298.982147,299.517090 299.114319,293.417908 
	C299.185974,290.109955 300.533264,289.337433 303.523712,288.991455 
	C310.015045,288.240387 316.452545,287.024109 322.912048,285.998016 
	C323.139008,285.406097 323.365936,284.814178 323.592896,284.222229 
	C315.696960,278.920807 307.822754,273.586090 299.854309,268.396027 
	C299.346008,268.064972 298.106934,268.855865 296.696014,268.851837 
	C296.456757,268.555115 296.217529,268.258392 296.359924,267.411346 
	C297.252014,266.663269 298.167755,265.941498 299.032379,265.162933 
	C305.102264,259.697510 304.698120,254.117264 297.808044,249.834122 
	C295.560181,248.436783 293.134796,247.293457 290.708466,246.219559 
	C260.331116,232.774399 228.324127,226.583633 195.307266,225.354294 
	C161.767944,224.105499 128.947174,228.530243 96.996880,238.379990 
	C97.006104,237.967422 97.015335,237.554855 97.470642,236.868179 
	C97.890808,236.565567 98.310982,236.262970 99.546890,235.984894 
	C100.669876,235.707169 101.814766,235.497116 102.912643,235.141830 
	C128.062531,227.003159 154.022110,223.925583 180.288025,223.109848 
	C188.399551,222.857941 196.569336,223.365799 204.666901,224.058380 
	C215.216766,224.960724 225.805878,225.909439 236.222229,227.730042 
	C247.306015,229.667328 258.207703,232.646454 269.614563,235.699066 
	C280.789001,240.246399 291.963409,244.793732 303.567841,249.516052 
	C303.635620,249.400177 304.255096,248.459717 304.759796,247.461243 
	C330.110443,197.308350 319.849548,134.145554 279.835297,94.827766 
	C250.308517,65.814888 214.652145,53.484917 172.866272,55.972828 
	C171.491043,56.391094 170.115814,56.809361 167.943512,57.136238 
M110.742462,66.208054 
	C59.904049,100.220779 37.441784,147.645096 44.062996,208.476028 
	C46.254677,228.611588 53.621017,247.153015 64.241623,264.371613 
	C64.996094,265.594788 66.339645,266.454651 67.409286,267.483459 
	C67.707100,267.185303 68.004921,266.887177 68.302734,266.589020 
	C67.307678,264.917969 66.047096,263.343903 65.391594,261.548859 
	C64.724236,259.721313 64.634933,257.679047 64.324280,255.725739 
	C63.905109,253.090057 64.114700,250.167130 63.023186,247.854156 
	C50.161865,220.600510 46.307652,192.120819 52.068119,162.625519 
	C68.399551,79.003685 155.104828,30.785662 234.604828,60.862427 
	C290.223480,81.904305 325.581879,137.112854 322.401550,196.424759 
	C321.048462,221.658890 310.465698,243.730682 301.704193,266.603241 
	C305.095337,268.784882 305.174377,268.832886 307.654114,264.749329 
	C329.338074,229.040970 335.377045,190.785889 324.371033,150.533264 
	C299.146698,58.279514 192.942490,16.264854 110.742462,66.208054 
M198.002380,331.598389 
	C226.888397,328.950073 252.721436,318.743469 275.558105,300.696411 
	C271.877960,296.861450 268.970032,296.858643 264.669678,299.908447 
	C216.659622,333.956848 153.604477,333.642944 106.319527,299.117462 
	C102.028572,295.984436 99.267685,296.278259 95.879387,299.626495 
	C117.055580,318.600433 155.025177,334.915710 198.002380,331.598389 
M328.386292,118.957314 
	C328.141846,118.830864 327.875214,118.731888 327.665619,118.562347 
	C327.596832,118.506699 327.613525,118.198334 327.696930,118.123352 
	C329.428711,116.567200 331.279419,115.126419 332.875793,113.443840 
	C333.669678,112.607063 334.002655,111.332962 334.544128,110.256691 
	C333.256470,109.902901 331.939514,109.176239 330.687439,109.274750 
	C328.254059,109.466202 325.857147,110.120811 322.254517,110.811974 
	C330.393250,102.308136 330.393250,102.308136 326.875122,98.190544 
	C323.643280,101.939041 320.717224,105.834137 317.260956,109.181824 
	C314.534943,111.822212 314.554565,113.711052 317.151855,115.771912 
	C319.826385,115.479919 322.187134,115.222183 324.547852,114.964455 
	C324.942688,115.517189 325.337524,116.069923 325.732361,116.622658 
	C324.225220,117.611191 322.502380,118.395020 321.294495,119.667610 
	C320.607361,120.391548 320.207672,122.277039 320.673248,122.989311 
	C321.305725,123.956924 323.014069,124.986969 324.045044,124.799896 
	C329.378174,123.832230 334.642456,122.485046 339.924042,121.271713 
	C339.396240,117.750336 337.825867,116.977867 334.961761,117.910545 
	C333.096497,118.517952 331.071106,118.633583 328.386292,118.957314 
M220.902451,24.934490 
	C219.722488,25.342611 217.780716,25.452879 217.485825,26.207045 
	C215.529907,31.209589 213.926971,36.350140 212.217941,41.419796 
	C218.661697,44.130924 216.277908,37.027649 219.461929,35.967331 
	C220.151672,38.786903 220.810638,41.480648 221.770813,45.405628 
	C224.262543,42.366421 225.894699,40.375660 227.794861,38.057999 
	C228.604935,45.625263 228.604935,45.625263 232.020752,45.608231 
	C232.832932,39.944233 233.650467,34.242908 234.480988,28.451000 
	C227.419739,25.508677 228.070084,33.451553 224.152618,34.871075 
	C223.313309,31.624966 222.475098,28.383013 220.902451,24.934490 
M190.809341,23.544130 
	C189.254929,22.568806 187.700516,21.593483 186.146103,20.618158 
	C185.645782,20.928406 185.145462,21.238655 184.645142,21.548903 
	C184.645142,26.664644 184.484497,31.789289 184.767105,36.889370 
	C184.831360,38.048996 186.430664,39.123558 187.323425,40.237274 
	C187.758408,39.959511 188.193390,39.681747 188.628372,39.403984 
	C188.856674,36.258236 189.084976,33.112492 189.313446,29.964445 
	C193.785904,32.549664 192.638199,40.708431 200.902298,39.860203 
	C200.902298,34.590965 200.780716,29.785261 200.945267,24.989376 
	C201.053925,21.822639 199.776123,21.187769 196.931595,22.255825 
	C196.615662,25.074940 196.298752,27.902975 195.841003,31.987614 
	C193.830582,28.659391 192.489777,26.439697 190.809341,23.544130 
M146.921234,339.415192 
	C146.163803,343.732391 145.406357,348.049591 144.547501,352.944916 
	C151.839981,352.597931 148.194107,346.077789 150.894669,343.906372 
	C154.559387,347.001892 152.632645,354.600769 159.934067,355.172241 
	C160.988144,349.818390 161.929749,345.108429 162.839188,340.392273 
	C163.497757,336.976959 162.006714,336.292114 159.143265,337.306793 
	C158.473434,340.297333 157.851181,343.075409 156.951447,347.092438 
	C155.304245,343.196136 154.429901,340.486633 153.034866,338.078827 
	C152.251205,336.726257 150.607010,335.872284 149.350525,334.793640 
	C148.578720,336.052216 147.806900,337.310822 146.921234,339.415192 
M128.012238,340.427734 
	C127.972282,340.589264 127.906570,340.749176 127.896225,340.912567 
	C127.749214,343.233612 124.634247,345.888306 128.071381,347.615601 
	C128.779877,347.971649 131.144409,345.032288 132.792023,343.570679 
	C134.650116,345.726746 133.841232,351.585602 140.069931,350.713745 
	C138.988373,347.879822 138.061539,345.451324 137.134705,343.022827 
	C137.730423,343.132721 138.326157,343.242615 138.921890,343.352509 
	C139.897018,340.685089 142.139694,337.711517 141.584656,335.413757 
	C140.411865,330.558807 135.352463,331.053802 131.293076,329.868683 
	C130.201080,333.365814 129.217346,336.516266 128.012238,340.427734 
M50.711395,119.238937 
	C53.591160,119.278725 55.984188,118.744583 55.821960,114.838570 
	C50.632790,112.264763 45.487034,109.712486 40.470234,107.224174 
	C37.765862,109.828270 38.748775,111.164505 41.300606,112.281822 
	C43.300713,113.157562 45.194859,114.275284 47.888367,115.676994 
	C34.705875,117.448204 34.705875,117.448204 33.746258,121.357384 
	C38.834003,123.911514 43.987198,126.498497 49.415768,129.223724 
	C50.035835,127.707939 50.493477,126.589211 50.976322,125.408867 
	C48.187141,123.955170 45.747108,122.683449 42.214237,120.842148 
	C45.501553,120.200249 47.698643,119.771233 50.711395,119.238937 
M104.886017,54.543316 
	C102.137154,48.808361 102.745247,47.558006 108.526840,45.795113 
	C109.564430,45.478737 110.211014,43.880032 111.335281,42.511730 
	C104.658081,41.609108 100.904884,43.464764 99.383385,47.754021 
	C97.802132,52.211731 99.889282,57.390060 104.191002,59.681965 
	C108.163963,61.798706 112.638435,60.932350 115.337822,57.298897 
	C118.103073,53.576763 117.771454,49.979107 114.000549,46.045654 
	C111.960587,47.933418 110.031578,49.718506 108.102570,51.503590 
	C109.698997,51.836262 111.295433,52.168938 112.892204,52.500076 
	C111.254211,57.337307 110.182297,57.703865 104.886017,54.543316 
M265.122528,49.229637 
	C259.354736,46.666931 266.178894,43.857540 264.343140,39.992653 
	C263.082123,40.601971 261.248566,40.887508 260.564056,41.928566 
	C258.289429,45.387966 256.226929,49.028770 254.533539,52.802174 
	C254.040787,53.900215 255.055344,55.674694 255.378952,57.139103 
	C255.877502,57.000484 256.376038,56.861866 256.874603,56.723251 
	C258.012085,54.908688 259.149597,53.094124 260.449249,51.020874 
	C262.078278,51.973568 263.568481,52.845066 265.253265,53.830383 
	C264.092255,56.019424 263.101746,57.886978 261.965912,60.028576 
	C263.227417,60.732433 264.299774,61.330757 265.602081,62.057373 
	C268.560364,56.758335 271.375732,51.715302 274.356689,46.375664 
	C273.098297,45.611820 272.055756,44.978977 271.621765,44.715538 
	C269.390350,46.594566 267.582001,48.117344 265.122528,49.229637 
M246.304688,33.491962 
	C242.142166,37.852982 237.979645,42.214005 233.817123,46.575027 
	C237.341675,47.513527 240.761078,46.313808 243.257919,47.345921 
	C245.912369,48.443188 247.692444,51.655678 250.826675,54.973988 
	C250.826675,47.849758 250.736099,42.400852 250.863678,36.957054 
	C250.930573,34.102448 249.523087,33.132263 246.304688,33.491962 
M283.070953,54.128830 
	C278.153198,57.157379 273.235443,60.185932 268.317688,63.214485 
	C268.321869,63.630898 268.326080,64.047310 268.330261,64.463722 
	C271.246613,64.923027 274.831390,64.501579 276.903076,66.073853 
	C279.270874,67.870834 280.292755,71.441238 282.610382,75.479805 
	C284.445343,68.372902 286.082092,62.683800 287.211517,56.895702 
	C287.365173,56.108231 284.981476,54.825657 283.070953,54.128830 
M167.278229,348.876556 
	C166.337921,351.088470 165.397629,353.300354 163.993973,356.602264 
	C167.990936,355.118317 170.945740,353.086823 173.780289,353.242676 
	C176.395721,353.386505 178.882095,355.877472 181.425323,357.334625 
	C180.553558,350.959076 179.018097,345.412048 176.948090,340.072174 
	C175.843979,337.223999 173.454636,337.135406 171.824951,339.770721 
	C170.182846,342.426208 169.029114,345.383667 167.278229,348.876556 
M180.292725,36.500656 
	C178.168335,32.353226 176.136932,28.153351 173.849396,24.097946 
	C173.325317,23.168850 171.952988,22.300901 170.908081,22.220222 
	C170.128067,22.159998 168.765015,23.255812 168.488800,24.105679 
	C166.719055,29.550766 165.177994,35.070175 163.177139,41.872791 
	C165.624222,40.813171 167.183731,40.610043 167.953232,39.722198 
	C171.130066,36.056797 173.370834,35.816650 176.973969,38.805897 
	C177.807617,39.497517 179.273010,39.427654 180.447723,39.708199 
	C180.531418,38.864120 180.615112,38.020042 180.292725,36.500656 
M130.228424,42.655525 
	C130.228424,45.075180 130.228424,47.494839 130.228424,51.225658 
	C133.273895,48.344143 135.171097,45.292404 137.791763,44.424088 
	C140.395447,43.561398 143.726715,44.894619 146.738907,45.264862 
	C143.452682,39.781826 139.859589,35.213085 135.852066,31.042568 
	C133.690247,28.792816 131.522736,29.671968 131.013275,32.782871 
	C130.530762,35.729271 130.514954,38.752106 130.228424,42.655525 
M80.705170,83.642540 
	C79.999611,81.483597 79.294052,79.324654 78.588226,77.164902 
	C82.293388,76.232216 87.307724,80.197540 90.089798,73.859512 
	C86.396416,73.404694 81.848640,74.129242 79.600815,72.189102 
	C77.551247,70.420082 77.995514,65.761719 77.319977,62.270130 
	C71.610504,64.172409 75.484657,69.483513 73.605164,72.916260 
	C72.066017,71.599609 70.747276,70.471497 69.428528,69.343376 
	C68.916557,69.474113 68.404594,69.604843 67.892624,69.735573 
	C68.063141,71.162422 67.729591,72.997673 68.495071,73.942474 
	C71.204041,77.286057 74.226555,80.387833 77.284782,83.425667 
	C77.880325,84.017235 79.168663,83.911346 80.705170,83.642540 
M112.082458,328.592651 
	C111.386818,330.282013 110.605980,331.942017 110.011993,333.666412 
	C108.425072,338.273346 109.660728,341.090118 113.945061,342.866516 
	C118.319031,344.680054 121.089890,343.602478 123.198021,339.133240 
	C124.401474,336.581879 125.374336,333.921753 126.577667,331.370300 
	C127.875130,328.619232 127.008568,327.355133 123.703644,327.176147 
	C122.371994,330.312134 121.269722,333.633606 119.549385,336.596130 
	C118.877251,337.753571 116.816093,338.104340 115.387604,338.822540 
	C115.009094,337.378632 114.014961,335.756897 114.370827,334.525146 
	C115.327583,331.213593 116.861061,328.068634 118.197601,324.778656 
	C113.435493,321.085266 113.702194,325.933258 112.082458,328.592651 
M325.081512,133.024368 
	C325.421997,133.578690 325.630035,134.407501 326.123169,134.645477 
	C331.946075,137.455460 331.927643,137.564224 329.614960,144.084915 
	C329.247009,145.122360 330.095093,146.591095 330.523499,148.493256 
	C335.216949,144.362778 339.275665,140.933884 343.132690,137.291443 
	C344.045380,136.429520 344.968201,134.606049 344.635406,133.669296 
	C344.298187,132.720062 342.468567,131.953415 341.192383,131.756622 
	C338.406311,131.326996 335.551392,131.108902 332.734558,131.182800 
	C330.138031,131.250916 327.554443,131.813522 325.081512,133.024368 
M253.358429,329.968506 
	C252.171967,327.747314 251.701538,323.793854 247.737549,327.762451 
	C249.706955,332.215118 251.542984,336.657288 253.670013,340.955444 
	C254.156738,341.938995 255.646362,342.426208 256.674438,343.141846 
	C256.967804,341.945068 257.500000,340.745178 257.484558,339.552399 
	C257.470337,338.451660 256.868530,337.358582 256.437225,335.979858 
	C260.952911,336.806061 264.510345,341.721497 269.296875,336.939941 
	C265.633453,335.113434 262.174286,333.388763 258.761292,331.687134 
	C259.666351,328.089417 260.443237,325.001129 261.220123,321.912872 
	C260.730469,321.662872 260.240784,321.412872 259.751129,321.162842 
	C258.553986,322.695465 257.234650,324.150330 256.195923,325.783691 
	C255.256638,327.260773 254.623856,328.932739 253.358429,329.968506 
M37.804604,144.944901 
	C42.608673,145.870636 44.978745,143.290924 45.986050,139.057281 
	C47.029961,134.669769 44.905636,132.155258 40.824913,130.856140 
	C37.388615,129.762192 34.000599,128.516571 30.591211,127.338097 
	C30.181917,127.772606 29.772621,128.207123 29.363327,128.641632 
	C30.222120,129.813583 30.836143,131.443329 31.991302,132.060944 
	C34.305817,133.298416 37.054337,133.732880 39.345726,135.001068 
	C40.475143,135.626160 40.985481,137.369812 41.775955,138.607330 
	C40.292995,139.162399 38.672241,140.403107 37.354073,140.138184 
	C34.001190,139.464355 30.783649,138.117081 27.558189,137.054596 
	C25.379032,139.405151 25.614197,140.912369 28.551596,141.856812 
	C31.389517,142.769302 34.190094,143.797913 37.804604,144.944901 
M222.981567,345.698700 
	C220.241074,344.220856 217.500595,342.742981 214.923798,341.353394 
	C215.731293,337.859375 222.333664,341.986450 220.270996,334.660614 
	C217.016449,336.087189 212.580200,336.588440 211.434906,338.796631 
	C207.553833,346.279510 216.621536,345.481659 220.401917,349.949158 
	C217.565933,350.162201 215.929367,350.051331 214.440018,350.467468 
	C213.134247,350.832306 211.993698,351.788513 210.780182,352.483490 
	C211.127136,353.309204 211.474091,354.134918 211.821045,354.960632 
	C215.170715,354.306915 218.815735,354.230652 221.735886,352.737183 
	C223.045349,352.067444 222.903412,348.559906 222.981567,345.698700 
M323.787750,93.540260 
	C323.609680,93.073425 323.431488,92.606636 323.253601,92.139740 
	C321.922302,88.646080 319.549988,86.274437 315.683014,87.308846 
	C311.764008,88.357193 311.741882,91.689255 312.317993,95.073624 
	C312.533142,96.337418 312.352814,97.668533 312.352814,98.674576 
	C307.188141,99.827980 310.137207,90.786659 303.772919,93.928177 
	C304.403839,95.782043 304.769836,97.744308 305.698242,99.389160 
	C307.317261,102.257591 309.554535,104.727585 313.305206,103.386787 
	C317.061981,102.043800 317.281982,98.981201 316.530975,95.535698 
	C316.229614,94.153015 316.481354,92.649765 316.481354,91.201393 
	C318.448486,91.959259 319.324829,92.908516 319.849487,94.023285 
	C321.096161,96.672310 322.403473,95.998985 323.787750,93.540260 
M92.640434,54.279819 
	C92.196442,52.018902 91.250824,50.883038 88.984612,52.622791 
	C86.917198,54.209938 84.837402,55.780949 82.559326,57.514072 
	C86.310028,62.574230 89.817719,67.306526 93.302246,72.007576 
	C101.886284,66.526489 101.886284,66.526489 99.866707,64.053253 
	C97.538513,64.456367 95.527405,64.804581 93.516296,65.152802 
	C94.492928,63.362953 95.469551,61.573101 96.620010,59.464676 
	C94.425476,55.002811 92.409866,60.629200 89.818985,60.040070 
	C87.124046,56.988312 90.848961,56.367867 92.640434,54.279819 
M286.739838,74.119751 
	C284.931549,77.948608 287.765717,80.123413 290.164032,81.695114 
	C291.806976,82.771812 294.989899,83.266449 296.552856,82.379562 
	C302.170685,79.191826 297.088623,74.435387 297.451843,68.995125 
	C299.779877,71.051582 301.293793,72.388878 302.977966,73.876595 
	C303.656006,73.327301 305.092651,72.350990 305.010986,72.201042 
	C304.014984,70.370972 303.160675,67.936317 301.535461,67.119888 
	C299.802368,66.249275 296.953491,66.286331 295.224915,67.168213 
	C294.012115,67.786949 293.609375,70.447632 293.333893,72.270348 
	C293.181305,73.279976 294.235504,74.416985 294.372894,75.542107 
	C294.492371,76.520058 294.087646,77.562035 293.914581,78.575714 
	C292.946045,78.126640 291.864655,77.825722 291.035217,77.194008 
	C289.769928,76.230324 288.678833,75.037933 286.739838,74.119751 
M234.645569,331.480896 
	C231.163269,332.460144 227.680969,333.439362 224.198654,334.418610 
	C224.041306,334.907166 223.883942,335.395721 223.726593,335.884247 
	C225.424301,336.622101 227.122025,337.359924 229.355377,338.330566 
	C230.410156,342.000305 231.676041,346.404541 232.909164,350.694794 
	C236.871460,350.869415 236.487411,349.007782 236.179199,346.304840 
	C235.716080,342.243622 230.395691,337.704468 236.816971,333.911469 
	C236.839432,333.898224 235.882339,332.226624 234.645569,331.480896 
M52.624813,88.038239 
	C51.362179,89.738174 50.099545,91.438118 48.836910,93.138062 
	C49.058891,93.637657 49.280872,94.137245 49.502857,94.636833 
	C51.313995,94.119438 53.125134,93.602043 55.196663,93.010262 
	C57.185673,94.508865 59.418045,96.201637 61.661873,97.879082 
	C65.929100,101.069191 65.931816,101.065552 67.772697,97.229729 
	C64.286324,94.539848 60.773300,91.829414 58.168884,89.819992 
	C57.901764,87.151077 57.721088,85.345879 57.540413,83.540680 
	C57.065487,83.552666 56.590561,83.564651 56.115635,83.576630 
	C55.094826,84.862816 54.074017,86.149002 52.624813,88.038239 
M158.405121,26.372282 
	C158.112732,25.622223 157.709869,24.194599 157.544205,24.221617 
	C153.812042,24.830235 150.105927,25.598516 146.394897,26.336725 
	C146.687592,27.471371 146.980286,28.606014 147.272980,29.740660 
	C151.029694,28.596655 150.760437,31.544088 151.253510,33.681118 
	C151.813095,36.106495 152.147629,38.604546 152.955383,40.941238 
	C153.258957,41.819401 154.615829,42.333454 155.492508,43.013504 
	C155.983276,41.997620 156.974625,40.926025 156.868942,39.976513 
	C156.576721,37.350655 156.011475,34.716869 155.208542,32.196304 
	C154.299667,29.343122 155.315689,27.861914 158.405121,26.372282 
M187.510422,338.928589 
	C187.041519,339.306305 186.170242,339.677643 186.164169,340.062683 
	C186.075897,345.640778 186.103668,351.220703 186.103668,356.829590 
	C190.248047,356.829590 193.489410,356.829590 196.770096,356.829590 
	C197.867523,350.879883 192.396912,354.583282 190.818558,352.155243 
	C190.651459,348.873535 190.585754,345.241943 190.204346,341.643860 
	C190.101593,340.674438 189.040024,339.806702 187.510422,338.928589 
M101.202156,335.864471 
	C104.690361,331.269104 108.178558,326.673767 111.999184,321.640472 
	C109.751999,320.574066 108.644775,320.048615 107.376549,319.446777 
	C106.435005,321.184204 105.651604,322.631165 104.866898,324.077423 
	C103.997963,325.679016 103.400818,327.550049 102.170052,328.793915 
	C101.220482,329.753571 99.496330,329.996643 98.075905,330.422760 
	C97.157524,330.698242 96.165787,330.729187 95.206909,330.869720 
	C95.475685,331.883698 95.423622,333.305969 96.082390,333.823608 
	C97.319664,334.795837 98.967743,335.245239 101.202156,335.864471 
M60.465881,108.941254 
	C60.333351,108.243965 60.443768,107.177383 60.031101,106.905907 
	C55.361526,103.833870 50.611832,100.883621 45.719841,97.797432 
	C44.940521,99.238747 44.404728,100.229675 43.734253,101.469696 
	C48.359730,104.421783 52.782051,107.332870 57.326336,110.039169 
	C57.936428,110.402504 59.161827,109.732635 60.465881,108.941254 
M239.994919,331.448608 
	C241.781509,336.585571 243.568085,341.722504 245.360428,346.875946 
	C248.398178,346.788757 249.739410,346.033478 248.511475,342.954010 
	C247.041199,339.266754 245.877731,335.455933 244.616974,331.686768 
	C243.602631,328.654236 242.145508,327.875305 239.994919,331.448608 
M306.346283,85.859665 
	C308.634521,83.777763 310.922729,81.695869 313.464325,79.383438 
	C312.245270,78.292076 311.352112,77.492500 310.363586,76.607521 
	C305.792358,80.674057 301.501709,84.490974 297.223724,88.296631 
	C299.754639,91.408546 299.770294,91.428055 302.082520,89.571739 
	C303.365234,88.541931 304.585358,87.434113 306.346283,85.859665 
M203.614395,337.942780 
	C201.331436,337.665344 200.249893,338.289124 200.642609,340.946808 
	C201.249969,345.057068 201.571350,349.215607 201.865341,353.364197 
	C202.112198,356.847565 203.794128,356.495331 206.330276,355.218140 
	C205.668808,349.493713 205.022186,343.897858 203.614395,337.942780 
M125.615494,47.940578 
	C124.184441,44.766460 122.627365,41.641731 121.358620,38.404011 
	C120.147423,35.313160 118.637093,34.999092 116.254639,37.453362 
	C118.639763,42.744545 121.010056,48.002834 123.319000,53.125008 
	C127.392319,53.072929 127.446999,51.242275 125.615494,47.940578 
z"/>
<path fill="#323947" opacity="1.000000" stroke="none" 
	d="
M269.188904,235.170670 
	C258.207703,232.646454 247.306015,229.667328 236.222229,227.730042 
	C225.805878,225.909439 215.216766,224.960724 204.666901,224.058380 
	C196.569336,223.365799 188.399551,222.857941 180.288025,223.109848 
	C154.022110,223.925583 128.062531,227.003159 102.912643,235.141830 
	C101.814766,235.497116 100.669876,235.707169 99.078697,235.594055 
	C98.646179,231.382019 98.852516,227.552780 98.672714,223.741760 
	C98.465363,219.346848 100.383911,218.087585 104.644135,218.098373 
	C123.945671,218.147202 143.248108,217.912140 162.549820,217.735397 
	C164.989853,217.713058 167.427521,217.431793 169.931229,217.266205 
	C169.931229,214.924667 169.931229,213.019745 169.931229,210.716095 
	C163.430435,211.475021 157.256210,212.195831 151.082001,212.916641 
	C155.838242,208.572601 160.641663,205.105469 165.716217,202.095459 
	C169.313980,199.961426 170.341614,197.261292 170.328888,193.142990 
	C170.215225,156.371307 170.338638,119.598885 170.570465,82.619537 
	C169.832397,81.941612 168.916122,81.470833 167.693329,80.830734 
	C163.361664,75.520172 158.542923,76.810036 153.438797,78.704880 
	C145.163437,81.777000 141.118423,80.047211 137.301376,72.018814 
	C138.294891,71.952156 138.862228,71.905838 139.775696,71.823227 
	C142.658661,70.181747 145.208740,68.597031 147.728958,66.966156 
	C150.826660,64.961601 153.899429,62.918507 157.434387,60.948483 
	C161.938477,61.394753 165.991135,61.784599 170.027451,62.628902 
	C170.011108,68.156639 170.011108,73.229919 170.011108,78.303207 
	C170.183167,78.306900 170.355209,78.310593 170.527267,78.314285 
	C170.978470,72.882935 171.429672,67.451584 171.966949,62.475128 
	C172.215790,67.257256 172.522202,71.585579 172.489441,75.911316 
	C172.468567,78.668098 173.700897,79.510223 176.232986,80.067719 
	C182.720657,81.496124 189.229782,82.980408 195.543671,85.020111 
	C237.384048,98.536613 266.606842,125.109413 280.144073,167.616562 
	C283.922974,179.482452 286.123749,191.650192 286.089966,204.603470 
	C273.858490,196.751526 260.848633,194.688782 247.417557,196.890289 
	C233.662308,199.144943 220.128296,202.716309 206.424377,205.328018 
	C196.498367,207.219727 186.453125,208.485825 176.195419,210.071976 
	C176.195419,211.355026 176.163483,212.333862 176.203827,213.309692 
	C176.250168,214.430939 176.360504,215.549561 176.485840,217.249695 
	C211.625977,215.694321 246.419998,214.289398 281.414124,205.766235 
	C279.247406,217.147964 275.664093,226.739090 269.188904,235.170670 
M187.602264,180.032822 
	C197.601303,164.978180 200.526703,148.560455 196.933609,130.940643 
	C193.541306,114.305527 185.653748,99.803841 175.586075,86.344116 
	C174.945862,85.488213 174.799973,84.262573 174.424118,83.208939 
	C173.864532,83.677727 173.304947,84.146523 172.745377,84.615311 
	C173.722198,120.616089 174.699036,156.616867 175.675873,192.617645 
	C176.078812,192.786652 176.481750,192.955643 176.884689,193.124649 
	C180.307510,188.949982 183.730331,184.775314 187.602264,180.032822 
z"/>
<path fill="#ECF8FD" opacity="1.000000" stroke="none" 
	d="
M156.982956,60.892059 
	C153.899429,62.918507 150.826660,64.961601 147.728958,66.966156 
	C145.208740,68.597031 142.658661,70.181747 139.564484,71.568085 
	C138.296509,71.579201 137.585861,71.809174 136.875214,72.039146 
	C141.118423,80.047211 145.163437,81.777000 153.438797,78.704880 
	C158.542923,76.810036 163.361664,75.520172 167.725983,81.205078 
	C168.840836,82.108055 169.616547,82.467369 170.392258,82.826683 
	C170.338638,119.598885 170.215225,156.371307 170.328888,193.142990 
	C170.341614,197.261292 169.313980,199.961426 165.716217,202.095459 
	C160.641663,205.105469 155.838242,208.572601 151.082001,212.916641 
	C157.256210,212.195831 163.430435,211.475021 169.931229,210.716095 
	C169.931229,213.019745 169.931229,214.924667 169.931229,217.266205 
	C167.427521,217.431793 164.989853,217.713058 162.549820,217.735397 
	C143.248108,217.912140 123.945671,218.147202 104.644135,218.098373 
	C100.383911,218.087585 98.465363,219.346848 98.672714,223.741760 
	C98.852516,227.552780 98.646179,231.382019 98.670830,235.581787 
	C98.310982,236.262970 97.890808,236.565567 96.874100,237.020081 
	C89.661530,239.755829 83.012077,242.259476 76.457207,244.990143 
	C75.119972,245.547226 74.138138,246.957413 73.010910,247.983322 
	C73.029350,247.992310 73.037933,247.952789 73.037933,247.952789 
	C71.583946,248.177277 70.129959,248.401779 68.118126,248.712402 
	C61.635181,236.951736 57.467850,223.871292 55.299885,210.219543 
	C46.238743,153.161148 73.306358,98.206078 124.189720,71.411064 
	C134.228485,66.124687 145.504913,63.188629 156.592758,59.459957 
	C156.977615,60.131523 156.980286,60.511791 156.982956,60.892059 
M100.144783,141.692444 
	C101.534760,143.088654 102.924736,144.484863 104.482948,146.050064 
	C105.359009,144.919785 106.153107,143.895248 107.542404,142.668640 
	C108.980392,138.474213 104.549332,138.239105 102.893799,135.777054 
	C104.139839,134.898346 105.408607,134.003632 105.998894,133.587357 
	C102.407318,130.881271 98.957024,128.281631 95.506721,125.681984 
	C96.974487,125.853104 98.442245,126.024216 99.910011,126.195335 
	C96.548843,128.725800 93.187675,131.256256 90.154381,133.539871 
	C91.790688,135.391983 94.025314,138.163223 96.560226,140.625259 
	C97.216957,141.263123 98.814056,140.932770 100.144783,141.692444 
M82.831001,196.363785 
	C81.302078,194.121582 79.773155,191.879379 78.191933,189.560486 
	C75.998695,191.923706 74.362335,193.686890 72.718559,195.458084 
	C74.534515,197.388657 76.182121,199.140274 77.681076,200.733841 
	C79.580940,199.437637 81.347633,198.232285 83.642937,197.631256 
	C81.203690,200.657333 78.764450,203.683395 76.569252,206.406708 
	C79.261238,209.249252 82.864365,213.053909 85.926743,216.287567 
	C89.395630,212.705460 92.966339,209.018204 96.523125,205.345322 
	C95.405983,204.304077 94.150063,203.133469 93.436348,201.210052 
	C96.251343,202.179581 99.058960,203.954147 101.882614,203.980042 
	C114.463478,204.095474 127.092972,204.282394 139.618088,203.317123 
	C148.807938,202.608871 157.863113,200.152893 166.732208,198.521103 
	C166.732208,162.077988 166.732208,126.344681 166.732208,91.073578 
	C157.961197,108.508255 149.466110,126.340515 140.115570,143.712311 
	C130.953079,160.734726 120.418961,176.950668 105.627449,189.794296 
	C102.579399,192.440918 98.560646,193.969604 94.404182,195.423157 
	C96.479614,193.585312 98.555046,191.747467 100.419075,190.096832 
	C97.293854,186.781403 94.813896,184.150513 92.552567,181.751556 
	C89.949265,184.532990 87.467445,187.184631 85.514580,189.271118 
	C87.716675,192.357788 89.741661,195.196182 91.320259,198.598328 
	C91.878403,199.750244 92.436546,200.902161 92.298103,202.149521 
	C90.143639,199.604523 87.989166,197.059509 85.868622,194.554581 
	C84.920212,195.409012 83.969429,196.265564 82.831001,196.363785 
M98.157791,146.932541 
	C96.319054,144.467285 94.480316,142.002029 92.619049,139.506577 
	C90.313583,141.915344 88.214058,144.108948 86.265129,146.145218 
	C88.445457,148.486633 90.494797,150.687393 92.544144,152.888153 
	C92.171478,152.431839 91.798813,151.975510 91.426155,151.519180 
	C93.484528,150.126328 95.542908,148.733459 98.157791,146.932541 
z"/>
<path fill="#EDF9FD" opacity="1.000000" stroke="none" 
	d="
M269.401733,235.434875 
	C275.664093,226.739090 279.247406,217.147964 281.414124,205.766235 
	C246.419998,214.289398 211.625977,215.694321 176.485840,217.249695 
	C176.360504,215.549561 176.250168,214.430939 176.203827,213.309692 
	C176.163483,212.333862 176.195419,211.355026 176.195419,210.071976 
	C186.453125,208.485825 196.498367,207.219727 206.424377,205.328018 
	C220.128296,202.716309 233.662308,199.144943 247.417557,196.890289 
	C260.848633,194.688782 273.858490,196.751526 286.089966,204.603470 
	C286.123749,191.650192 283.922974,179.482452 280.144073,167.616562 
	C266.606842,125.109413 237.384048,98.536613 195.543671,85.020111 
	C189.229782,82.980408 182.720657,81.496124 176.232986,80.067719 
	C173.700897,79.510223 172.468567,78.668098 172.489441,75.911316 
	C172.522202,71.585579 172.215790,67.257256 172.046829,62.147926 
	C172.045013,60.916870 172.049377,60.467915 172.339249,59.814331 
	C172.932800,58.501568 173.240829,57.393436 173.548874,56.285305 
	C214.652145,53.484917 250.308517,65.814888 279.835297,94.827766 
	C319.849548,134.145554 330.110443,197.308350 304.759796,247.461243 
	C304.255096,248.459717 303.635620,249.400177 303.567841,249.516052 
	C291.963409,244.793732 280.789001,240.246399 269.401733,235.434875 
z"/>
<path fill="#E9F6FB" opacity="1.000000" stroke="none" 
	d="
M75.012161,268.979797 
	C74.298988,268.311157 73.609413,267.615143 72.869049,266.978088 
	C64.017509,259.361755 64.112503,255.544418 73.187759,248.306198 
	C73.037933,247.952789 73.029350,247.992310 73.312775,248.286423 
	C81.397408,245.386688 89.198624,242.192841 96.999840,238.998993 
	C128.947174,228.530243 161.767944,224.105499 195.307266,225.354294 
	C228.324127,226.583633 260.331116,232.774399 290.708466,246.219559 
	C293.134796,247.293457 295.560181,248.436783 297.808044,249.834122 
	C304.698120,254.117264 305.102264,259.697510 299.032379,265.162933 
	C298.167755,265.941498 297.252014,266.663269 295.843536,267.785034 
	C292.894714,271.743744 290.277863,275.220886 288.096588,278.952667 
	C286.709595,281.325562 286.234589,284.227539 284.872131,286.619812 
	C283.163696,289.619568 280.707001,289.937744 278.021301,288.009369 
	C281.705292,286.630005 280.469971,284.429901 278.442261,282.962585 
	C275.916229,281.134644 273.038940,279.687653 270.141327,278.493469 
	C235.078491,264.043610 198.530228,260.446777 161.050858,263.675995 
	C140.555679,265.441864 120.716148,269.920380 100.975983,277.899200 
	C97.395226,279.524414 94.347107,280.748810 91.642723,282.503082 
	C89.493179,283.897461 87.793983,285.942932 90.976898,288.429932 
	C90.977333,288.618988 90.999512,288.996399 90.615593,289.123108 
	C85.471291,289.589478 84.266457,286.077393 82.963516,282.605286 
	C81.091301,277.616089 80.443962,271.896729 75.012161,268.979797 
M198.940994,245.336716 
	C199.786942,243.806396 200.632904,242.276093 201.478851,240.745789 
	C201.849136,240.799805 202.219437,240.853836 202.589722,240.907867 
	C202.372452,244.849625 202.155182,248.791382 201.919052,253.075409 
	C203.233444,252.834106 204.645370,252.765259 204.670120,252.542343 
	C205.191071,247.851898 206.177597,243.087784 205.758820,238.456940 
	C205.407074,234.567245 201.910309,236.196213 199.150406,236.087967 
	C192.703964,235.835114 191.775558,236.017227 189.946304,242.192856 
	C189.289398,244.410599 188.731613,246.709167 188.571564,249.001785 
	C188.486572,250.219147 189.349747,251.502686 189.784897,252.756348 
	C190.605118,251.775177 191.806900,250.915970 192.167465,249.787888 
	C192.959595,247.309509 193.326248,244.695160 193.750107,242.687943 
	C195.440414,243.824783 196.876328,244.790543 198.940994,245.336716 
M288.744019,265.970978 
	C291.260956,258.860077 290.726135,259.576935 284.707275,255.086487 
	C279.409393,251.133957 277.203888,254.334824 274.513336,257.427002 
	C272.902130,259.278687 271.691101,261.560822 270.681976,263.820038 
	C270.161987,264.984161 270.476807,266.521210 270.414398,267.889740 
	C271.636597,267.114258 273.175476,266.586792 274.016357,265.512787 
	C275.884003,263.127289 277.401917,260.467957 279.746613,256.870483 
	C279.746613,260.273926 279.746613,261.947266 279.746613,263.620605 
	C281.791107,262.636688 283.835632,261.652771 286.442963,260.398010 
	C285.888733,262.113739 285.359375,263.590424 284.936829,265.097046 
	C284.237823,267.589355 283.607635,270.100922 282.948486,272.604370 
	C287.319885,272.972534 286.530884,268.606354 288.744019,265.970978 
M172.000183,237.649567 
	C171.251953,238.468063 170.503738,239.286545 169.755508,240.105042 
	C169.376633,238.996033 169.023270,237.877472 168.612045,236.780594 
	C168.155334,235.562347 167.645813,234.363892 167.159286,233.156815 
	C166.399124,233.847794 165.044205,234.483398 164.973877,235.238617 
	C164.458969,240.769516 164.201508,246.324387 163.862854,251.871689 
	C164.515564,252.114807 165.168274,252.357925 165.820999,252.601059 
	C166.523651,251.220444 167.327789,249.880386 167.900421,248.447815 
	C168.472290,247.017242 168.812393,245.494019 169.254089,244.011429 
	C169.806076,244.135925 170.358078,244.260437 170.910065,244.384949 
	C171.038818,245.814041 170.980591,247.296738 171.368820,248.651474 
	C171.589722,249.422379 172.540314,249.984177 173.162308,250.640152 
	C173.804306,250.014252 174.938217,249.439316 175.009216,248.754242 
	C175.504517,243.974655 175.866821,239.175308 176.035446,234.374008 
	C176.062012,233.617355 174.893158,232.818710 173.548965,231.118698 
	C172.857300,233.768143 172.460114,235.289658 172.000183,237.649567 
M211.448837,244.082184 
	C210.967957,245.312576 210.241699,246.508957 210.065338,247.781540 
	C209.818848,249.560120 209.982681,251.395584 209.970947,253.206696 
	C211.092865,252.192795 212.069992,250.855820 213.382660,250.267593 
	C214.426025,249.800049 216.227356,249.780167 217.066376,250.403656 
	C218.209549,251.253159 218.757568,252.903564 219.560776,254.210556 
	C220.145401,252.618866 220.794449,251.046875 221.290009,249.427917 
	C221.577484,248.488724 221.844742,247.446548 221.729660,246.498199 
	C221.300797,242.964417 221.324707,236.702972 220.069519,236.422134 
	C215.536392,235.407776 213.872391,240.110199 211.448837,244.082184 
M89.190552,262.206055 
	C88.854225,259.788330 88.890991,257.209991 87.960358,255.048096 
	C87.670998,254.375900 83.707382,254.167938 83.248024,254.896439 
	C81.885132,257.057892 80.970627,259.755188 80.766785,262.313629 
	C80.605980,264.331970 81.518394,266.562225 82.392311,268.500885 
	C83.256821,270.418671 84.670517,272.088867 85.843315,273.867676 
	C85.940826,271.648834 86.030075,269.429596 86.145439,267.211670 
	C86.161400,266.904785 86.306480,266.604614 86.521141,265.841492 
	C88.508041,266.642883 90.394150,267.582886 92.388321,268.126221 
	C93.277992,268.368622 94.384987,267.813324 95.393356,267.620056 
	C94.989433,266.704926 94.829376,265.449127 94.129173,264.947845 
	C92.804375,263.999420 91.169373,263.484344 89.190552,262.206055 
M149.890884,244.596924 
	C149.595474,246.554398 149.004410,248.527252 149.105286,250.464081 
	C149.176300,251.827057 150.188202,253.141022 150.780014,254.476868 
	C151.487595,253.374664 152.181931,252.263641 152.907440,251.173370 
	C153.390762,250.447083 153.807129,249.329712 154.457458,249.157440 
	C155.123642,248.980957 156.150040,249.600739 156.818924,250.126328 
	C157.899368,250.975281 158.816162,252.032532 159.802063,253.001816 
	C160.089951,251.518188 160.552338,250.041656 160.612930,248.548813 
	C160.665588,247.251541 160.458191,245.867142 160.025146,244.641602 
	C158.883301,241.410110 157.595230,235.558868 156.295944,235.540039 
	C151.854935,235.475616 151.266251,240.269440 149.890884,244.596924 
M123.353828,256.389008 
	C124.270958,255.521698 125.188095,254.654373 126.344833,253.560455 
	C127.211357,255.295303 127.570511,256.466522 128.306274,257.308777 
	C128.712845,257.774200 129.798141,257.912170 130.485901,257.766205 
	C130.893005,257.679779 131.495804,256.645233 131.373886,256.219238 
	C129.788071,250.678223 129.956604,244.409973 125.373459,239.937759 
	C120.658745,243.389435 117.709274,254.175491 119.971123,258.766113 
	C120.266609,259.365814 121.148247,259.676758 121.758385,260.121460 
	C122.310463,259.118164 122.862534,258.114899 123.353828,256.389008 
M233.971878,248.514618 
	C234.420273,248.030655 234.837997,247.513290 235.322250,247.068359 
	C237.671555,244.909836 238.394760,242.006348 235.734451,240.324188 
	C234.101120,239.291428 230.097702,239.500931 228.874710,240.785934 
	C224.892807,244.969727 224.429382,250.615906 223.721161,255.988297 
	C224.394119,256.285431 225.067062,256.582581 225.740005,256.879730 
	C226.963455,254.660797 228.186905,252.441879 229.693375,249.709656 
	C230.293533,250.578796 230.582672,251.221878 231.062561,251.652237 
	C232.802261,253.212372 234.605957,254.701141 236.385483,256.216858 
	C235.633377,253.897903 234.881256,251.578934 233.971878,248.514618 
M115.239738,258.769653 
	C117.302925,252.437790 112.129578,251.523285 108.027489,249.735260 
	C108.411133,248.908585 108.798393,248.368591 108.906654,247.777512 
	C109.111641,246.658279 109.156548,245.509735 109.267960,244.373367 
	C108.050087,244.852203 106.388451,244.983719 105.693398,245.871750 
	C103.084953,249.204468 104.176010,252.436234 108.125221,254.123383 
	C109.485107,254.704361 110.768929,255.463379 112.845970,256.530853 
	C111.091240,257.574615 110.313461,258.080658 109.496613,258.512848 
	C108.288651,259.152008 107.052948,259.738739 105.829041,260.347778 
	C107.356598,260.985291 108.958786,262.258331 110.391731,262.090057 
	C111.973785,261.904297 113.400658,260.397003 115.239738,258.769653 
M263.219666,246.141342 
	C261.134644,245.204773 259.124146,243.929337 256.938843,243.448944 
	C255.443649,243.120270 253.704910,243.899475 252.075058,244.183395 
	C252.900574,245.407639 253.726105,246.631866 254.821365,248.256134 
	C254.149002,250.184631 253.083221,252.644394 252.480408,255.212784 
	C252.160538,256.575562 252.644135,258.126953 252.764999,259.593201 
	C253.843552,258.628082 255.308823,257.861938 255.927231,256.660065 
	C257.694427,253.225586 257.345459,248.118286 263.200012,248.154877 
	C263.311768,248.155563 263.429016,247.280533 263.219666,246.141342 
M137.140305,243.620483 
	C136.402817,242.213287 135.665344,240.806091 134.927872,239.398895 
	C134.336044,240.909241 133.403336,242.384277 133.242355,243.939224 
	C133.058578,245.714432 133.580780,247.558884 133.763260,249.376556 
	C134.384750,255.567001 134.427322,255.679703 140.017593,253.281952 
	C141.908844,252.470779 143.488892,250.934082 145.211166,249.728928 
	C143.173904,249.621490 141.136475,249.517227 139.099594,249.403061 
	C138.802597,249.386429 138.508255,249.322449 137.854187,249.229340 
	C137.640671,247.695892 137.415756,246.080597 137.140305,243.620483 
M94.962242,250.769562 
	C95.993355,255.081039 96.908783,259.426361 98.152000,263.675812 
	C98.404343,264.538300 99.893059,265.039093 100.811798,265.706635 
	C101.163383,264.720734 101.974319,263.636566 101.787971,262.765778 
	C100.928566,258.749725 99.925346,254.747925 98.615448,250.861755 
	C98.408890,250.248917 96.364723,250.255463 94.962242,250.769562 
M245.202728,252.643066 
	C246.141510,249.835205 247.209305,247.060303 247.940308,244.199356 
	C248.159058,243.343216 247.436844,242.246628 247.145752,241.260223 
	C246.262787,241.786697 244.867798,242.119110 244.582428,242.872055 
	C243.070007,246.862717 241.765228,250.938385 240.575226,255.038788 
	C240.373596,255.733536 241.080963,256.692078 241.368362,257.528778 
	C242.274857,257.086731 243.399826,256.841339 244.025421,256.146423 
	C244.631744,255.472916 244.724808,254.337372 245.202728,252.643066 
M271.194641,251.644958 
	C271.121368,250.509323 271.048065,249.373688 270.974792,248.238052 
	C269.949524,248.754349 268.410370,249.007706 267.988312,249.832626 
	C266.197632,253.332565 264.616760,256.956879 263.246765,260.642639 
	C262.918243,261.526459 263.693512,262.820526 263.961121,263.925934 
	C264.911896,263.237030 266.265747,262.753082 266.739502,261.821564 
	C268.299347,258.754517 269.540466,255.525375 271.194641,251.644958 
z"/>
<path fill="#F6F6F3" opacity="1.000000" stroke="none" 
	d="
M111.067291,66.045517 
	C192.942490,16.264854 299.146698,58.279514 324.371033,150.533264 
	C335.377045,190.785889 329.338074,229.040970 307.654114,264.749329 
	C305.174377,268.832886 305.095337,268.784882 301.704193,266.603241 
	C310.465698,243.730682 321.048462,221.658890 322.401550,196.424759 
	C325.581879,137.112854 290.223480,81.904305 234.604828,60.862427 
	C155.104828,30.785662 68.399551,79.003685 52.068119,162.625519 
	C46.307652,192.120819 50.161865,220.600510 63.023186,247.854156 
	C64.114700,250.167130 63.905109,253.090057 64.324280,255.725739 
	C64.634933,257.679047 64.724236,259.721313 65.391594,261.548859 
	C66.047096,263.343903 67.307678,264.917969 68.302734,266.589020 
	C68.004921,266.887177 67.707100,267.185303 67.409286,267.483459 
	C66.339645,266.454651 64.996094,265.594788 64.241623,264.371613 
	C53.621017,247.153015 46.254677,228.611588 44.062996,208.476028 
	C37.441784,147.645096 59.904049,100.220779 111.067291,66.045517 
z"/>
<path fill="#F6F6F2" opacity="1.000000" stroke="none" 
	d="
M197.541885,331.645081 
	C155.025177,334.915710 117.055580,318.600433 95.879387,299.626495 
	C99.267685,296.278259 102.028572,295.984436 106.319527,299.117462 
	C153.604477,333.642944 216.659622,333.956848 264.669678,299.908447 
	C268.970032,296.858643 271.877960,296.861450 275.558105,300.696411 
	C252.721436,318.743469 226.888397,328.950073 197.541885,331.645081 
z"/>
<path fill="#E9F6FC" opacity="1.000000" stroke="none" 
	d="
M297.207825,269.124817 
	C298.106934,268.855865 299.346008,268.064972 299.854309,268.396027 
	C307.822754,273.586090 315.696960,278.920807 323.592896,284.222229 
	C323.365936,284.814178 323.139008,285.406097 322.912048,285.998016 
	C316.452545,287.024109 310.015045,288.240387 303.523712,288.991455 
	C300.533264,289.337433 299.185974,290.109955 299.114319,293.417908 
	C298.982147,299.517090 298.308777,305.604523 297.861725,311.685913 
	C288.286652,305.876892 278.852905,300.198853 269.479034,294.423615 
	C267.853394,293.422058 266.480957,292.009583 264.920715,290.067841 
	C265.155884,288.651489 265.690125,287.330231 265.735016,287.346649 
	C267.737427,288.079285 269.687317,288.952789 271.662964,289.761780 
	C280.333313,293.312103 286.259399,292.178162 289.382568,282.437592 
	C290.915955,277.655304 294.533508,273.541290 297.207825,269.124817 
z"/>
<path fill="#E9F6FC" opacity="1.000000" stroke="none" 
	d="
M101.203094,293.074280 
	C97.042404,295.727722 92.856895,298.343201 88.727188,301.044037 
	C83.325676,304.576630 77.968285,308.176666 71.986015,312.150146 
	C71.423607,305.611359 70.649925,299.311401 70.434364,292.992432 
	C70.323792,289.750702 68.776466,289.345520 66.161896,289.008972 
	C59.651150,288.170990 53.181469,287.014038 46.695305,285.985168 
	C46.469410,285.442413 46.243515,284.899658 46.017620,284.356903 
	C53.790855,279.106598 61.519688,273.787079 69.412292,268.722839 
	C70.129715,268.262543 71.899368,269.442139 73.639679,270.304199 
	C76.336899,274.895905 78.955704,278.887756 80.730659,283.224915 
	C84.059807,291.359833 88.840004,293.562225 97.110214,290.231598 
	C100.040306,289.051575 103.056854,288.086182 106.023438,286.997070 
	C106.012947,286.971344 105.957420,286.976105 105.642921,287.377869 
	C105.549896,288.037781 105.771370,288.295959 105.973228,288.538818 
	C105.953613,288.523529 105.972321,288.473907 105.972321,288.473907 
	C105.297928,289.046783 104.623528,289.619629 103.594467,290.632355 
	C102.560905,291.739563 101.882004,292.406921 101.203094,293.074280 
z"/>
<path fill="#E9EAED" opacity="1.000000" stroke="none" 
	d="
M328.751862,118.963425 
	C331.071106,118.633583 333.096497,118.517952 334.961761,117.910545 
	C337.825867,116.977867 339.396240,117.750336 339.924042,121.271713 
	C334.642456,122.485046 329.378174,123.832230 324.045044,124.799896 
	C323.014069,124.986969 321.305725,123.956924 320.673248,122.989311 
	C320.207672,122.277039 320.607361,120.391548 321.294495,119.667610 
	C322.502380,118.395020 324.225220,117.611191 325.732361,116.622658 
	C325.337524,116.069923 324.942688,115.517189 324.547852,114.964455 
	C322.187134,115.222183 319.826385,115.479919 317.151855,115.771912 
	C314.554565,113.711052 314.534943,111.822212 317.260956,109.181824 
	C320.717224,105.834137 323.643280,101.939041 326.875122,98.190544 
	C330.393250,102.308136 330.393250,102.308136 322.254517,110.811974 
	C325.857147,110.120811 328.254059,109.466202 330.687439,109.274750 
	C331.939514,109.176239 333.256470,109.902901 334.544128,110.256691 
	C334.002655,111.332962 333.669678,112.607063 332.875793,113.443840 
	C331.279419,115.126419 329.428711,116.567200 327.696930,118.123352 
	C327.613525,118.198334 327.596832,118.506699 327.665619,118.562347 
	C327.875214,118.731888 328.141846,118.830864 328.751862,118.963425 
z"/>
<path fill="#EAEBED" opacity="1.000000" stroke="none" 
	d="
M221.269653,25.037775 
	C222.475098,28.383013 223.313309,31.624966 224.152618,34.871075 
	C228.070084,33.451553 227.419739,25.508677 234.480988,28.451000 
	C233.650467,34.242908 232.832932,39.944233 232.020752,45.608231 
	C228.604935,45.625263 228.604935,45.625263 227.794861,38.057999 
	C225.894699,40.375660 224.262543,42.366421 221.770813,45.405628 
	C220.810638,41.480648 220.151672,38.786903 219.461929,35.967331 
	C216.277908,37.027649 218.661697,44.130924 212.217941,41.419796 
	C213.926971,36.350140 215.529907,31.209589 217.485825,26.207045 
	C217.780716,25.452879 219.722488,25.342611 221.269653,25.037775 
z"/>
<path fill="#EAEAEC" opacity="1.000000" stroke="none" 
	d="
M190.979156,23.882065 
	C192.489777,26.439697 193.830582,28.659391 195.841003,31.987614 
	C196.298752,27.902975 196.615662,25.074940 196.931595,22.255825 
	C199.776123,21.187769 201.053925,21.822639 200.945267,24.989376 
	C200.780716,29.785261 200.902298,34.590965 200.902298,39.860203 
	C192.638199,40.708431 193.785904,32.549664 189.313446,29.964445 
	C189.084976,33.112492 188.856674,36.258236 188.628372,39.403984 
	C188.193390,39.681747 187.758408,39.959511 187.323425,40.237274 
	C186.430664,39.123558 184.831360,38.048996 184.767105,36.889370 
	C184.484497,31.789289 184.645142,26.664644 184.645142,21.548903 
	C185.145462,21.238655 185.645782,20.928406 186.146103,20.618158 
	C187.700516,21.593483 189.254929,22.568806 190.979156,23.882065 
z"/>
<path fill="#EBEBED" opacity="1.000000" stroke="none" 
	d="
M146.978165,338.992310 
	C147.806900,337.310822 148.578720,336.052216 149.350525,334.793640 
	C150.607010,335.872284 152.251205,336.726257 153.034866,338.078827 
	C154.429901,340.486633 155.304245,343.196136 156.951447,347.092438 
	C157.851181,343.075409 158.473434,340.297333 159.143265,337.306793 
	C162.006714,336.292114 163.497757,336.976959 162.839188,340.392273 
	C161.929749,345.108429 160.988144,349.818390 159.934067,355.172241 
	C152.632645,354.600769 154.559387,347.001892 150.894669,343.906372 
	C148.194107,346.077789 151.839981,352.597931 144.547501,352.944916 
	C145.406357,348.049591 146.163803,343.732391 146.978165,338.992310 
z"/>
<path fill="#E7E8EB" opacity="1.000000" stroke="none" 
	d="
M128.122925,340.047211 
	C129.217346,336.516266 130.201080,333.365814 131.293076,329.868683 
	C135.352463,331.053802 140.411865,330.558807 141.584656,335.413757 
	C142.139694,337.711517 139.897018,340.685089 138.921890,343.352509 
	C138.326157,343.242615 137.730423,343.132721 137.134705,343.022827 
	C138.061539,345.451324 138.988373,347.879822 140.069931,350.713745 
	C133.841232,351.585602 134.650116,345.726746 132.792023,343.570679 
	C131.144409,345.032288 128.779877,347.971649 128.071381,347.615601 
	C124.634247,345.888306 127.749214,343.233612 127.896225,340.912567 
	C127.906570,340.749176 127.972282,340.589264 128.122925,340.047211 
z"/>
<path fill="#EDEDEF" opacity="1.000000" stroke="none" 
	d="
M50.303566,119.290573 
	C47.698643,119.771233 45.501553,120.200249 42.214237,120.842148 
	C45.747108,122.683449 48.187141,123.955170 50.976322,125.408867 
	C50.493477,126.589211 50.035835,127.707939 49.415768,129.223724 
	C43.987198,126.498497 38.834003,123.911514 33.746258,121.357384 
	C34.705875,117.448204 34.705875,117.448204 47.888367,115.676994 
	C45.194859,114.275284 43.300713,113.157562 41.300606,112.281822 
	C38.748775,111.164505 37.765862,109.828270 40.470234,107.224174 
	C45.487034,109.712486 50.632790,112.264763 55.821960,114.838570 
	C55.984188,118.744583 53.591160,119.278725 50.303566,119.290573 
z"/>
<path fill="#EBEBED" opacity="1.000000" stroke="none" 
	d="
M105.153595,54.799103 
	C110.182297,57.703865 111.254211,57.337307 112.892029,52.500847 
	C111.295433,52.168938 109.698997,51.836262 108.102570,51.503593 
	C110.031578,49.718506 111.960587,47.933418 114.000549,46.045654 
	C117.771454,49.979107 118.103073,53.576763 115.337822,57.298897 
	C112.638435,60.932350 108.163963,61.798706 104.191002,59.681965 
	C99.889282,57.390060 97.802132,52.211731 99.383385,47.754021 
	C100.904884,43.464764 104.658081,41.609108 111.335281,42.511730 
	C110.211014,43.880032 109.564430,45.478737 108.526840,45.795113 
	C102.745247,47.558006 102.137154,48.808361 105.153595,54.799103 
z"/>
<path fill="#E9EAED" opacity="1.000000" stroke="none" 
	d="
M265.448090,49.434879 
	C267.582001,48.117344 269.390350,46.594566 271.621765,44.715538 
	C272.055756,44.978977 273.098297,45.611820 274.356689,46.375664 
	C271.375732,51.715302 268.560364,56.758335 265.602081,62.057373 
	C264.299774,61.330757 263.227417,60.732433 261.965912,60.028576 
	C263.101746,57.886978 264.092255,56.019424 265.253265,53.830383 
	C263.568481,52.845066 262.078278,51.973568 260.449249,51.020874 
	C259.149597,53.094124 258.012085,54.908688 256.874603,56.723251 
	C256.376038,56.861866 255.877502,57.000484 255.378952,57.139103 
	C255.055344,55.674694 254.040787,53.900215 254.533539,52.802174 
	C256.226929,49.028770 258.289429,45.387966 260.564056,41.928566 
	C261.248566,40.887508 263.082123,40.601971 264.343140,39.992653 
	C266.178894,43.857540 259.354736,46.666931 265.448090,49.434879 
z"/>
<path fill="#E7E8EC" opacity="1.000000" stroke="none" 
	d="
M246.638062,33.315605 
	C249.523087,33.132263 250.930573,34.102448 250.863678,36.957054 
	C250.736099,42.400852 250.826675,47.849758 250.826675,54.973988 
	C247.692444,51.655678 245.912369,48.443188 243.257919,47.345921 
	C240.761078,46.313808 237.341675,47.513527 233.817123,46.575027 
	C237.979645,42.214005 242.142166,37.852982 246.638062,33.315605 
z"/>
<path fill="#E8E9EC" opacity="1.000000" stroke="none" 
	d="
M283.421783,53.950577 
	C284.981476,54.825657 287.365173,56.108231 287.211517,56.895702 
	C286.082092,62.683800 284.445343,68.372902 282.610382,75.479805 
	C280.292755,71.441238 279.270874,67.870834 276.903076,66.073853 
	C274.831390,64.501579 271.246613,64.923027 268.330261,64.463722 
	C268.326080,64.047310 268.321869,63.630898 268.317688,63.214485 
	C273.235443,60.185932 278.153198,57.157379 283.421783,53.950577 
z"/>
<path fill="#EAEAED" opacity="1.000000" stroke="none" 
	d="
M167.469818,348.542694 
	C169.029114,345.383667 170.182846,342.426208 171.824951,339.770721 
	C173.454636,337.135406 175.843979,337.223999 176.948090,340.072174 
	C179.018097,345.412048 180.553558,350.959076 181.425323,357.334625 
	C178.882095,355.877472 176.395721,353.386505 173.780289,353.242676 
	C170.945740,353.086823 167.990936,355.118317 163.993973,356.602264 
	C165.397629,353.300354 166.337921,351.088470 167.469818,348.542694 
z"/>
<path fill="#E9E9EC" opacity="1.000000" stroke="none" 
	d="
M180.495758,36.838310 
	C180.615112,38.020042 180.531418,38.864120 180.447723,39.708199 
	C179.273010,39.427654 177.807617,39.497517 176.973969,38.805897 
	C173.370834,35.816650 171.130066,36.056797 167.953232,39.722198 
	C167.183731,40.610043 165.624222,40.813171 163.177139,41.872791 
	C165.177994,35.070175 166.719055,29.550766 168.488800,24.105679 
	C168.765015,23.255812 170.128067,22.159998 170.908081,22.220222 
	C171.952988,22.300901 173.325317,23.168850 173.849396,24.097946 
	C176.136932,28.153351 178.168335,32.353226 180.495758,36.838310 
z"/>
<path fill="#E8E9EC" opacity="1.000000" stroke="none" 
	d="
M130.261169,42.198425 
	C130.514954,38.752106 130.530762,35.729271 131.013275,32.782871 
	C131.522736,29.671968 133.690247,28.792816 135.852066,31.042568 
	C139.859589,35.213085 143.452682,39.781826 146.738907,45.264862 
	C143.726715,44.894619 140.395447,43.561398 137.791763,44.424088 
	C135.171097,45.292404 133.273895,48.344143 130.228424,51.225658 
	C130.228424,47.494839 130.228424,45.075180 130.261169,42.198425 
z"/>
<path fill="#E8E9EC" opacity="1.000000" stroke="none" 
	d="
M80.421310,83.884857 
	C79.168663,83.911346 77.880325,84.017235 77.284782,83.425667 
	C74.226555,80.387833 71.204041,77.286057 68.495071,73.942474 
	C67.729591,72.997673 68.063141,71.162422 67.892624,69.735573 
	C68.404594,69.604843 68.916557,69.474113 69.428528,69.343376 
	C70.747276,70.471497 72.066017,71.599609 73.605164,72.916260 
	C75.484657,69.483513 71.610504,64.172409 77.319977,62.270130 
	C77.995514,65.761719 77.551247,70.420082 79.600815,72.189102 
	C81.848640,74.129242 86.396416,73.404694 90.089798,73.859512 
	C87.307724,80.197540 82.293388,76.232216 78.588226,77.164902 
	C79.294052,79.324654 79.999611,81.483597 80.421310,83.884857 
z"/>
<path fill="#E8E9EC" opacity="1.000000" stroke="none" 
	d="
M112.215607,328.235443 
	C113.702194,325.933258 113.435493,321.085266 118.197601,324.778656 
	C116.861061,328.068634 115.327583,331.213593 114.370827,334.525146 
	C114.014961,335.756897 115.009094,337.378632 115.387604,338.822540 
	C116.816093,338.104340 118.877251,337.753571 119.549385,336.596130 
	C121.269722,333.633606 122.371994,330.312134 123.703644,327.176147 
	C127.008568,327.355133 127.875130,328.619232 126.577667,331.370300 
	C125.374336,333.921753 124.401474,336.581879 123.198021,339.133240 
	C121.089890,343.602478 118.319031,344.680054 113.945061,342.866516 
	C109.660728,341.090118 108.425072,338.273346 110.011993,333.666412 
	C110.605980,331.942017 111.386818,330.282013 112.215607,328.235443 
z"/>
<path fill="#ECECEE" opacity="1.000000" stroke="none" 
	d="
M325.023346,132.591339 
	C327.554443,131.813522 330.138031,131.250916 332.734558,131.182800 
	C335.551392,131.108902 338.406311,131.326996 341.192383,131.756622 
	C342.468567,131.953415 344.298187,132.720062 344.635406,133.669296 
	C344.968201,134.606049 344.045380,136.429520 343.132690,137.291443 
	C339.275665,140.933884 335.216949,144.362778 330.523499,148.493256 
	C330.095093,146.591095 329.247009,145.122360 329.614960,144.084915 
	C331.927643,137.564224 331.946075,137.455460 326.123169,134.645477 
	C325.630035,134.407501 325.421997,133.578690 325.023346,132.591339 
z"/>
<path fill="#E9E9EC" opacity="1.000000" stroke="none" 
	d="
M253.607178,330.243652 
	C254.623856,328.932739 255.256638,327.260773 256.195923,325.783691 
	C257.234650,324.150330 258.553986,322.695465 259.751129,321.162842 
	C260.240784,321.412872 260.730469,321.662872 261.220123,321.912872 
	C260.443237,325.001129 259.666351,328.089417 258.761292,331.687134 
	C262.174286,333.388763 265.633453,335.113434 269.296875,336.939941 
	C264.510345,341.721497 260.952911,336.806061 256.437225,335.979858 
	C256.868530,337.358582 257.470337,338.451660 257.484558,339.552399 
	C257.500000,340.745178 256.967804,341.945068 256.674438,343.141846 
	C255.646362,342.426208 254.156738,341.938995 253.670013,340.955444 
	C251.542984,336.657288 249.706955,332.215118 247.737549,327.762451 
	C251.701538,323.793854 252.171967,327.747314 253.607178,330.243652 
z"/>
<path fill="#EBEBED" opacity="1.000000" stroke="none" 
	d="
M37.405838,144.860214 
	C34.190094,143.797913 31.389517,142.769302 28.551596,141.856812 
	C25.614197,140.912369 25.379032,139.405151 27.558189,137.054596 
	C30.783649,138.117081 34.001190,139.464355 37.354073,140.138184 
	C38.672241,140.403107 40.292995,139.162399 41.775955,138.607330 
	C40.985481,137.369812 40.475143,135.626160 39.345726,135.001068 
	C37.054337,133.732880 34.305817,133.298416 31.991302,132.060944 
	C30.836143,131.443329 30.222120,129.813583 29.363327,128.641632 
	C29.772621,128.207123 30.181917,127.772606 30.591211,127.338097 
	C34.000599,128.516571 37.388615,129.762192 40.824913,130.856140 
	C44.905636,132.155258 47.029961,134.669769 45.986050,139.057281 
	C44.978745,143.290924 42.608673,145.870636 37.405838,144.860214 
z"/>
<path fill="#E7E8EB" opacity="1.000000" stroke="none" 
	d="
M223.200836,346.019409 
	C222.903412,348.559906 223.045349,352.067444 221.735886,352.737183 
	C218.815735,354.230652 215.170715,354.306915 211.821045,354.960632 
	C211.474091,354.134918 211.127136,353.309204 210.780182,352.483490 
	C211.993698,351.788513 213.134247,350.832306 214.440018,350.467468 
	C215.929367,350.051331 217.565933,350.162201 220.401917,349.949158 
	C216.621536,345.481659 207.553833,346.279510 211.434906,338.796631 
	C212.580200,336.588440 217.016449,336.087189 220.270996,334.660614 
	C222.333664,341.986450 215.731293,337.859375 214.923798,341.353394 
	C217.500595,342.742981 220.241074,344.220856 223.200836,346.019409 
z"/>
<path fill="#E6E8EB" opacity="1.000000" stroke="none" 
	d="
M323.817017,93.906685 
	C322.403473,95.998985 321.096161,96.672310 319.849487,94.023285 
	C319.324829,92.908516 318.448486,91.959259 316.481354,91.201393 
	C316.481354,92.649765 316.229614,94.153015 316.530975,95.535698 
	C317.281982,98.981201 317.061981,102.043800 313.305206,103.386787 
	C309.554535,104.727585 307.317261,102.257591 305.698242,99.389160 
	C304.769836,97.744308 304.403839,95.782043 303.772919,93.928177 
	C310.137207,90.786659 307.188141,99.827980 312.352814,98.674576 
	C312.352814,97.668533 312.533142,96.337418 312.317993,95.073624 
	C311.741882,91.689255 311.764008,88.357193 315.683014,87.308846 
	C319.549988,86.274437 321.922302,88.646080 323.253601,92.139740 
	C323.431488,92.606636 323.609680,93.073425 323.817017,93.906685 
z"/>
<path fill="#E9EAEC" opacity="1.000000" stroke="none" 
	d="
M92.411896,54.568436 
	C90.848961,56.367867 87.124046,56.988312 89.818985,60.040070 
	C92.409866,60.629200 94.425476,55.002811 96.620010,59.464676 
	C95.469551,61.573101 94.492928,63.362953 93.516296,65.152802 
	C95.527405,64.804581 97.538513,64.456367 99.866707,64.053253 
	C101.886284,66.526489 101.886284,66.526489 93.302246,72.007576 
	C89.817719,67.306526 86.310028,62.574230 82.559326,57.514072 
	C84.837402,55.780949 86.917198,54.209938 88.984612,52.622791 
	C91.250824,50.883038 92.196442,52.018902 92.411896,54.568436 
z"/>
<path fill="#EBEBEE" opacity="1.000000" stroke="none" 
	d="
M287.126801,74.031204 
	C288.678833,75.037933 289.769928,76.230324 291.035217,77.194008 
	C291.864655,77.825722 292.946045,78.126640 293.914581,78.575714 
	C294.087646,77.562035 294.492371,76.520058 294.372894,75.542107 
	C294.235504,74.416985 293.181305,73.279976 293.333893,72.270348 
	C293.609375,70.447632 294.012115,67.786949 295.224915,67.168213 
	C296.953491,66.286331 299.802368,66.249275 301.535461,67.119888 
	C303.160675,67.936317 304.014984,70.370972 305.010986,72.201042 
	C305.092651,72.350990 303.656006,73.327301 302.977966,73.876595 
	C301.293793,72.388878 299.779877,71.051582 297.451843,68.995125 
	C297.088623,74.435387 302.170685,79.191826 296.552856,82.379562 
	C294.989899,83.266449 291.806976,82.771812 290.164032,81.695114 
	C287.765717,80.123413 284.931549,77.948608 287.126801,74.031204 
z"/>
<path fill="#3C6598" opacity="1.000000" stroke="none" 
	d="
M296.951935,268.988342 
	C294.533508,273.541290 290.915955,277.655304 289.382568,282.437592 
	C286.259399,292.178162 280.333313,293.312103 271.662964,289.761780 
	C269.687317,288.952789 267.737427,288.079285 265.735016,287.346649 
	C265.690125,287.330231 265.155884,288.651489 264.864380,289.685791 
	C263.927429,289.287506 262.975952,288.552216 262.325562,287.294800 
	C264.669586,286.501892 266.706909,286.075012 268.756989,286.000916 
	C271.176758,285.913452 273.607574,286.131042 276.033600,286.216400 
	C276.497437,286.779175 276.961273,287.341980 277.723206,287.957062 
	C280.707001,289.937744 283.163696,289.619568 284.872131,286.619812 
	C286.234589,284.227539 286.709595,281.325562 288.096588,278.952667 
	C290.277863,275.220886 292.894714,271.743744 295.652710,268.060211 
	C296.217529,268.258392 296.456757,268.555115 296.951935,268.988342 
z"/>
<path fill="#E7E9EC" opacity="1.000000" stroke="none" 
	d="
M235.014160,331.405212 
	C235.882339,332.226624 236.839432,333.898224 236.816971,333.911469 
	C230.395691,337.704468 235.716080,342.243622 236.179199,346.304840 
	C236.487411,349.007782 236.871460,350.869415 232.909164,350.694794 
	C231.676041,346.404541 230.410156,342.000305 229.355377,338.330566 
	C227.122025,337.359924 225.424301,336.622101 223.726593,335.884247 
	C223.883942,335.395721 224.041306,334.907166 224.198654,334.418610 
	C227.680969,333.439362 231.163269,332.460144 235.014160,331.405212 
z"/>
<path fill="#E8E9EC" opacity="1.000000" stroke="none" 
	d="
M52.839012,87.736710 
	C54.074017,86.149002 55.094826,84.862816 56.115635,83.576630 
	C56.590561,83.564651 57.065487,83.552666 57.540413,83.540680 
	C57.721088,85.345879 57.901764,87.151077 58.168884,89.819992 
	C60.773300,91.829414 64.286324,94.539848 67.772697,97.229729 
	C65.931816,101.065552 65.929100,101.069191 61.661873,97.879082 
	C59.418045,96.201637 57.185673,94.508865 55.196663,93.010262 
	C53.125134,93.602043 51.313995,94.119438 49.502857,94.636833 
	C49.280872,94.137245 49.058891,93.637657 48.836910,93.138062 
	C50.099545,91.438118 51.362179,89.738174 52.839012,87.736710 
z"/>
<path fill="#E9EAEC" opacity="1.000000" stroke="none" 
	d="
M158.201508,26.759556 
	C155.315689,27.861914 154.299667,29.343122 155.208542,32.196304 
	C156.011475,34.716869 156.576721,37.350655 156.868942,39.976513 
	C156.974625,40.926025 155.983276,41.997620 155.492508,43.013504 
	C154.615829,42.333454 153.258957,41.819401 152.955383,40.941238 
	C152.147629,38.604546 151.813095,36.106495 151.253510,33.681118 
	C150.760437,31.544088 151.029694,28.596655 147.272980,29.740660 
	C146.980286,28.606014 146.687592,27.471371 146.394897,26.336725 
	C150.105927,25.598516 153.812042,24.830235 157.544205,24.221617 
	C157.709869,24.194599 158.112732,25.622223 158.201508,26.759556 
z"/>
<path fill="#E3E7EB" opacity="1.000000" stroke="none" 
	d="
M187.964508,338.910431 
	C189.040024,339.806702 190.101593,340.674438 190.204346,341.643860 
	C190.585754,345.241943 190.651459,348.873535 190.818558,352.155243 
	C192.396912,354.583282 197.867523,350.879883 196.770096,356.829590 
	C193.489410,356.829590 190.248047,356.829590 186.103668,356.829590 
	C186.103668,351.220703 186.075897,345.640778 186.164169,340.062683 
	C186.170242,339.677643 187.041519,339.306305 187.964508,338.910431 
z"/>
<path fill="#3F679A" opacity="1.000000" stroke="none" 
	d="
M106.033928,287.022827 
	C103.056854,288.086182 100.040306,289.051575 97.110214,290.231598 
	C88.840004,293.562225 84.059807,291.359833 80.730659,283.224915 
	C78.955704,278.887756 76.336899,274.895905 73.950211,270.436157 
	C74.112465,269.909149 74.423477,269.694244 74.873322,269.229553 
	C80.443962,271.896729 81.091301,277.616089 82.963516,282.605286 
	C84.266457,286.077393 85.471291,289.589478 90.997856,289.156189 
	C92.859253,288.697388 93.954475,288.332245 95.024765,287.973541 
	C94.999840,287.979950 94.975555,288.025269 95.353058,288.112640 
	C97.800728,287.352478 99.810875,286.182678 101.964165,285.781677 
	C103.200829,285.551392 104.669624,286.567688 106.033928,287.022827 
z"/>
<path fill="#E9EAED" opacity="1.000000" stroke="none" 
	d="
M100.823578,335.888245 
	C98.967743,335.245239 97.319664,334.795837 96.082390,333.823608 
	C95.423622,333.305969 95.475685,331.883698 95.206909,330.869720 
	C96.165787,330.729187 97.157524,330.698242 98.075905,330.422760 
	C99.496330,329.996643 101.220482,329.753571 102.170052,328.793915 
	C103.400818,327.550049 103.997963,325.679016 104.866898,324.077423 
	C105.651604,322.631165 106.435005,321.184204 107.376549,319.446777 
	C108.644775,320.048615 109.751999,320.574066 111.999184,321.640472 
	C108.178558,326.673767 104.690361,331.269104 100.823578,335.888245 
z"/>
<path fill="#DCEBF4" opacity="1.000000" stroke="none" 
	d="
M106.023438,286.997070 
	C104.669624,286.567688 103.200829,285.551392 101.964165,285.781677 
	C99.810875,286.182678 97.800728,287.352478 95.240685,287.769653 
	C93.774452,286.918396 92.798103,286.497528 90.598625,285.549438 
	C94.701149,283.341034 97.862213,281.639404 101.023270,279.937744 
	C104.512383,279.979156 109.332550,285.151550 108.509766,288.195435 
	C108.362534,288.740143 106.883774,288.924866 105.996063,288.874847 
	C105.972321,288.473907 105.953613,288.523529 106.153503,288.311768 
	C106.221405,287.725372 106.089417,287.350739 105.957428,286.976105 
	C105.957420,286.976105 106.012947,286.971344 106.023438,286.997070 
z"/>
<path fill="#E7E8EB" opacity="1.000000" stroke="none" 
	d="
M60.284088,109.241234 
	C59.161827,109.732635 57.936428,110.402504 57.326336,110.039169 
	C52.782051,107.332870 48.359730,104.421783 43.734253,101.469696 
	C44.404728,100.229675 44.940521,99.238747 45.719841,97.797432 
	C50.611832,100.883621 55.361526,103.833870 60.031101,106.905907 
	C60.443768,107.177383 60.333351,108.243965 60.284088,109.241234 
z"/>
<path fill="#E8E9EC" opacity="1.000000" stroke="none" 
	d="
M239.942047,331.053345 
	C242.145508,327.875305 243.602631,328.654236 244.616974,331.686768 
	C245.877731,335.455933 247.041199,339.266754 248.511475,342.954010 
	C249.739410,346.033478 248.398178,346.788757 245.360428,346.875946 
	C243.568085,341.722504 241.781509,336.585571 239.942047,331.053345 
z"/>
<path fill="#E8E9EC" opacity="1.000000" stroke="none" 
	d="
M306.089996,86.110565 
	C304.585358,87.434113 303.365234,88.541931 302.082520,89.571739 
	C299.770294,91.428055 299.754639,91.408546 297.223724,88.296631 
	C301.501709,84.490974 305.792358,80.674057 310.363586,76.607521 
	C311.352112,77.492500 312.245270,78.292076 313.464325,79.383438 
	C310.922729,81.695869 308.634521,83.777763 306.089996,86.110565 
z"/>
<path fill="#EBEBEE" opacity="1.000000" stroke="none" 
	d="
M203.994995,338.122375 
	C205.022186,343.897858 205.668808,349.493713 206.330276,355.218140 
	C203.794128,356.495331 202.112198,356.847565 201.865341,353.364197 
	C201.571350,349.215607 201.249969,345.057068 200.642609,340.946808 
	C200.249893,338.289124 201.331436,337.665344 203.994995,338.122375 
z"/>
<path fill="#E8E9EC" opacity="1.000000" stroke="none" 
	d="
M125.779083,48.288513 
	C127.446999,51.242275 127.392319,53.072929 123.319000,53.125008 
	C121.010056,48.002834 118.639763,42.744545 116.254639,37.453362 
	C118.637093,34.999092 120.147423,35.313160 121.358620,38.404011 
	C122.627365,41.641731 124.184441,44.766460 125.779083,48.288513 
z"/>
<path fill="#E4F2F9" opacity="1.000000" stroke="none" 
	d="
M276.386902,286.136017 
	C273.607574,286.131042 271.176758,285.913452 268.756989,286.000916 
	C266.706909,286.075012 264.669586,286.501892 262.304932,286.941162 
	C262.232086,285.994537 262.210083,284.704895 262.790863,283.803680 
	C263.754639,282.308228 265.105927,281.062500 266.770660,279.169525 
	C270.130676,280.837616 273.605804,282.536407 277.024445,284.342224 
	C277.186249,284.427704 276.846436,285.462799 276.386902,286.136017 
z"/>
<path fill="#3B6498" opacity="1.000000" stroke="none" 
	d="
M96.998360,238.689484 
	C89.198624,242.192841 81.397408,245.386688 73.294342,248.277435 
	C74.138138,246.957413 75.119972,245.547226 76.457207,244.990143 
	C83.012077,242.259476 89.661530,239.755829 96.651062,237.157135 
	C97.015335,237.554855 97.006104,237.967422 96.998360,238.689484 
z"/>
<path fill="#D5E2EA" opacity="1.000000" stroke="none" 
	d="
M157.434387,60.948479 
	C156.980286,60.511791 156.977615,60.131523 156.973801,59.466042 
	C160.629608,58.499302 164.286560,57.817772 168.375183,57.508797 
	C169.246246,58.574875 169.685623,59.268398 170.164551,60.332249 
	C170.150665,61.193199 170.097229,61.683826 170.043793,62.174450 
	C165.991135,61.784599 161.938477,61.394753 157.434387,60.948479 
z"/>
<path fill="#446B9D" opacity="1.000000" stroke="none" 
	d="
M101.017838,279.471802 
	C97.862213,281.639404 94.701149,283.341034 90.598625,285.549438 
	C92.798103,286.497528 93.774452,286.918396 94.863174,287.682251 
	C94.975555,288.025269 94.999840,287.979950 94.616913,287.996124 
	C93.148148,288.088501 92.062302,288.164703 90.976456,288.240875 
	C87.793983,285.942932 89.493179,283.897461 91.642723,282.503082 
	C94.347107,280.748810 97.395226,279.524414 100.657448,278.072632 
	C101.017387,278.384521 101.014900,278.695190 101.017838,279.471802 
z"/>
<path fill="#323947" opacity="1.000000" stroke="none" 
	d="
M170.125000,59.961922 
	C169.685623,59.268398 169.246246,58.574875 168.773727,57.554489 
	C170.115814,56.809361 171.491043,56.391094 173.207581,56.129066 
	C173.240829,57.393436 172.932800,58.501568 172.017746,59.806526 
	C170.982162,59.989540 170.553574,59.975731 170.125000,59.961922 
z"/>
<path fill="#3F679A" opacity="1.000000" stroke="none" 
	d="
M101.480492,293.212463 
	C101.882004,292.406921 102.560905,291.739563 103.538239,291.010437 
	C104.081032,291.550598 104.325394,292.152557 104.569763,292.754517 
	C103.632477,292.953247 102.695183,293.151947 101.480492,293.212463 
z"/>
<path fill="#ECF8FC" opacity="1.000000" stroke="none" 
	d="
M187.377716,180.316742 
	C183.730331,184.775314 180.307510,188.949982 176.884689,193.124649 
	C176.481750,192.955643 176.078812,192.786652 175.675873,192.617645 
	C174.699036,156.616867 173.722198,120.616089 172.745377,84.615311 
	C173.304947,84.146523 173.864532,83.677727 174.424118,83.208939 
	C174.799973,84.262573 174.945862,85.488213 175.586075,86.344116 
	C185.653748,99.803841 193.541306,114.305527 196.933609,130.940643 
	C200.526703,148.560455 197.601303,164.978180 187.377716,180.316742 
z"/>
<path fill="#333A48" opacity="1.000000" stroke="none" 
	d="
M170.164551,60.332253 
	C170.553574,59.975731 170.982162,59.989540 171.732239,60.011154 
	C172.049377,60.467915 172.045013,60.916870 171.960754,61.693027 
	C171.429672,67.451584 170.978470,72.882935 170.527267,78.314285 
	C170.355209,78.310593 170.183167,78.306900 170.011108,78.303207 
	C170.011108,73.229919 170.011108,68.156639 170.027451,62.628902 
	C170.097229,61.683826 170.150665,61.193199 170.164551,60.332253 
z"/>
<path fill="#333A48" opacity="1.000000" stroke="none" 
	d="
M170.570465,82.619537 
	C169.616547,82.467369 168.840836,82.108055 168.032471,81.374405 
	C168.916122,81.470833 169.832397,81.941612 170.570465,82.619537 
z"/>
<path fill="#333A48" opacity="1.000000" stroke="none" 
	d="
M137.301376,72.018814 
	C137.585861,71.809174 138.296509,71.579201 139.218369,71.604370 
	C138.862228,71.905838 138.294891,71.952156 137.301376,72.018814 
z"/>
<path fill="#313846" opacity="1.000000" stroke="none" 
	d="
M94.989296,196.013565 
	C98.560646,193.969604 102.579399,192.440918 105.627449,189.794296 
	C120.418961,176.950668 130.953079,160.734726 140.115570,143.712311 
	C149.466110,126.340515 157.961197,108.508255 166.732208,91.073578 
	C166.732208,126.344681 166.732208,162.077988 166.732208,198.521103 
	C157.863113,200.152893 148.807938,202.608871 139.618088,203.317123 
	C127.092972,204.282394 114.463478,204.095474 101.882614,203.980042 
	C99.058960,203.954147 96.251343,202.179581 93.185806,201.614761 
	C92.935265,202.019470 92.994690,202.054077 92.994690,202.054077 
	C92.436546,200.902161 91.878403,199.750244 91.792038,198.308502 
	C92.824867,197.744980 93.385902,197.471283 94.306633,197.119171 
	C94.793434,196.683197 94.920540,196.325623 95.020691,195.963943 
	C94.993729,195.959839 94.989296,196.013565 94.989296,196.013565 
z"/>
<path fill="#313257" opacity="1.000000" stroke="none" 
	d="
M83.018646,197.122131 
	C83.969429,196.265564 84.920212,195.409012 85.868622,194.554581 
	C87.989166,197.059509 90.143639,199.604523 92.646393,202.101807 
	C92.994690,202.054077 92.935265,202.019470 92.914703,201.991165 
	C94.150063,203.133469 95.405983,204.304077 96.523125,205.345322 
	C92.966339,209.018204 89.395630,212.705460 85.926743,216.287567 
	C82.864365,213.053909 79.261238,209.249252 76.569252,206.406708 
	C78.764450,203.683395 81.203690,200.657333 83.356590,197.354782 
	C83.070244,197.078308 83.018646,197.122131 83.018646,197.122131 
M84.126335,201.466309 
	C82.747292,202.848984 81.368248,204.231644 80.243164,205.359695 
	C82.373482,207.411392 84.454224,209.415329 86.520241,211.405075 
	C88.181267,209.649994 90.075447,207.648575 91.990166,205.625443 
	C90.284447,203.886536 88.877106,202.234818 87.219910,200.891296 
	C86.706551,200.475113 85.514191,200.896469 84.126335,201.466309 
z"/>
<path fill="#36375B" opacity="1.000000" stroke="none" 
	d="
M99.979210,141.047150 
	C98.814056,140.932770 97.216957,141.263123 96.560226,140.625259 
	C94.025314,138.163223 91.790688,135.391983 90.154381,133.539871 
	C93.187675,131.256256 96.548843,128.725800 99.910011,126.195335 
	C98.442245,126.024216 96.974487,125.853104 95.506721,125.681984 
	C98.957024,128.281631 102.407318,130.881271 105.998894,133.587357 
	C105.408607,134.003632 104.139839,134.898346 102.893799,135.777054 
	C104.549332,138.239105 108.980392,138.474213 107.010918,142.521942 
	C104.312691,141.932556 102.145950,141.489853 99.979210,141.047150 
M96.535149,129.026718 
	C95.106247,130.084045 93.677345,131.141388 92.166618,132.259262 
	C94.503227,134.636658 95.996048,136.155548 97.649002,137.837357 
	C99.416916,136.169693 101.071350,134.609085 103.249832,132.554153 
	C100.999939,131.087051 99.010353,129.789673 96.535149,129.026718 
z"/>
<path fill="#323357" opacity="1.000000" stroke="none" 
	d="
M93.946930,197.197571 
	C93.385902,197.471283 92.824867,197.744980 92.015236,198.026642 
	C89.741661,195.196182 87.716675,192.357788 85.514580,189.271118 
	C87.467445,187.184631 89.949265,184.532990 92.552567,181.751556 
	C94.813896,184.150513 97.293854,186.781403 100.419075,190.096832 
	C98.555046,191.747467 96.479614,193.585312 94.696739,195.718353 
	C94.989296,196.013565 94.993729,195.959839 94.663132,195.890579 
	C94.204002,196.280075 94.075470,196.738815 93.946930,197.197571 
M89.576439,188.976868 
	C90.405602,190.361710 91.234772,191.746536 92.171394,193.310837 
	C93.785271,191.886719 94.970238,190.841064 96.294449,189.672546 
	C94.740135,188.250076 93.606010,187.212158 92.250504,185.971649 
	C91.342682,187.028214 90.702751,187.772995 89.576439,188.976868 
z"/>
<path fill="#36395D" opacity="1.000000" stroke="none" 
	d="
M97.879539,147.136566 
	C95.542908,148.733459 93.484528,150.126328 91.426155,151.519180 
	C91.798813,151.975510 92.171478,152.431839 92.544144,152.888153 
	C90.494797,150.687393 88.445457,148.486633 86.265129,146.145218 
	C88.214058,144.108948 90.313583,141.915344 92.619049,139.506577 
	C94.480316,142.002029 96.319054,144.467285 97.879539,147.136566 
z"/>
<path fill="#2C2C51" opacity="1.000000" stroke="none" 
	d="
M83.092285,197.052612 
	C81.347633,198.232285 79.580940,199.437637 77.681076,200.733841 
	C76.182121,199.140274 74.534515,197.388657 72.718559,195.458084 
	C74.362335,193.686890 75.998695,191.923706 78.191933,189.560486 
	C79.773155,191.879379 81.302078,194.121582 82.924820,196.742950 
	C83.018646,197.122131 83.070244,197.078308 83.092285,197.052612 
z"/>
<path fill="#323155" opacity="1.000000" stroke="none" 
	d="
M100.061996,141.369797 
	C102.145950,141.489853 104.312691,141.932556 106.713318,142.622986 
	C106.153107,143.895248 105.359009,144.919785 104.482948,146.050064 
	C102.924736,144.484863 101.534760,143.088654 100.061996,141.369797 
z"/>
<path fill="#2D5990" opacity="1.000000" stroke="none" 
	d="
M198.626617,245.546509 
	C196.876328,244.790543 195.440414,243.824783 193.750107,242.687943 
	C193.326248,244.695160 192.959595,247.309509 192.167465,249.787888 
	C191.806900,250.915970 190.605118,251.775177 189.784912,252.756348 
	C189.349747,251.502686 188.486572,250.219147 188.571564,249.001785 
	C188.731613,246.709167 189.289398,244.410599 189.946304,242.192856 
	C191.775558,236.017227 192.703964,235.835114 199.150406,236.087967 
	C201.910309,236.196213 205.407074,234.567245 205.758820,238.456940 
	C206.177597,243.087784 205.191071,247.851898 204.670120,252.542343 
	C204.645370,252.765259 203.233444,252.834106 201.919052,253.075409 
	C202.155182,248.791382 202.372452,244.849625 202.589722,240.907867 
	C202.219437,240.853836 201.849136,240.799805 201.478851,240.745789 
	C200.632904,242.276093 199.786942,243.806396 198.626617,245.546509 
z"/>
<path fill="#2B568E" opacity="1.000000" stroke="none" 
	d="
M288.567871,266.321106 
	C286.530884,268.606354 287.319885,272.972534 282.948486,272.604370 
	C283.607635,270.100922 284.237823,267.589355 284.936829,265.097046 
	C285.359375,263.590424 285.888733,262.113739 286.442963,260.398010 
	C283.835632,261.652771 281.791107,262.636688 279.746613,263.620605 
	C279.746613,261.947266 279.746613,260.273926 279.746613,256.870483 
	C277.401917,260.467957 275.884003,263.127289 274.016357,265.512787 
	C273.175476,266.586792 271.636597,267.114258 270.414398,267.889740 
	C270.476807,266.521210 270.161987,264.984161 270.681976,263.820038 
	C271.691101,261.560822 272.902130,259.278687 274.513336,257.427002 
	C277.203888,254.334824 279.409393,251.133957 284.707275,255.086487 
	C290.726135,259.576935 291.260956,258.860077 288.567871,266.321106 
z"/>
<path fill="#2E5990" opacity="1.000000" stroke="none" 
	d="
M172.031555,237.230362 
	C172.460114,235.289658 172.857300,233.768143 173.548965,231.118698 
	C174.893158,232.818710 176.062012,233.617355 176.035446,234.374008 
	C175.866821,239.175308 175.504517,243.974655 175.009216,248.754242 
	C174.938217,249.439316 173.804306,250.014252 173.162308,250.640152 
	C172.540314,249.984177 171.589722,249.422379 171.368820,248.651474 
	C170.980591,247.296738 171.038818,245.814041 170.910065,244.384949 
	C170.358078,244.260437 169.806076,244.135925 169.254089,244.011429 
	C168.812393,245.494019 168.472290,247.017242 167.900421,248.447815 
	C167.327789,249.880386 166.523651,251.220444 165.820999,252.601059 
	C165.168274,252.357925 164.515564,252.114807 163.862854,251.871689 
	C164.201508,246.324387 164.458969,240.769516 164.973877,235.238617 
	C165.044205,234.483398 166.399124,233.847794 167.159286,233.156815 
	C167.645813,234.363892 168.155334,235.562347 168.612045,236.780594 
	C169.023270,237.877472 169.376633,238.996033 169.755508,240.105042 
	C170.503738,239.286545 171.251953,238.468063 172.031555,237.230362 
z"/>
<path fill="#2D5990" opacity="1.000000" stroke="none" 
	d="
M211.633636,243.754730 
	C213.872391,240.110199 215.536392,235.407776 220.069519,236.422134 
	C221.324707,236.702972 221.300797,242.964417 221.729660,246.498199 
	C221.844742,247.446548 221.577484,248.488724 221.290009,249.427917 
	C220.794449,251.046875 220.145401,252.618866 219.560776,254.210556 
	C218.757568,252.903564 218.209549,251.253159 217.066376,250.403656 
	C216.227356,249.780167 214.426025,249.800049 213.382660,250.267593 
	C212.069992,250.855820 211.092865,252.192795 209.970947,253.206696 
	C209.982681,251.395584 209.818848,249.560120 210.065338,247.781540 
	C210.241699,246.508957 210.967957,245.312576 211.633636,243.754730 
z"/>
<path fill="#2E5990" opacity="1.000000" stroke="none" 
	d="
M89.426910,262.497620 
	C91.169373,263.484344 92.804375,263.999420 94.129173,264.947845 
	C94.829376,265.449127 94.989433,266.704926 95.393356,267.620056 
	C94.384987,267.813324 93.277992,268.368622 92.388321,268.126221 
	C90.394150,267.582886 88.508041,266.642883 86.521141,265.841492 
	C86.306480,266.604614 86.161400,266.904785 86.145439,267.211670 
	C86.030075,269.429596 85.940826,271.648834 85.843307,273.867676 
	C84.670517,272.088867 83.256821,270.418671 82.392311,268.500885 
	C81.518394,266.562225 80.605980,264.331970 80.766785,262.313629 
	C80.970627,259.755188 81.885132,257.057892 83.248024,254.896439 
	C83.707382,254.167938 87.670998,254.375900 87.960358,255.048096 
	C88.890991,257.209991 88.854225,259.788330 89.426910,262.497620 
z"/>
<path fill="#2C588F" opacity="1.000000" stroke="none" 
	d="
M149.948608,244.191223 
	C151.266251,240.269440 151.854935,235.475616 156.295944,235.540039 
	C157.595230,235.558868 158.883301,241.410110 160.025146,244.641602 
	C160.458191,245.867142 160.665588,247.251541 160.612930,248.548813 
	C160.552338,250.041656 160.089951,251.518188 159.802063,253.001816 
	C158.816162,252.032532 157.899368,250.975281 156.818924,250.126328 
	C156.150040,249.600739 155.123642,248.980957 154.457458,249.157440 
	C153.807129,249.329712 153.390762,250.447083 152.907440,251.173370 
	C152.181931,252.263641 151.487595,253.374664 150.779999,254.476868 
	C150.188202,253.141022 149.176300,251.827057 149.105286,250.464081 
	C149.004410,248.527252 149.595474,246.554398 149.948608,244.191223 
z"/>
<path fill="#2A568E" opacity="1.000000" stroke="none" 
	d="
M123.384216,256.750305 
	C122.862534,258.114899 122.310463,259.118164 121.758392,260.121460 
	C121.148247,259.676758 120.266609,259.365814 119.971123,258.766113 
	C117.709274,254.175491 120.658745,243.389435 125.373459,239.937759 
	C129.956604,244.409973 129.788071,250.678223 131.373886,256.219238 
	C131.495804,256.645233 130.893005,257.679779 130.485901,257.766205 
	C129.798141,257.912170 128.712845,257.774200 128.306274,257.308777 
	C127.570511,256.466522 127.211357,255.295303 126.344833,253.560455 
	C125.188095,254.654373 124.270958,255.521698 123.384216,256.750305 
z"/>
<path fill="#2A568E" opacity="1.000000" stroke="none" 
	d="
M234.050507,248.887299 
	C234.881256,251.578934 235.633377,253.897903 236.385498,256.216858 
	C234.605957,254.701141 232.802261,253.212372 231.062561,251.652237 
	C230.582672,251.221878 230.293533,250.578796 229.693375,249.709656 
	C228.186905,252.441879 226.963455,254.660797 225.740005,256.879730 
	C225.067062,256.582581 224.394119,256.285431 223.721161,255.988297 
	C224.429382,250.615906 224.892807,244.969727 228.874710,240.785934 
	C230.097702,239.500931 234.101120,239.291428 235.734451,240.324188 
	C238.394760,242.006348 237.671555,244.909836 235.322250,247.068359 
	C234.837997,247.513290 234.420273,248.030655 234.050507,248.887299 
z"/>
<path fill="#2D5890" opacity="1.000000" stroke="none" 
	d="
M115.067429,259.117493 
	C113.400658,260.397003 111.973785,261.904297 110.391731,262.090057 
	C108.958786,262.258331 107.356598,260.985291 105.829041,260.347778 
	C107.052948,259.738739 108.288651,259.152008 109.496613,258.512848 
	C110.313461,258.080658 111.091240,257.574615 112.845970,256.530853 
	C110.768929,255.463379 109.485107,254.704361 108.125221,254.123383 
	C104.176010,252.436234 103.084953,249.204468 105.693398,245.871750 
	C106.388451,244.983719 108.050087,244.852203 109.267960,244.373367 
	C109.156548,245.509735 109.111641,246.658279 108.906654,247.777512 
	C108.798393,248.368591 108.411133,248.908585 108.027489,249.735260 
	C112.129578,251.523285 117.302925,252.437790 115.067429,259.117493 
z"/>
<path fill="#305B91" opacity="1.000000" stroke="none" 
	d="
M263.381683,246.477707 
	C263.429016,247.280533 263.311768,248.155563 263.200012,248.154877 
	C257.345459,248.118286 257.694427,253.225586 255.927231,256.660065 
	C255.308823,257.861938 253.843552,258.628082 252.765015,259.593201 
	C252.644135,258.126953 252.160538,256.575562 252.480408,255.212784 
	C253.083221,252.644394 254.149002,250.184631 254.821365,248.256134 
	C253.726105,246.631866 252.900574,245.407639 252.075058,244.183395 
	C253.704910,243.899475 255.443649,243.120270 256.938843,243.448944 
	C259.124146,243.929337 261.134644,245.204773 263.381683,246.477707 
z"/>
<path fill="#315B92" opacity="1.000000" stroke="none" 
	d="
M137.165588,244.042908 
	C137.415756,246.080597 137.640671,247.695892 137.854187,249.229340 
	C138.508255,249.322449 138.802597,249.386429 139.099594,249.403061 
	C141.136475,249.517227 143.173904,249.621490 145.211166,249.728928 
	C143.488892,250.934082 141.908844,252.470779 140.017593,253.281952 
	C134.427322,255.679703 134.384750,255.567001 133.763260,249.376556 
	C133.580780,247.558884 133.058578,245.714432 133.242355,243.939224 
	C133.403336,242.384277 134.336044,240.909241 134.927872,239.398895 
	C135.665344,240.806091 136.402817,242.213287 137.165588,244.042908 
z"/>
<path fill="#315C92" opacity="1.000000" stroke="none" 
	d="
M95.066223,250.372604 
	C96.364723,250.255463 98.408890,250.248917 98.615448,250.861755 
	C99.925346,254.747925 100.928566,258.749725 101.787971,262.765778 
	C101.974319,263.636566 101.163383,264.720734 100.811798,265.706635 
	C99.893059,265.039093 98.404343,264.538300 98.152000,263.675812 
	C96.908783,259.426361 95.993355,255.081039 95.066223,250.372604 
z"/>
<path fill="#2F5A91" opacity="1.000000" stroke="none" 
	d="
M245.123016,253.023926 
	C244.724808,254.337372 244.631744,255.472916 244.025421,256.146423 
	C243.399826,256.841339 242.274857,257.086731 241.368347,257.528748 
	C241.080963,256.692078 240.373596,255.733536 240.575226,255.038788 
	C241.765228,250.938385 243.070007,246.862717 244.582428,242.872055 
	C244.867798,242.119110 246.262787,241.786697 247.145752,241.260223 
	C247.436844,242.246628 248.159058,243.343216 247.940308,244.199356 
	C247.209305,247.060303 246.141510,249.835205 245.123016,253.023926 
z"/>
<path fill="#2C588F" opacity="1.000000" stroke="none" 
	d="
M271.049316,252.001724 
	C269.540466,255.525375 268.299347,258.754517 266.739502,261.821564 
	C266.265747,262.753082 264.911896,263.237030 263.961121,263.925934 
	C263.693512,262.820526 262.918243,261.526459 263.246765,260.642639 
	C264.616760,256.956879 266.197632,253.332565 267.988312,249.832626 
	C268.410370,249.007706 269.949524,248.754349 270.974792,248.238052 
	C271.048065,249.373688 271.121368,250.509323 271.049316,252.001724 
z"/>
<path fill="#DCEBF4" opacity="1.000000" stroke="none" 
	d="
M90.976898,288.429932 
	C92.062302,288.164703 93.148148,288.088501 94.641846,287.989716 
	C93.954475,288.332245 92.859253,288.697388 91.381775,289.029449 
	C90.999512,288.996399 90.977333,288.618988 90.976898,288.429932 
z"/>
<path fill="#3F679A" opacity="1.000000" stroke="none" 
	d="
M105.642929,287.377869 
	C106.089417,287.350739 106.221405,287.725372 106.173126,288.327057 
	C105.771370,288.295959 105.549896,288.037781 105.642929,287.377869 
z"/>
<path fill="#ECF8FD" opacity="1.000000" stroke="none" 
	d="
M94.306625,197.119171 
	C94.075470,196.738815 94.204002,196.280075 94.690094,195.894684 
	C94.920540,196.325623 94.793434,196.683197 94.306625,197.119171 
z"/>
<path fill="#8ED4F0" opacity="1.000000" stroke="none" 
	d="
M84.379517,201.200333 
	C85.514191,200.896469 86.706551,200.475113 87.219910,200.891296 
	C88.877106,202.234818 90.284447,203.886536 91.990166,205.625443 
	C90.075447,207.648575 88.181267,209.649994 86.520241,211.405075 
	C84.454224,209.415329 82.373482,207.411392 80.243164,205.359695 
	C81.368248,204.231644 82.747292,202.848984 84.379517,201.200333 
z"/>
<path fill="#89CBE8" opacity="1.000000" stroke="none" 
	d="
M96.777954,128.759506 
	C99.010353,129.789673 100.999939,131.087051 103.249832,132.554153 
	C101.071350,134.609085 99.416916,136.169693 97.649002,137.837357 
	C95.996048,136.155548 94.503227,134.636658 92.166618,132.259262 
	C93.677345,131.141388 95.106247,130.084045 96.777954,128.759506 
z"/>
<path fill="#8ED4F0" opacity="1.000000" stroke="none" 
	d="
M89.819626,188.747314 
	C90.702751,187.772995 91.342682,187.028214 92.250504,185.971649 
	C93.606010,187.212158 94.740135,188.250076 96.294449,189.672546 
	C94.970238,190.841064 93.785271,191.886719 92.171394,193.310837 
	C91.234772,191.746536 90.405602,190.361710 89.819626,188.747314 
z"/>
</svg>