<svg width="244" height="244" viewBox="0 0 244 244" fill="none" xmlns="http://www.w3.org/2000/svg">
<circle cx="122" cy="122" r="122" fill="#000098"/>
<path d="M121.67 56.0678C132.056 64.7379 146.825 88.7535 122.813 115.455C112.27 105.767 97.2809 80.3262 121.67 56.0678Z" fill="#D9D9D9"/>
<path d="M121.67 56.0678C132.056 64.7379 146.825 88.7535 122.813 115.455C112.27 105.767 97.2809 80.3262 121.67 56.0678Z" fill="white"/>
<path d="M77.0608 144.809C90.5749 144.165 117.699 151.855 118.086 187.764C103.767 187.764 75.5164 179.173 77.0608 144.809Z" fill="#D9D9D9"/>
<path d="M77.0608 144.809C90.5749 144.165 117.699 151.855 118.086 187.764C103.767 187.764 75.5164 179.173 77.0608 144.809Z" fill="white"/>
<path d="M78.0869 104.303C91.601 103.659 118.726 111.349 119.112 147.258C104.793 147.258 76.5425 138.667 78.0869 104.303Z" fill="#D9D9D9"/>
<path d="M78.0869 104.303C91.601 103.659 118.726 111.349 119.112 147.258C104.793 147.258 76.5425 138.667 78.0869 104.303Z" fill="white"/>
<path d="M167.376 144.809C153.862 144.165 126.738 151.855 126.351 187.764C140.67 187.764 168.921 179.173 167.376 144.809Z" fill="#D9D9D9"/>
<path d="M167.376 144.809C153.862 144.165 126.738 151.855 126.351 187.764C140.67 187.764 168.921 179.173 167.376 144.809Z" fill="white"/>
<path d="M166.35 104.303C152.836 103.659 125.711 111.349 125.325 147.258C139.644 147.258 167.895 138.667 166.35 104.303Z" fill="#D9D9D9"/>
<path d="M166.35 104.303C152.836 103.659 125.711 111.349 125.325 147.258C139.644 147.258 167.895 138.667 166.35 104.303Z" fill="white"/>
</svg>
